<svg id="Camada_1" data-name="Camada 1" xmlns="http://www.w3.org/2000/svg" viewBox="0 0 343 293"><defs><style>.cls-1{fill:#ef6c00;}</style></defs><polygon class="cls-1" points="126.5 101.5 126.5 101.5 126.5 109.43 126.5 109.43 126.5 109.43 127.43 109.43 127.43 109.43 127.43 109.43 127.43 102.43 134.43 102.43 134.43 101.5 134.43 101.5 126.5 101.5"/><polygon class="cls-1" points="208.57 101.5 208.57 101.5 208.57 102.43 208.57 102.43 208.57 102.43 208.57 102.43 215.57 102.43 215.57 109.43 216.5 109.43 216.5 109.43 216.5 101.5 216.5 101.5 208.57 101.5"/><polygon class="cls-1" points="216.5 183.57 215.57 183.57 215.57 183.57 215.57 183.57 215.57 190.57 208.57 190.57 208.57 191.5 208.57 191.5 216.5 191.5 216.5 191.5 216.5 183.57 216.5 183.57 216.5 183.57"/><polygon class="cls-1" points="127.43 190.57 127.43 183.57 126.5 183.57 126.5 183.57 126.5 191.5 126.5 191.5 134.43 191.5 134.43 191.5 134.43 190.57 134.43 190.57 134.43 190.57 134.43 190.57 127.43 190.57"/></svg>