<svg id="Camada_1" data-name="Camada 1" xmlns="http://www.w3.org/2000/svg" viewBox="0 0 343 293"><defs><style>.cls-1{fill:#ef6c00;}</style></defs><polygon class="cls-1" points="76.5 68.24 78.47 68.24 78.47 68.24 78.47 68.23 78.47 53.47 93.24 53.47 93.24 51.5 93.23 51.5 76.5 51.5 76.5 51.5 76.5 68.24 76.5 68.24 76.5 68.24"/><polygon class="cls-1" points="249.76 51.5 249.76 51.5 249.76 51.5 249.76 53.47 249.76 53.47 249.76 53.47 264.53 53.47 264.53 68.24 266.5 68.24 266.5 68.23 266.5 51.5 266.5 51.5 249.76 51.5"/><polygon class="cls-1" points="266.5 224.76 264.53 224.76 264.53 224.76 264.53 224.76 264.53 239.53 249.76 239.53 249.76 241.5 249.76 241.5 266.5 241.5 266.5 241.5 266.5 224.76 266.5 224.76 266.5 224.76"/><polygon class="cls-1" points="78.47 239.53 78.47 224.76 76.5 224.76 76.5 224.76 76.5 241.5 76.5 241.5 93.24 241.5 93.24 241.5 93.24 241.5 93.24 239.53 93.24 239.53 93.23 239.53 78.47 239.53"/></svg>