<svg xmlns="http://www.w3.org/2000/svg" width="92" height="92" viewBox="0 0 92 92">
  <defs>
    <style>
      .cls-1 {
        fill: #f57c00;
      }

      .cls-2, .cls-3 {
        fill: #fff;
      }

      .cls-3 {
        font-size: 13px;
        font-family: SegoeUI-Semibold, Segoe UI;
        font-weight: 600;
      }
    </style>
  </defs>
  <g id="Grupo_70" data-name="Grupo 70" transform="translate(-245 -898)">
    <g id="Grupo_8" data-name="Grupo 8" transform="translate(203 227)">
      <rect id="Retângulo_5" data-name="Retângulo 5" class="cls-1" width="92" height="92" rx="46" transform="translate(42 671)"/>
      <path id="Caminho_234" data-name="Caminho 234" class="cls-2" d="M1083.039,669.189h.1a2.611,2.611,0,0,1,1.837.757l7.029,6.982.122.121a3.324,3.324,0,0,1,.063,4.375c-1.11,1.1-20.918,20.78-21.122,20.983a2.638,2.638,0,0,1-3.71,0l-21.124-20.984a3.325,3.325,0,0,1,.062-4.37l.124-.123,7.029-6.982a2.612,2.612,0,0,1,1.837-.757h.093a2.472,2.472,0,0,1,1.741.718l.622.618,6.962,6.916a6.357,6.357,0,0,0,4.508,1.856h0a6.358,6.358,0,0,0,4.509-1.856l6.962-6.916.625-.621a2.46,2.46,0,0,1,1.733-.714h0m.111-1.883H1055.27a4.493,4.493,0,0,0-3.152,1.3l-7.029,6.982v-.008a5.206,5.206,0,0,0-.237,7.121c.009.011,21.175,21.036,21.175,21.036a4.521,4.521,0,0,0,6.364,0s21.166-21.025,21.175-21.036a5.207,5.207,0,0,0-.237-7.121v.008l-7.029-6.982a4.494,4.494,0,0,0-3.152-1.3Zm-13.94,10.108a4.5,4.5,0,0,1-3.182-1.309l-6.962-6.916h20.287l-6.962,6.916a4.5,4.5,0,0,1-3.182,1.309Z" transform="translate(-980.998 24.761)"/>
    </g>
    <text id="Pagar" class="cls-3" transform="translate(260 959)"><tspan x="14.28" y="14">Pagar</tspan></text>
  </g>
</svg>
