<svg xmlns="http://www.w3.org/2000/svg" width="114" height="114" viewBox="0 0 114 114">
  <defs>
    <style>
      .cls-1, .cls-5 {
        fill: #f57c00;
      }

      .cls-1 {
        font-size: 14px;
        font-family: SegoeUI-Semibold, Segoe UI;
        font-weight: 600;
      }

      .cls-2 {
        fill: #ef6c00;
      }

      .cls-3 {
        fill: none;
      }

      .cls-4, .cls-5 {
        stroke: none;
      }
    </style>
  </defs>
  <g id="Grupo_74" data-name="Grupo 74" transform="translate(-370 -1016)">
    <g id="Grupo_73" data-name="Grupo 73">
      <g id="Grupo_72" data-name="Grupo 72">
        <g id="Grupo_67" data-name="Grupo 67">
          <text id="Sacola" class="cls-1" transform="translate(393 1090)"><tspan x="13.581" y="15">Sacola</tspan></text>
          <path id="Caminho_2" data-name="Caminho 2" class="cls-2" d="M182.367,158.512h-8.18l-10.9-10.9a2.835,2.835,0,0,0,.654-1.8,2.868,2.868,0,0,0-5.735,0,2.835,2.835,0,0,0,.654,1.8l-10.9,10.9h-8.179v4.4h1.8v17.5a4.477,4.477,0,0,0,4.537,4.4h29.923a4.477,4.477,0,0,0,4.537-4.4v-17.5h1.8ZM156,164.585V180.42H152.49V164.585Zm3.231,0h3.5V180.42h-3.5Zm6.734,0h3.506V180.42H165.96Zm-4.888-15.9a2.856,2.856,0,0,0,1.01-.192l10.028,10.022H150.032L160.06,148.49A2.858,2.858,0,0,0,161.072,148.682ZM146.11,178.494V164.585h3.15V180.42h-1.223A1.926,1.926,0,0,1,146.11,178.494Zm27.857,1.926H172.7V164.585h3.338l0,13.766A2.069,2.069,0,0,1,173.967,180.42Z" transform="translate(265.428 899.376)"/>
          <g id="Grupo_66" data-name="Grupo 66" transform="translate(-29 132)">
            <g id="Caminho_235" data-name="Caminho 235" class="cls-3" transform="translate(399 884)">
              <path class="cls-4" d="M57,0A57,57,0,1,1,0,57,57,57,0,0,1,57,0Z"/>
              <path class="cls-5" d="M 57 1 C 49.43959808349609 1 42.10589599609375 2.480491638183594 35.20258331298828 5.400352478027344 C 31.88456726074219 6.803756713867188 28.68426513671875 8.54083251953125 25.69056701660156 10.56332397460938 C 22.72504425048828 12.56678771972656 19.93638610839844 14.86766052246094 17.40201568603516 17.40201568603516 C 14.86766052246094 19.93638610839844 12.56678771972656 22.72504425048828 10.56332397460938 25.69056701660156 C 8.54083251953125 28.68426513671875 6.803756713867188 31.88456726074219 5.400352478027344 35.20258331298828 C 2.480491638183594 42.10589599609375 1 49.43959808349609 1 57 C 1 64.56039428710938 2.480491638183594 71.89410400390625 5.400352478027344 78.79741668701172 C 6.803756713867188 82.11543273925781 8.54083251953125 85.31573486328125 10.56332397460938 88.30943298339844 C 12.56678771972656 91.27495574951172 14.86766052246094 94.06361389160156 17.40201568603516 96.59798431396484 C 19.93638610839844 99.13233947753906 22.72504425048828 101.4332122802734 25.69056701660156 103.4366760253906 C 28.68426513671875 105.4591674804688 31.88456726074219 107.1962432861328 35.20258331298828 108.5996475219727 C 42.10589599609375 111.5195083618164 49.43959808349609 113 57 113 C 64.56039428710938 113 71.89410400390625 111.5195083618164 78.79741668701172 108.5996475219727 C 82.11543273925781 107.1962432861328 85.31573486328125 105.4591674804688 88.30943298339844 103.4366760253906 C 91.27495574951172 101.4332122802734 94.06361389160156 99.13233947753906 96.59798431396484 96.59798431396484 C 99.13233947753906 94.06361389160156 101.4332122802734 91.27495574951172 103.4366760253906 88.30943298339844 C 105.4591674804688 85.31573486328125 107.1962432861328 82.11543273925781 108.5996475219727 78.79741668701172 C 111.5195083618164 71.89410400390625 113 64.56039428710938 113 57 C 113 49.43959808349609 111.5195083618164 42.10589599609375 108.5996475219727 35.20258331298828 C 107.1962432861328 31.88456726074219 105.4591674804688 28.68426513671875 103.4366760253906 25.69056701660156 C 101.4332122802734 22.72504425048828 99.13233947753906 19.93638610839844 96.59798431396484 17.40201568603516 C 94.06361389160156 14.86766052246094 91.27495574951172 12.56678771972656 88.30943298339844 10.56332397460938 C 85.31573486328125 8.54083251953125 82.11543273925781 6.803756713867188 78.79741668701172 5.400352478027344 C 71.89410400390625 2.480491638183594 64.56039428710938 1 57 1 M 57 0 C 88.48023223876953 0 114 25.51976776123047 114 57 C 114 88.48023223876953 88.48023223876953 114 57 114 C 25.51976776123047 114 0 88.48023223876953 0 57 C 0 25.51976776123047 25.51976776123047 0 57 0 Z"/>
            </g>
          </g>
        </g>
      </g>
    </g>
  </g>
</svg>
