<svg xmlns="http://www.w3.org/2000/svg" xmlns:xlink="http://www.w3.org/1999/xlink" width="186" height="186" viewBox="0 0 186 186">
  <defs>
    <style>
      .cls-1 {
        fill: #f57c00;
      }

      .cls-2, .cls-3 {
        fill: #fff;
      }

      .cls-3 {
        font-size: 19px;
        font-family: SegoeUI-Semibold, Segoe UI;
        font-weight: 600;
      }

      .cls-4 {
        filter: url(#Elipse_8);
      }
    </style>
    <filter id="Elipse_8" x="0" y="0" width="186" height="186" filterUnits="userSpaceOnUse">
      <feOffset dy="3" input="SourceAlpha"/>
      <feGaussianBlur stdDeviation="3" result="blur"/>
      <feFlood flood-opacity="0.302"/>
      <feComposite operator="in" in2="blur"/>
      <feComposite in="SourceGraphic"/>
    </filter>
  </defs>
  <g id="Grupo_86" data-name="Grupo 86" transform="translate(-95 -316)">
    <g id="Grupo_80" data-name="Grupo 80">
      <g id="Grupo_81" data-name="Grupo 81">
        <g class="cls-4" transform="matrix(1, 0, 0, 1, 95, 316)">
          <circle id="Elipse_8-2" data-name="Elipse 8" class="cls-1" cx="84" cy="84" r="84" transform="translate(9 6)"/>
        </g>
        <path id="Caminho_25" data-name="Caminho 25" class="cls-2" d="M158.037,335.132a35.919,35.919,0,0,0-20.833,63.11,6.749,6.749,0,0,0,.62.727l22.756,22.756,22.756-22.756a6.6,6.6,0,0,0,.619-.727,35.921,35.921,0,0,0-25.92-63.11Zm2.544,55.172a20.032,20.032,0,1,1,20.032-20.032A20.032,20.032,0,0,1,160.581,390.3Z" transform="translate(27.346 14.156)"/>
        <text id="localizar" class="cls-3" transform="translate(133 443)"><tspan x="19.57" y="21">localizar</tspan></text>
      </g>
    </g>
  </g>
</svg>
