<svg xmlns="http://www.w3.org/2000/svg" width="114" height="114" viewBox="0 0 114 114">
  <defs>
    <style>
      .cls-1 {
        fill: #f57c00;
      }

      .cls-2, .cls-3 {
        fill: #fff;
      }

      .cls-2 {
        font-size: 14px;
        font-family: SegoeUI-Semibold, Segoe UI;
        font-weight: 600;
      }
    </style>
  </defs>
  <g id="Grupo_68" data-name="Grupo 68" transform="translate(-370 -884)">
    <g id="Grupo_65" data-name="Grupo 65" transform="translate(-29)">
      <g id="Grupo_69" data-name="Grupo 69">
        <path id="Caminho_235" data-name="Caminho 235" class="cls-1" d="M57,0A57,57,0,1,1,0,57,57,57,0,0,1,57,0Z" transform="translate(399 884)"/>
        <text id="Pagar" class="cls-2" transform="translate(426 957)"><tspan x="12.994" y="15">Pagar</tspan></text>
        <path id="Caminho_26" data-name="Caminho 26" class="cls-3" d="M1083.039,669.189h.1a2.611,2.611,0,0,1,1.837.757l7.029,6.982.122.121a3.324,3.324,0,0,1,.063,4.375c-1.11,1.1-20.918,20.78-21.122,20.983a2.638,2.638,0,0,1-3.71,0l-21.124-20.984a3.325,3.325,0,0,1,.062-4.37l.124-.123,7.029-6.982a2.612,2.612,0,0,1,1.837-.757h.093a2.472,2.472,0,0,1,1.741.718l.622.618,6.962,6.916a6.357,6.357,0,0,0,4.508,1.856h0a6.358,6.358,0,0,0,4.509-1.856l6.962-6.916.625-.621a2.46,2.46,0,0,1,1.733-.714h0m.111-1.883H1055.27a4.493,4.493,0,0,0-3.152,1.3l-7.029,6.982v-.008a5.206,5.206,0,0,0-.237,7.121c.009.011,21.175,21.036,21.175,21.036a4.521,4.521,0,0,0,6.364,0s21.166-21.025,21.175-21.036a5.207,5.207,0,0,0-.237-7.121v.008l-7.029-6.982a4.494,4.494,0,0,0-3.152-1.3Zm-13.94,10.108a4.5,4.5,0,0,1-3.182-1.309l-6.962-6.916h20.287l-6.962,6.916a4.5,4.5,0,0,1-3.182,1.309Z" transform="translate(-612.998 247.761)"/>
      </g>
    </g>
  </g>
</svg>
