<svg xmlns="http://www.w3.org/2000/svg" xmlns:xlink="http://www.w3.org/1999/xlink" width="375" height="1231" viewBox="0 0 375 1231">
  <defs>
    <style>
      .cls-1, .cls-10, .cls-14, .cls-5, .cls-6, .cls-9 {
        fill: none;
      }

      .cls-2 {
        clip-path: url(#clip-cadastro);
      }

      .cls-11, .cls-12, .cls-21, .cls-22, .cls-27, .cls-28, .cls-3, .cls-7 {
        fill: #fff;
      }

      .cls-4 {
        fill: url(#linear-gradient);
      }

      .cls-5, .cls-6 {
        stroke: #fff;
        stroke-width: 3px;
      }

      .cls-10, .cls-6 {
        stroke-linecap: round;
      }

      .cls-7 {
        stroke: rgba(0,0,0,0);
        stroke-miterlimit: 10;
      }

      .cls-8 {
        fill: #dfdcdc;
      }

      .cls-10, .cls-14, .cls-21, .cls-9 {
        stroke: #9e9e9e;
      }

      .cls-10, .cls-9 {
        stroke-width: 2px;
      }

      .cls-11 {
        font-size: 15px;
      }

      .cls-11, .cls-15, .cls-26 {
        font-family: SegoeUI, Segoe UI;
      }

      .cls-12 {
        font-size: 25px;
      }

      .cls-12, .cls-16, .cls-28 {
        font-family: SegoeUI-Semibold, Segoe UI;
        font-weight: 600;
      }

      .cls-13, .cls-24 {
        fill: #f57c00;
      }

      .cls-13 {
        font-size: 20px;
      }

      .cls-13, .cls-27 {
        font-family: Arial-BoldMT, Arial;
        font-weight: 700;
      }

      .cls-15, .cls-18, .cls-25 {
        fill: #9e9e9e;
      }

      .cls-15, .cls-23, .cls-24, .cls-25, .cls-26 {
        font-size: 14px;
      }

      .cls-16, .cls-20 {
        fill: #424242;
      }

      .cls-16, .cls-27, .cls-28 {
        font-size: 12px;
      }

      .cls-17 {
        clip-path: url(#clip-path);
      }

      .cls-19 {
        clip-path: url(#clip-path-2);
      }

      .cls-22 {
        stroke: #bce0fd;
      }

      .cls-23 {
        fill: #2699fb;
      }

      .cls-23, .cls-24, .cls-25 {
        font-family: ArialMT, Arial;
      }

      .cls-26 {
        fill: #7f7f7f;
      }

      .cls-29 {
        stroke: none;
      }
    </style>
    <linearGradient id="linear-gradient" x1="0.5" x2="0.5" y2="1" gradientUnits="objectBoundingBox">
      <stop offset="0" stop-color="#f57c00"/>
      <stop offset="1" stop-color="#d84315"/>
    </linearGradient>
    <clipPath id="clip-path">
      <rect class="cls-1" width="16" height="16"/>
    </clipPath>
    <clipPath id="clip-path-2">
      <rect class="cls-1" width="10" height="10"/>
    </clipPath>
    <clipPath id="clip-cadastro">
      <rect width="375" height="1231"/>
    </clipPath>
  </defs>
  <g id="cadastro" class="cls-2">
    <path id="Icon_awesome-arrow-left" data-name="Icon awesome-arrow-left" class="cls-3" d="M6.95,13.648l-.6.6a.645.645,0,0,1-.915,0L.187,9a.645.645,0,0,1,0-.915L5.435,2.838a.645.645,0,0,1,.915,0l.6.6a.649.649,0,0,1-.011.926l-3.253,3.1h7.759a.646.646,0,0,1,.648.648v.864a.646.646,0,0,1-.648.648H3.686l3.253,3.1A.644.644,0,0,1,6.95,13.648Z" transform="translate(36.004 41.353)"/>
    <rect id="topo" class="cls-4" width="375" height="1230"/>
    <rect id="bg_branco" data-name="bg branco" class="cls-3" width="375" height="955" rx="36" transform="translate(0 174)"/>
    <g id="lupa" transform="translate(470 321)">
      <g id="lupa-2" data-name="lupa">
        <g id="Elipse_2" data-name="Elipse 2" class="cls-5" transform="translate(-137 -277)">
          <circle class="cls-29" cx="9" cy="9" r="9"/>
          <circle class="cls-1" cx="9" cy="9" r="7.5"/>
        </g>
        <line id="Linha_1" data-name="Linha 1" class="cls-6" x2="7" y2="7" transform="translate(-122.5 -262.5)"/>
      </g>
    </g>
    <g id="LOGO" transform="translate(-257.005 -80.124)">
      <g id="Grupo_5" data-name="Grupo 5" transform="translate(451.5 158.035)">
        <g id="Grupo_4" data-name="Grupo 4" transform="translate(0 0)">
          <g id="Grupo_3" data-name="Grupo 3">
            <path id="Exclusão_1" data-name="Exclusão 1" class="cls-7" d="M5.139,12.4h0L1.884,9.144a.915.915,0,0,1-.089-.1A5.138,5.138,0,0,1,4.775.013C4.9,0,5.019,0,5.14,0A5.138,5.138,0,0,1,8.484,9.04a.911.911,0,0,1-.089.1L5.14,12.4Zm0-10.226A2.866,2.866,0,1,0,8.005,5.039,2.869,2.869,0,0,0,5.14,2.174Z"/>
          </g>
        </g>
      </g>
      <path id="Caminho_4" data-name="Caminho 4" class="cls-3" d="M407.67,180.7h3.769l-5.984,17.6h-4.07l-5.973-17.6h3.769l3.311,10.476q.277.927.572,2.161t.368,1.715a30.81,30.81,0,0,1,.9-3.877Z" transform="translate(0 -8.849)"/>
      <path id="Caminho_5" data-name="Caminho 5" class="cls-3" d="M427.217,198.306V180.7h3.733v17.6Z" transform="translate(-12.416 -8.849)"/>
      <path id="Caminho_6" data-name="Caminho 6" class="cls-3" d="M446.3,198.306h-3.733v-14.5h-4.78V180.7h13.293v3.107H446.3Z" transform="translate(-16.541 -8.849)"/>
      <path id="Caminho_7" data-name="Caminho 7" class="cls-3" d="M467.766,191.551v6.755h-3.733V180.7h5.129a8.777,8.777,0,0,1,5.31,1.306,5.207,5.207,0,0,1,.867,6.731,5.66,5.66,0,0,1-2.42,1.9q3.973,5.936,5.178,7.67h-4.142l-4.2-6.755Zm0-3.034h1.2a4.6,4.6,0,0,0,2.612-.59,2.1,2.1,0,0,0,.844-1.854,1.926,1.926,0,0,0-.861-1.782,5.226,5.226,0,0,0-2.667-.53h-1.131Z" transform="translate(-26.788 -8.849)"/>
      <path id="Caminho_8" data-name="Caminho 8" class="cls-3" d="M492.618,198.306V180.7h3.733v17.6Z" transform="translate(-37.946 -8.849)"/>
      <path id="Caminho_9" data-name="Caminho 9" class="cls-3" d="M523.507,198.306h-4.745L511.1,184.988H511q.229,3.529.229,5.033v8.284H507.89V180.7H512.6l7.646,13.185h.085q-.182-3.432-.181-4.853V180.7h3.36Z" transform="translate(-43.908 -8.849)"/>
      <path id="Caminho_10" data-name="Caminho 10" class="cls-3" d="M550.914,198.306H540.775V180.7h10.139v3.058h-6.406v3.865h5.96v3.059h-5.96v4.539h6.406Z" transform="translate(-56.746 -8.849)"/>
    </g>
    <g id="Grupo_15" data-name="Grupo 15" transform="translate(0 -51)">
      <g id="Grupo_89" data-name="Grupo 89" transform="translate(0 245)">
        <g id="Grupo_88" data-name="Grupo 88">
          <g id="BOTTOM" transform="translate(0 985)">
            <rect id="Retângulo_8" data-name="Retângulo 8" class="cls-8" width="375" height="52"/>
          </g>
          <g id="Grupo_10" data-name="Grupo 10" transform="translate(0.5 225)">
            <g id="Retângulo_9" data-name="Retângulo 9" class="cls-9" transform="translate(178 774)">
              <rect class="cls-29" width="20" height="20" rx="6"/>
              <rect class="cls-1" x="1" y="1" width="18" height="18" rx="5"/>
            </g>
            <g id="Grupo_9" data-name="Grupo 9" transform="translate(0 -1.5)">
              <line id="Linha_2" data-name="Linha 2" class="cls-10" y2="15" transform="translate(77.5 778.5)"/>
              <line id="Linha_3" data-name="Linha 3" class="cls-10" y2="15" transform="translate(85.5 778.5)"/>
              <line id="Linha_4" data-name="Linha 4" class="cls-10" y2="15" transform="translate(92.5 778.5)"/>
            </g>
            <path id="Caminho_11" data-name="Caminho 11" class="cls-10" d="M872.2,762.8l-7.6,7.6,7.6,7.6" transform="translate(-575 13.7)"/>
            <path id="Caminho_20" data-name="Caminho 20" class="cls-10" d="M872.2,762.8l-7.6,7.6,7.6,7.6" transform="translate(-575 13.7)"/>
          </g>
        </g>
      </g>
    </g>
    <g id="TOPO_HORÁRIO" data-name="TOPO HORÁRIO" transform="translate(19 2)">
      <g id="Grupo_14" data-name="Grupo 14" transform="translate(-17 -14)">
        <path id="Icon_awesome-battery-three-quarters" data-name="Icon awesome-battery-three-quarters" class="cls-3" d="M17.341,8.79v2.04h1.02v2.04h-1.02v2.04H2.04V8.79h15.3m.51-2.04H1.53A1.53,1.53,0,0,0,0,8.28v7.14a1.53,1.53,0,0,0,1.53,1.53H17.851a1.53,1.53,0,0,0,1.53-1.53v-.51h.255a.765.765,0,0,0,.765-.765V9.555a.765.765,0,0,0-.765-.765h-.255V8.28A1.53,1.53,0,0,0,17.851,6.75Zm-4.59,3.06H3.06v4.08h10.2Z" transform="translate(333.118 13.05)"/>
        <path id="Icon_awesome-wifi" data-name="Icon awesome-wifi" class="cls-3" d="M15.508,5.251a11.357,11.357,0,0,0-15.383,0,.388.388,0,0,0-.009.561l.836.83a.4.4,0,0,0,.547.009,9.371,9.371,0,0,1,12.634,0,.4.4,0,0,0,.547-.009l.836-.83a.388.388,0,0,0-.009-.561ZM7.816,10.066a1.563,1.563,0,1,0,1.563,1.563A1.563,1.563,0,0,0,7.816,10.066Zm4.95-2.042a7.5,7.5,0,0,0-9.9,0,.386.386,0,0,0-.014.565l.841.83a.4.4,0,0,0,.539.02,5.5,5.5,0,0,1,7.168,0,.4.4,0,0,0,.539-.02l.841-.83A.386.386,0,0,0,12.766,8.024Z" transform="translate(306.487 16.808)"/>
        <text id="_16:00" data-name="16:00" class="cls-11" transform="translate(17 30)"><tspan x="0" y="0">16:00</tspan></text>
        <text id="_16:00-2" data-name="16:00" class="cls-11" transform="translate(17 30)"><tspan x="0" y="0">16:00</tspan></text>
      </g>
    </g>
    <text id="Tatiana" class="cls-12" transform="translate(147 142)"><tspan x="0" y="0">Tatiana</tspan></text>
    <g id="Grupo_26" data-name="Grupo 26">
      <text id="vitrine_americanas" data-name="vitrine americanas" class="cls-11" transform="translate(59 56)"><tspan x="0" y="0">vitrine americanas</tspan></text>
      <path id="Icon_awesome-arrow-left-2" data-name="Icon awesome-arrow-left" class="cls-3" d="M6.95,13.648l-.6.6a.645.645,0,0,1-.915,0L.187,9a.645.645,0,0,1,0-.915L5.435,2.838a.645.645,0,0,1,.915,0l.6.6a.649.649,0,0,1-.011.926l-3.253,3.1h7.759a.646.646,0,0,1,.648.648v.864a.646.646,0,0,1-.648.648H3.686l3.253,3.1A.644.644,0,0,1,6.95,13.648Z" transform="translate(36.004 41.353)"/>
    </g>
    <g id="Create_an_Account" data-name="Create an Account" transform="translate(0 184)">
      <text id="Crie_uma_conta" data-name="Crie uma conta" class="cls-13" transform="translate(188 84)"><tspan x="-72.241" y="0">Crie uma conta</tspan></text>
    </g>
    <g id="Input" transform="translate(0 113)">
      <g id="Retângulo_135" data-name="Retângulo 135" class="cls-14" transform="translate(48 200)">
        <rect class="cls-29" width="279" height="48" rx="24"/>
        <rect class="cls-1" x="0.5" y="0.5" width="278" height="47" rx="23.5"/>
      </g>
      <text id="Tatiana_Soares" data-name="Tatiana Soares" class="cls-15" transform="translate(68 229)"><tspan x="0" y="0">Tatiana Soares</tspan></text>
      <text id="Nome_e_sobrenome" data-name="Nome e sobrenome" class="cls-16" transform="translate(48 192)"><tspan x="0" y="0">Nome e sobrenome</tspan></text>
    </g>
    <g id="Navigation_Bar" data-name="Navigation Bar" transform="translate(0 160)">
      <rect id="Retângulo_68" data-name="Retângulo 68" class="cls-1" width="375" height="20"/>
      <rect id="Retângulo_69" data-name="Retângulo 69" class="cls-1" width="375" height="48" transform="translate(0 20)"/>
      <g id="Backward_arrow" data-name="Backward arrow" class="cls-17" transform="translate(26 36)">
        <path id="Caminho_10-2" data-name="Caminho 10" class="cls-18" d="M8,0,6.545,1.455l5.506,5.506H0V9.039H12.052L6.545,14.545,8,16l8-8Z" transform="translate(16 16) rotate(180)"/>
      </g>
    </g>
    <g id="Input-2" data-name="Input" transform="translate(0 197)">
      <g id="Retângulo_1409" data-name="Retângulo 1409" class="cls-14" transform="translate(48 200)">
        <rect class="cls-29" width="279" height="48" rx="24"/>
        <rect class="cls-1" x="0.5" y="0.5" width="278" height="47" rx="23.5"/>
      </g>
      <text id="CPF_" data-name="CPF*" class="cls-16" transform="translate(48 197)"><tspan x="0" y="0">CPF*</tspan></text>
      <g id="Symbol_156_6" data-name="Symbol 156 – 6" class="cls-19" transform="translate(301 219)">
        <path id="Caminho_36" data-name="Caminho 36" class="cls-20" d="M6.7,8.1,2,3.4,3.4,2,6.7,5.3,10,2l1.4,1.4Z" transform="translate(-2)"/>
        <rect id="Retângulo_1467" data-name="Retângulo 1467" class="cls-1" width="10" height="10"/>
      </g>
    </g>
    <g id="Input-3" data-name="Input" transform="translate(0 291)">
      <g id="Retângulo_1410" data-name="Retângulo 1410" class="cls-21" transform="translate(48 200)">
        <rect class="cls-29" width="279" height="48" rx="24"/>
        <rect class="cls-1" x="0.5" y="0.5" width="278" height="47" rx="23.5"/>
      </g>
      <text id="Data_de_nascimento_" data-name="Data de nascimento*" class="cls-16" transform="translate(48 192)"><tspan x="0" y="0">Data de nascimento*</tspan></text>
      <g id="Symbol_156_8" data-name="Symbol 156 – 8" class="cls-19" transform="translate(301 219)">
        <path id="Caminho_36-2" data-name="Caminho 36" class="cls-20" d="M6.7,8.1,2,3.4,3.4,2,6.7,5.3,10,2l1.4,1.4Z" transform="translate(-2)"/>
        <rect id="Retângulo_1467-2" data-name="Retângulo 1467" class="cls-1" width="10" height="10"/>
      </g>
    </g>
    <g id="Retângulo_135-2" data-name="Retângulo 135" class="cls-22" transform="translate(48 847)">
      <rect class="cls-29" width="279" height="48" rx="24"/>
      <rect class="cls-1" x="0.5" y="0.5" width="278" height="47" rx="23.5"/>
    </g>
    <text id="_" data-name="●●●●●●●" class="cls-23" transform="translate(68 876)"><tspan x="0" y="0">●●●●●●●</tspan></text>
    <g id="Retângulo_135-3" data-name="Retângulo 135" class="cls-21" transform="translate(48 847)">
      <rect class="cls-29" width="279" height="48" rx="24"/>
      <rect class="cls-1" x="0.5" y="0.5" width="278" height="47" rx="23.5"/>
    </g>
    <text id="_2" data-name="●●●●●●●" class="cls-24" transform="translate(68 876)"><tspan x="0" y="0">●●●●●●●</tspan></text>
    <g id="Grupo_92" data-name="Grupo 92" transform="translate(0 42)">
      <g id="Input-4" data-name="Input" transform="translate(-883 684)">
        <g id="Retângulo_135-4" data-name="Retângulo 135" class="cls-22" transform="translate(931 200)">
          <rect class="cls-29" width="279" height="48" rx="24"/>
          <rect class="cls-1" x="0.5" y="0.5" width="278" height="47" rx="23.5"/>
        </g>
        <text id="_3" data-name="●●●●●●●" class="cls-23" transform="translate(951 229)"><tspan x="0" y="0">●●●●●●●</tspan></text>
        <text id="Confirmar_Senha_" data-name="Confirmar Senha*" class="cls-16" transform="translate(931 192)"><tspan x="0" y="0">Confirmar Senha*</tspan></text>
        <text id="Senha_" data-name="Senha*" class="cls-16" transform="translate(931 115)"><tspan x="0" y="0">Senha*</tspan></text>
      </g>
      <g id="Input-5" data-name="Input" transform="translate(-883 684)">
        <g id="Retângulo_135-5" data-name="Retângulo 135" class="cls-21" transform="translate(931 200)">
          <rect class="cls-29" width="279" height="48" rx="24"/>
          <rect class="cls-1" x="0.5" y="0.5" width="278" height="47" rx="23.5"/>
        </g>
        <text id="_4" data-name="●●●●●●●" class="cls-24" transform="translate(951 229)"><tspan x="0" y="0">●●●●●●●</tspan></text>
      </g>
    </g>
    <g id="Grupo_95" data-name="Grupo 95" transform="translate(0 -41)">
      <g id="Grupo_94" data-name="Grupo 94" transform="translate(0 154)">
        <g id="Grupo_93" data-name="Grupo 93" transform="translate(0 188)">
          <g id="Input-6" data-name="Input" transform="translate(0 168)">
            <g id="Retângulo_135-6" data-name="Retângulo 135" class="cls-14" transform="translate(48 200)">
              <rect class="cls-29" width="279" height="48" rx="24"/>
              <rect class="cls-1" x="0.5" y="0.5" width="278" height="47" rx="23.5"/>
            </g>
            <text id="johndoe_mail.com" data-name="johndoe@mail.com" class="cls-25" transform="translate(68 229)"><tspan x="0" y="0">johndoe@mail.com</tspan></text>
            <text id="E-mail" class="cls-16" transform="translate(48 192)"><tspan x="0" y="0">E-mail</tspan></text>
            <g id="Retângulo_1468" data-name="Retângulo 1468" class="cls-14" transform="translate(48 289)">
              <rect class="cls-29" width="279" height="48" rx="24"/>
              <rect class="cls-1" x="0.5" y="0.5" width="278" height="47" rx="23.5"/>
            </g>
          </g>
        </g>
      </g>
      <text id="Confirme_seu_e-mail_" data-name="Confirme seu e-mail*" class="cls-16" transform="translate(48 789)"><tspan x="0" y="0">Confirme seu e-mail*</tspan></text>
    </g>
    <g id="input-7" data-name="input" transform="translate(31 -210)">
      <g id="Retângulo_143" data-name="Retângulo 143" class="cls-21" transform="translate(17 790)">
        <rect class="cls-29" width="279" height="48" rx="24"/>
        <rect class="cls-1" x="0.5" y="0.5" width="278" height="47" rx="23.5"/>
      </g>
      <text id="Av_Paulista" data-name="Av Paulista" class="cls-26" transform="translate(37 819)"><tspan x="0" y="0">Av Paulista</tspan></text>
      <text id="Telefone" class="cls-16" transform="translate(17 782)"><tspan x="0" y="0">Telefone</tspan></text>
    </g>
    <g id="Button" transform="translate(-79 416)">
      <text id="ENVIAR_" data-name="ENVIAR " class="cls-27" transform="translate(268 624)"><tspan x="-24.337" y="0">ENVIAR </tspan></text>
      <g id="botão_facebook" data-name="botão facebook" transform="translate(127 600)">
        <path id="Caminho_13" data-name="Caminho 13" class="cls-4" d="M22.776,0H256.225C268.8,0,279,8.954,279,20s-10.2,20-22.775,20H22.776C10.2,40,0,31.046,0,20S10.2,0,22.776,0Z"/>
      </g>
      <text id="Enviar" class="cls-28" transform="translate(249 613)"><tspan x="0" y="13">Enviar</tspan></text>
    </g>
  </g>
</svg>
