<svg xmlns="http://www.w3.org/2000/svg" xmlns:xlink="http://www.w3.org/1999/xlink" width="375" height="812" viewBox="0 0 375 812">
  <defs>
    <style>
      .cls-1, .cls-10, .cls-11, .cls-25, .cls-28, .cls-31, .cls-33, .cls-6, .cls-7 {
        fill: none;
      }

      .cls-2 {
        fill: #efecec;
      }

      .cls-3 {
        clip-path: url(#clip-Pág_Novo_endereço_de_entrega);
      }

      .cls-12, .cls-13, .cls-18, .cls-20, .cls-22, .cls-24, .cls-30, .cls-4, .cls-8 {
        fill: #fff;
      }

      .cls-5 {
        fill: url(#linear-gradient);
      }

      .cls-6, .cls-7 {
        stroke: #fff;
      }

      .cls-33, .cls-6, .cls-7 {
        stroke-width: 3px;
      }

      .cls-11, .cls-7 {
        stroke-linecap: round;
      }

      .cls-8 {
        stroke: rgba(0,0,0,0);
        stroke-miterlimit: 10;
      }

      .cls-9 {
        fill: #dfdcdc;
      }

      .cls-10, .cls-11, .cls-24, .cls-25 {
        stroke: #9e9e9e;
      }

      .cls-10, .cls-11 {
        stroke-width: 2px;
      }

      .cls-12, .cls-14 {
        font-size: 15px;
      }

      .cls-12 {
        font-family: SegoeUI, Segoe UI;
      }

      .cls-13 {
        font-size: 25px;
      }

      .cls-13, .cls-14, .cls-20, .cls-21, .cls-23, .cls-26 {
        font-family: SegoeUI-Semibold, Segoe UI;
      }

      .cls-13, .cls-14, .cls-20, .cls-21, .cls-23, .cls-26, .cls-29, .cls-30, .cls-32 {
        font-weight: 600;
      }

      .cls-14, .cls-16, .cls-23 {
        fill: #9e9e9e;
      }

      .cls-15 {
        clip-path: url(#clip-path);
      }

      .cls-17 {
        clip-path: url(#clip-path-2);
      }

      .cls-18 {
        stroke: #f57c00;
      }

      .cls-19, .cls-21, .cls-27, .cls-29, .cls-35 {
        fill: #f57c00;
      }

      .cls-20, .cls-21, .cls-29, .cls-30, .cls-32 {
        font-size: 13px;
      }

      .cls-22 {
        stroke: #dfdcdc;
      }

      .cls-23, .cls-26 {
        font-size: 8px;
      }

      .cls-26 {
        fill: #424242;
      }

      .cls-29, .cls-30, .cls-32 {
        font-family: OpenSans-SemiBold, Open Sans;
      }

      .cls-31, .cls-33 {
        stroke: #ef6c00;
      }

      .cls-32, .cls-36 {
        fill: #ef6c00;
      }

      .cls-34, .cls-35, .cls-36 {
        stroke: none;
      }
    </style>
    <linearGradient id="linear-gradient" x1="0.5" x2="0.5" y2="1" gradientUnits="objectBoundingBox">
      <stop offset="0" stop-color="#f57c00"/>
      <stop offset="1" stop-color="#d84315"/>
    </linearGradient>
    <clipPath id="clip-path">
      <rect class="cls-1" width="22" height="16"/>
    </clipPath>
    <clipPath id="clip-path-2">
      <path id="União_1" data-name="União 1" class="cls-2" d="M30.128,82C13.489,82,0,80.018,0,77.574V0H313V77.574C313,80.018,299.511,82,282.872,82Z"/>
    </clipPath>
    <clipPath id="clip-Pág_Novo_endereço_de_entrega">
      <rect width="375" height="812"/>
    </clipPath>
  </defs>
  <g id="Pág_Novo_endereço_de_entrega" data-name="Pág Novo endereço de entrega" class="cls-3">
    <path id="Icon_awesome-arrow-left" data-name="Icon awesome-arrow-left" class="cls-4" d="M6.95,13.648l-.6.6a.645.645,0,0,1-.915,0L.187,9a.645.645,0,0,1,0-.915L5.435,2.838a.645.645,0,0,1,.915,0l.6.6a.649.649,0,0,1-.011.926l-3.253,3.1h7.759a.646.646,0,0,1,.648.648v.864a.646.646,0,0,1-.648.648H3.686l3.253,3.1A.644.644,0,0,1,6.95,13.648Z" transform="translate(36.004 41.353)"/>
    <rect id="topo" class="cls-5" width="375" height="808"/>
    <path id="bg_branco" data-name="bg branco" class="cls-4" d="M36,0H339a36,36,0,0,1,36,36V647H0V36A36,36,0,0,1,36,0Z" transform="translate(0 165)"/>
    <g id="lupa" transform="translate(470 321)">
      <g id="lupa-2" data-name="lupa">
        <g id="Elipse_2" data-name="Elipse 2" class="cls-6" transform="translate(-137 -277)">
          <circle class="cls-34" cx="9" cy="9" r="9"/>
          <circle class="cls-1" cx="9" cy="9" r="7.5"/>
        </g>
        <line id="Linha_1" data-name="Linha 1" class="cls-7" x2="7" y2="7" transform="translate(-122.5 -262.5)"/>
      </g>
    </g>
    <g id="LOGO" transform="translate(-257.005 -80.124)">
      <g id="Grupo_5" data-name="Grupo 5" transform="translate(451.5 158.035)">
        <g id="Grupo_4" data-name="Grupo 4" transform="translate(0 0)">
          <g id="Grupo_3" data-name="Grupo 3">
            <path id="Exclusão_1" data-name="Exclusão 1" class="cls-8" d="M5.139,12.4h0L1.884,9.144a.915.915,0,0,1-.089-.1A5.138,5.138,0,0,1,4.775.013C4.9,0,5.019,0,5.14,0A5.138,5.138,0,0,1,8.484,9.04a.911.911,0,0,1-.089.1L5.14,12.4Zm0-10.226A2.866,2.866,0,1,0,8.005,5.039,2.869,2.869,0,0,0,5.14,2.174Z"/>
          </g>
        </g>
      </g>
      <path id="Caminho_4" data-name="Caminho 4" class="cls-4" d="M407.67,180.7h3.769l-5.984,17.6h-4.07l-5.973-17.6h3.769l3.311,10.476q.277.927.572,2.161t.368,1.715a30.81,30.81,0,0,1,.9-3.877Z" transform="translate(0 -8.849)"/>
      <path id="Caminho_5" data-name="Caminho 5" class="cls-4" d="M427.217,198.306V180.7h3.733v17.6Z" transform="translate(-12.416 -8.849)"/>
      <path id="Caminho_6" data-name="Caminho 6" class="cls-4" d="M446.3,198.306h-3.733v-14.5h-4.78V180.7h13.293v3.107H446.3Z" transform="translate(-16.541 -8.849)"/>
      <path id="Caminho_7" data-name="Caminho 7" class="cls-4" d="M467.766,191.551v6.755h-3.733V180.7h5.129a8.777,8.777,0,0,1,5.31,1.306,5.207,5.207,0,0,1,.867,6.731,5.66,5.66,0,0,1-2.42,1.9q3.973,5.936,5.178,7.67h-4.142l-4.2-6.755Zm0-3.034h1.2a4.6,4.6,0,0,0,2.612-.59,2.1,2.1,0,0,0,.844-1.854,1.926,1.926,0,0,0-.861-1.782,5.226,5.226,0,0,0-2.667-.53h-1.131Z" transform="translate(-26.788 -8.849)"/>
      <path id="Caminho_8" data-name="Caminho 8" class="cls-4" d="M492.618,198.306V180.7h3.733v17.6Z" transform="translate(-37.946 -8.849)"/>
      <path id="Caminho_9" data-name="Caminho 9" class="cls-4" d="M523.507,198.306h-4.745L511.1,184.988H511q.229,3.529.229,5.033v8.284H507.89V180.7H512.6l7.646,13.185h.085q-.182-3.432-.181-4.853V180.7h3.36Z" transform="translate(-43.908 -8.849)"/>
      <path id="Caminho_10" data-name="Caminho 10" class="cls-4" d="M550.914,198.306H540.775V180.7h10.139v3.058h-6.406v3.865h5.96v3.059h-5.96v4.539h6.406Z" transform="translate(-56.746 -8.849)"/>
    </g>
    <g id="Grupo_15" data-name="Grupo 15">
      <g id="BOTTOM" transform="translate(0 760)">
        <rect id="Retângulo_8" data-name="Retângulo 8" class="cls-9" width="375" height="52"/>
      </g>
      <g id="Grupo_10" data-name="Grupo 10" transform="translate(0.5)">
        <g id="Retângulo_9" data-name="Retângulo 9" class="cls-10" transform="translate(178 774)">
          <rect class="cls-34" width="20" height="20" rx="6"/>
          <rect class="cls-1" x="1" y="1" width="18" height="18" rx="5"/>
        </g>
        <g id="Grupo_9" data-name="Grupo 9" transform="translate(0 -1.5)">
          <line id="Linha_2" data-name="Linha 2" class="cls-11" y2="15" transform="translate(77.5 778.5)"/>
          <line id="Linha_3" data-name="Linha 3" class="cls-11" y2="15" transform="translate(85.5 778.5)"/>
          <line id="Linha_4" data-name="Linha 4" class="cls-11" y2="15" transform="translate(92.5 778.5)"/>
        </g>
        <path id="Caminho_11" data-name="Caminho 11" class="cls-11" d="M872.2,762.8l-7.6,7.6,7.6,7.6" transform="translate(-575 13.7)"/>
        <path id="Caminho_20" data-name="Caminho 20" class="cls-11" d="M872.2,762.8l-7.6,7.6,7.6,7.6" transform="translate(-575 13.7)"/>
      </g>
    </g>
    <g id="TOPO_HORÁRIO" data-name="TOPO HORÁRIO" transform="translate(19 2)">
      <g id="Grupo_14" data-name="Grupo 14" transform="translate(-17 -14)">
        <path id="Icon_awesome-battery-three-quarters" data-name="Icon awesome-battery-three-quarters" class="cls-4" d="M17.341,8.79v2.04h1.02v2.04h-1.02v2.04H2.04V8.79h15.3m.51-2.04H1.53A1.53,1.53,0,0,0,0,8.28v7.14a1.53,1.53,0,0,0,1.53,1.53H17.851a1.53,1.53,0,0,0,1.53-1.53v-.51h.255a.765.765,0,0,0,.765-.765V9.555a.765.765,0,0,0-.765-.765h-.255V8.28A1.53,1.53,0,0,0,17.851,6.75Zm-4.59,3.06H3.06v4.08h10.2Z" transform="translate(333.118 13.05)"/>
        <path id="Icon_awesome-wifi" data-name="Icon awesome-wifi" class="cls-4" d="M15.508,5.251a11.357,11.357,0,0,0-15.383,0,.388.388,0,0,0-.009.561l.836.83a.4.4,0,0,0,.547.009,9.371,9.371,0,0,1,12.634,0,.4.4,0,0,0,.547-.009l.836-.83a.388.388,0,0,0-.009-.561ZM7.816,10.066a1.563,1.563,0,1,0,1.563,1.563A1.563,1.563,0,0,0,7.816,10.066Zm4.95-2.042a7.5,7.5,0,0,0-9.9,0,.386.386,0,0,0-.014.565l.841.83a.4.4,0,0,0,.539.02,5.5,5.5,0,0,1,7.168,0,.4.4,0,0,0,.539-.02l.841-.83A.386.386,0,0,0,12.766,8.024Z" transform="translate(306.487 16.808)"/>
        <text id="_16:00" data-name="16:00" class="cls-12" transform="translate(17 30)"><tspan x="0" y="0">16:00</tspan></text>
        <text id="_16:00-2" data-name="16:00" class="cls-12" transform="translate(17 30)"><tspan x="0" y="0">16:00</tspan></text>
      </g>
    </g>
    <text id="Tatiana" class="cls-13" transform="translate(147 142)"><tspan x="0" y="0">Tatiana</tspan></text>
    <g id="Grupo_26" data-name="Grupo 26">
      <text id="vitrine_americanas" data-name="vitrine americanas" class="cls-12" transform="translate(59 56)"><tspan x="0" y="0">vitrine americanas</tspan></text>
      <path id="Icon_awesome-arrow-left-2" data-name="Icon awesome-arrow-left" class="cls-4" d="M6.95,13.648l-.6.6a.645.645,0,0,1-.915,0L.187,9a.645.645,0,0,1,0-.915L5.435,2.838a.645.645,0,0,1,.915,0l.6.6a.649.649,0,0,1-.011.926l-3.253,3.1h7.759a.646.646,0,0,1,.648.648v.864a.646.646,0,0,1-.648.648H3.686l3.253,3.1A.644.644,0,0,1,6.95,13.648Z" transform="translate(36.004 41.353)"/>
    </g>
    <text id="Cadastro_novo_endereço" data-name="Cadastro novo endereço" class="cls-14" transform="translate(66 209)"><tspan x="0" y="0">Cadastro novo endereço</tspan></text>
    <g id="Symbol_135_3" data-name="Symbol 135 – 3" class="cls-15" transform="translate(36 195)">
      <path id="Caminho_10-2" data-name="Caminho 10" class="cls-16" d="M8,0,6.545,1.455l5.506,5.506H0V9.039H12.052L6.545,14.545,8,16l8-8Z" transform="translate(16 16) rotate(180)"/>
    </g>
    <g id="Grupo_105" data-name="Grupo 105" transform="translate(-570 -1682.075)">
      <path id="Caminho_246" data-name="Caminho 246" class="cls-2" d="M0,0H312.75V77.608H0Z" transform="translate(601 1917)"/>
      <g id="Grupo_de_máscara_1" data-name="Grupo de máscara 1" class="cls-17" transform="translate(601 1917.075)">
        <path id="Interseção_2" data-name="Interseção 2" class="cls-4" d="M443.653,520.231l37.354,7-1.509,8.147h6.792l16.287-89.129,3.773,89.129h6.729l-1.258-30.052,17.1-.483,1.761,30.534h3.333l-1.761-30.595,25.594-.664v-6.4l-21.066.543-1.635-10.8,22.7.664v-3.2l-23.2-.664L531.5,463.326l13.709-14.483,12.577,7.664v-3.862l-10.313-6.276,10.313-10.922V430.68l-26.978,28.6c-1.446-7.905-5.031-28.06-6.54-36.569l33.581,5.491v-6.517l-16.727-2.776,3.962-23.957c4.465.905,8.741,1.75,12.766,2.535v-6.578l-9.559-1.871,9.559-11.647v-10.44L541,387.594l-21.821-4.345,9.307-62.638,29.3,5.069V314.818l-3.081-.543,3.081-20.215V250.008l-3.4,22.327L523.2,265.094c1.572-7.905,5.723-28.845,7.295-36.81l27.292,4.948v-6.517l-17.608-3.2,13.9-72.595,3.71.664V140.663l-9.118-1.629,2.452-16.353,6.666-1.328v-3.259l-6.163,1.207,5.408-36.086.755.121V2.716l-2.012,13.336L534.9,17.259,533.956.06h-3.333l1.006,17.44L513.9,18.526,513.078.06H506.35l.817,18.888L482.579,20.4,486.289.06H479.5l-3.585,19.733-37.1-9.474L440.76.06H429.441l-3.773,19.672L400.137,23.9,396.992.06h-6.729l3.207,24.862-24.965,4.043-10.69-20.94c6.351-1.75,17.042-4.767,28.613-7.965H362.469L354.86,2.172,353.728.06H341.277l2.578,5.069c-3.9,1.026-9.118,2.414-14.275,3.8C328.762,6.759,327.63,3.56,326.31,0h-3.521l3.584,9.776c-6.226,1.629-11.76,3.138-13.96,3.741l-16.1-4.828L297.383.06h-3.4l-.88,7.664L272.543,1.629,273.109.06H266l-2.7,7.06L245.691.06h-6.163l-5.471,13.457L208.841,5.129q1.6-2.534,3.018-5.069h-7.8A133.335,133.335,0,0,1,191.8,17.5L188.781.06h-6.792l.818,4.828-16.79,9.595L157.149.06h-3.9l20.815,33.853c-.5.3-1.006.664-1.446.966-6.666,4.164-15.344,7.241-25.28,9.534L150.672.06h-3.333l-3.4,45.138c-3.647.784-7.42,1.388-11.319,1.991L128.977.06h-6.729l1.195,15.931L83.26,11.284,83.008.06H76.279l.252,10.5L67.287,9.474,57.351.06H52.572l9.307,8.75L28.047,4.888,28.676.06h-3.4l-.566,4.405L11.256,2.9,11.7.06H.377L0,2.716v80.62L28.927,88.4l4.968,22.931L0,118.095v3.259L10.124,119.3l3.27,23.776L0,140.663v10.922l14.715,2.655L3.522,227.2,0,226.594v6.517l2.515.483L0,250.008V294.06L9.118,234.8l31.505,5.672-8.364,79.9L0,314.818V325.68l29.619,5.069L0,366.956v10.379L29.367,341.37l-8.049,53.767L0,390.913v6.578c8.615,1.69,15.847,3.138,20.375,4.043l-3.4,22.931L0,421.689v6.517l2.012.362L0,430.62v4.767l5.911-6.276,10.124,1.69L11.7,459.766,0,452.645v3.8l11.194,6.819-3.27,21.845L0,484.869v3.2l7.42.241-1.383,9.172L0,497.662v6.4l5.094-.121L.377,535.318H11.634l4.591-30.9L28.99,506.05l-3.773,29.267h3.4l2.578-20.034,21.381,20.034h4.779L31.757,511.24l.629-4.767,43.328,5.552.566,23.293h6.729l-.566-22.448,38.486,4.948,1.321,17.5h6.729l-.692-8.991,20-3.259-.943,12.31h3.333l.252-3.681,2.264,3.681h3.9l-5.723-9.353.252-3.5,27.355-4.466,3.018,17.319h6.792l-9.433-54.31,47.667,3.5c-5.219,15.328-12.891,34.155-22.953,50.81h7.8a235.509,235.509,0,0,0,11-21.724L245,521.8l-5.534,13.577h6.163l-2.2-.905,11.131-27.336,20.375,4.586L266,535.318h7.106l16.979-44.776,9.244-1.086-5.345,45.922h3.4l2.138-18.345,15.155-3.983,8.175,22.328h3.522c-3.144-8.509-7.043-19.19-8.49-23.172l10.187-2.655,13.206,25.827h12.451l-5.66-11.1,44.4-13.215-2.453,16.655-27.544,7.6h23.959c1.258-.362,2.453-.664,3.71-1.026l.126,1.026h6.729l-.377-2.836c13.646-3.8,27.1-7.543,35.153-9.836l-2.453,12.672h11.319Zm-6.037-27.758-34.964-4.586,3.522-23.715,35.719,5.853Zm-74.77-41.879,2.39-13.035,37.165,6.7-1.887,12.491Zm36.725,12.491-1.509,10.138-24.588-3.379,2.452-10.56ZM275.5,450.413l-16.476-.423,2.515-13.638,13.961,6.457a24.376,24.376,0,0,0-.314,3.741A15.783,15.783,0,0,0,275.5,450.413Zm5.094,10.862a21.889,21.889,0,0,0,2.956,2.9l-12.577,15.87-11.885-19.371Zm-.88-28.362-31.757-14.664,34.524-12.129,5.219,19.974A24.306,24.306,0,0,0,279.712,432.913ZM59.426,398.939l4.088-8.81,50.811-11.647L107.093,402.8Zm46.032,10.2-3.4,16.715-12.388-3.017.88-14.905ZM34.712,55.034c11.256.784,24.4,1.509,38.108,1.69l-.126,3.2L33.077,71.689ZM21,47.431l3.773-20.336L61.187,31.5C60.81,35.3,59.8,44.836,59.3,49.845,44.711,49.3,31.38,48.4,21,47.431Zm86.341,42.845,4.339,36.991c-9.936,1.086-39.806,4.405-50.434,5.612l4.653-38.8ZM72.506,63.362,71.437,87.138l-8.427.784-7.8-1.388L52.949,69.155ZM112,130.465,113.57,143.8l-54.458,6.4,1.7-14.06Zm229.4-2.595-6.163,20.94-25.405,9.414c-3.71-9.957-6.666-19.733-8.3-25.647Zm-34.9-20.215L326,105.362l2.138,13.276-20.06,2.353Zm96.906,136.2-23.582-5.31,11.759-35.3,20.249,3.621C410.387,213.379,406.8,229.129,403.407,243.853Zm11.76-36.448,24.9,4.466-32.574,29.207Zm-222.424,7.362,38.548-3.5,4.213,16.052-46.158,1.328Zm0-27.94,35.278,11.828,1.635,6.276-34.021,3.078Zm175.386,51.655L361.84,257.37l-27.481-10.44,7.358-17.681Zm-25.217-12.19,6.351-15.328c9.433,5.19,18.614,9.776,23.9,12.31L369.134,235.4ZM324.926,252.3l-12.891-10.5,15.533-21.121,8.112,5.672Zm-1.321,3.138-.629,1.509L290.528,259.6l-16.287-20.819,16.161-10.44Zm-36.348,5.431-27.418,15.147-6.288-23.836,17.922-11.526C274.43,244.456,283.988,256.646,287.258,260.87Zm-15.092-24.621c-1.383-1.69-4.025-4.888-5.911-7.181l13.52-9.353,7.923,6.457Zm-2.767,1.81-16.727,10.8-2.327-8.75L263.551,231Zm-18.048,49.362-29.493-8.388,22.135-19.491Zm-33.266-9.474L180.04,267.086l8.552-35.241,47.793-1.328,6.729,25.526Zm-41.378-68.19-5.219-42.422,14.9-2.112L192.3,208.31Zm-.314,6.457,12.829-1.146-6.163,25.405-12.7-3.922Zm5.911,27.4-5.471,22.569L162.809,262.2l6.666-22.509Zm-3.647,29.81-18.111,47.31-13.457-5.371,13.9-47.008Zm3.207.905,17.419,4.948L191.8,300.758c-4.968-1.448-14.212-4.224-17.985-5.371Zm15.218,31.5c3.4,1.147,9.307,3.138,16.287,5.491l-11,24.2-14.967-1.69Zm1.006-3.078,7.546-21.664,25.846,7.362-6.226,23.414Zm36.6-13.336,18.488,5.31,7.672,29.146L228.4,312.947Zm25.971-10.138,14.275-7.905,6.98,23.9L263.677,290.8Zm17.293-9.595,12.325-6.819,31.38-2.595L304.8,300.758l-19.054-4.647Zm41.5,13.215,15.03,4.828-5.408,19.129-17.734-4.345Zm1.195-3.017L333.1,249.948l27.669,10.5-9.747,29.146Zm41.315,12.069,28.047,4.828L366.493,334.43,352.03,321.818Zm3.459-10.259,13.394-40.129,23.9,5.431c-2.39,10.56-4.591,20.095-5.6,24.681L376.241,283.56Zm40.183-32.345,10,11.707-14.526,8.267ZM375.234,217.12C364.1,211.689,338.824,198.9,327.19,189.3a18.978,18.978,0,0,1-1.635-1.509l26.915-22.146,30.185,29.267Zm-40.561-45.258-8.8-16.172,10.376-3.862,11.382,9.293Zm-2.641,2.172-10.5,8.69c-3.9-5.733-7.483-13.517-10.565-21.422l11.759-4.345Zm-9.181,20.155c5.157,4.284,12.7,9.052,20.563,13.517L337,223.215l-31-21.543,14.338-9.9A31.028,31.028,0,0,0,322.851,194.189Zm2.012,24.56-15.407,20.94L282.6,217.844l20.5-14.181Zm-40.875-9.776L278.014,189.9l14.841-6.819,6.226,15.509Zm-6.98-22.207-4.779-15.207,10.5-13.7,8.93,22.146Zm1.258,26.129-29.619,20.457-10.69-40.733,32.134-5.914Zm-41.19-23.353L224.5,141.569l30.248-3.56,14.338,45.56Zm-10.062,5.371-34.775-11.647-2.515-18.526,28.3-4.043Zm-55.9-30.776L169.1,148.086l44.208-5.19,3.9,14.724Zm-3.962-26.612-3.4-13.879,47.227,2.112,1.761,6.4Zm2.39,68.612-31.757-35-1.321-19.19,25.971-3.078ZM135.2,141.267l-2.264-13.759c8.993-1.328,19.117-2.836,24.085-3.56l3.522,14.362Zm-2.075,11.043,1.258,18.043L120.3,171.681l.5-17.862Zm2.327,21.121,33.581,36.991L119.1,214.948l1.069-40.129C124.7,174.456,132.813,173.672,135.454,173.431Zm33.769,43.448L141.68,309.87l-13.52-7.3,28.738-84.6ZM145.2,321.577,179.662,335.4l-3.836,11.043-33.643-14.784Zm18.362.422,8.993-23.534,18.111,5.371L181.8,329.3ZM186.2,336.844l15.218,1.75-3.459,21.664L181.8,349.637Zm18.74.785,11.571-25.284c9.118,3.078,19.557,6.578,28.55,9.595l-10.125,49.543-12.829,4.707-21.129-13.94Zm50.937,33.008,5.66,19.491-23.833,9.535-10.879-18.345Zm-17.23-.543,9.621-47.129c5.471,1.81,10.25,3.44,13.646,4.586l8.175,31.017Zm26.915-72.233,37.228,9.112-9.621,12.19-20.563,5.612Zm40.812,10.017,35.153,8.629-39.177,19.129-6.226-14.784Zm25.909-.3,5.345-18.888,12.388,3.983-5.974,17.8ZM350.9,325.2l31.442,27.336-2.327,4.284c-15.91-2.957-29.87-5.491-37.354-6.879ZM369.009,336.6l24.525-39.224,16.979,2.957L383.85,349.577Zm45.026-35.724,5.408.966-10.565,60.284c-8.49-1.569-17.168-3.2-25.468-4.707Zm1.887,40.612,27.544,6.336-3.333,20.095c-8.3-1.509-17.922-3.319-27.921-5.129Zm4.15,29.267,18.677,3.44-8.3,33.19L415.04,404.37Zm22.01,4.043,17.482,3.2-6.477,33.733L433.78,407.99Zm1.321-6.276,3.333-20.215,18.237,1.388-4.213,22.026C456.67,370.939,450.633,369.852,443.4,368.525Zm3.836-23.414,2.264-13.517,18.488,2.474L465.6,346.559ZM450,328.4l3.4-20.7,18.928,3.259-3.836,19.914Zm-6.037,16.233-27.481-6.276,6.288-35.905,27.418,4.707ZM386.3,285.249l33.581-19.129,24.84,29.207Zm36.473-20.819,43.642-24.922,9.747,11.405-43.7,24.8Zm-4.276-5.009L406.991,245.9l36.788-32.888,18.362,21.543Zm26.6-70.06-26.16-3.319c.818-4.767,1.572-9.172,1.949-11.466l25.846,5.009Zm-.5,3.2-2.2,13.216-25.971-4.707c.5-2.9,1.258-7.362,2.012-11.888Zm-31.505,7.966-19.431-3.5,8.678-26.009,15.281,2.957Zm-28.109-12.491-27.418-26.612,21.444-17.681,17.8,8.75Zm-34.775-29.026-11.759-9.595,6.477-21.965,39.995-4.707a22.938,22.938,0,0,0,2.452,5.672ZM334.8,117.853l-5.282-32.646,22.7-3.379,5.345,33.371Zm-18.488,68.793-14.4,9.957-16.79-41.758,11.508-14.966C300.464,152.793,307.57,173.913,316.311,186.646Zm-45.277-18.888-9.559-30.474,33.329-3.922c.189.785.44,1.629.692,2.535Zm-5.282-41.819L255,127.207,236.7,99.026l29.116-4.345Zm-14.4,1.69-27.921,3.259L234.5,101.681Zm-33.266-1.388L203.118,70.784l31.946,10.8Zm-7.923-3.741-25.971-1.147-6.917-37.474,21.947-1.991Zm-29.43-1.328L163,120.388l-8.364-34.457,19.243-1.75Zm-24.462-.362-23.9,3.5-2.264-13.759,22.953-2.957Zm-24.4,20.879-11.634,1.388-1.572-13.457c2.578-.362,6.54-.966,10.942-1.629Zm-12.954,79.776,34.335-3.138-17.482,51.414-17.985-7.06Zm15.847,51.353-9.747,28.724-8.175-1.267.943-34.095Zm-10.816,31.8-7.861,23.172.629-24.319C119.1,303.835,122.06,304.318,123.946,304.62Zm3.144,1.086,13.646,7.362-14.464,48.879-11-5.069.5-17.8ZM141.3,334.792l33.455,14.724-10.439,29.991-31.883-14.724Zm39.366,17.983,37.668,24.8-32.449,11.888-15.533-7.181Zm4.213,48.095,29.745,13.759-7.735,13.879-26.412-5.491Zm9.307-7.543,29.493-10.8,10.942,18.405-12.891,5.129Zm68.293-.06,4.339,14.966L243.8,416.318l-18.048-8.388Zm-3.459-23.776,12.64-4.646,10,38.077-11.759,4.1Zm14.464-41.577,19.746-5.371,18.928,44.836-26.223,7.845Zm30.122,10.681,37.165-18.164-19.809,59.319Zm36.976,17.5,31.82,5.853-6.1,33.008-36.347-7.06Zm31.128,46.465,35.844,6.94-2.767,18.767-34.65-17.2Zm1.132-6.336,6.1-33.069,34.587,6.4L408.5,403.163Zm41.315,14.543,37.731,7.3-3.71,19.431-36.976-7ZM456.167,454.7l16.161,1.991L467.3,481.369l-15.91-1.931Zm.629-3.138,7.42-38.741,16.539,2.716-7.735,38.017Zm8.615-45.077,5.031-26.371c5.219,1.026,13.835,2.776,24.022,4.767l-5.974,25.345Zm6.288-32.647,6.226-32.586,39.932,5.371-5.282,35.362Zm4.968-73.017-26.915-4.646L434.535,278.31l43.705-24.8,6.477,7.6Zm14.275-36.689,27.732,6.457c-1.572,7.483-5.534,26.853-7.483,36.207l-27.921-4.827ZM486.415,252.9l-32.826-38.56,39.24,7.06Zm-37.479-45.922,6.6-39.465,46.849,6.517-8.364,41.095Zm25.154-43.388,3.836-26.371,30.814,5.552L503.645,167.7ZM476.353,126l-12.64-2.293,4.025-21.845,12.766,1.328Zm-1.7,10.621c-1.069,7.362-2.956,20.457-3.836,26.491L456.67,161.12l4.528-26.974Zm-17.545-14.06-24.148-4.345c0-.483.063-.905.063-1.388a23.387,23.387,0,0,0-2.012-9.353l22.764-13.155L460,107.172ZM454.532,133,447.3,176.388l-43.894-8.448,9.37-28.06a24.441,24.441,0,0,0,16.916-11.345Zm-45.969-3.5a12.744,12.744,0,1,1,13.269-12.733A13.012,13.012,0,0,1,408.563,129.5Zm-7.295,9.655-3.459,10.259-16.1-7.905,9.747-8.026A25.124,25.124,0,0,0,401.269,139.155ZM384.73,112l-23.771,2.776-5.408-33.431,25.406-3.8L392.15,99.508A23.26,23.26,0,0,0,384.73,112ZM324.046,79.534l-1.7-12.793,48.547-8.81,6.917,13.578Zm-1.132,6.7,2.578,15.991-19.369,2.233L304.3,89.008ZM304.8,121.414l-35.656,4.164L269.21,94.2l31.82-4.767ZM270.279,87.56l11.445-39.345,14.086,5.129L287.7,84.965Zm-3.647.543-28.613,4.284,20.06-52.741,20.5,7.422ZM236.2,78.569l-16.413-5.552,5.785-19.853,17.608,7Zm-19.557-6.638-14.526-4.948-7.043-26.069L222.487,51.9Zm-19.18,3.621-45.78,4.224L149.6,65.595l42.887-8.207Zm-45.214,28.905-22.7,2.9L126.4,88.526l21.507-1.991Zm-25.468,6.517,2.327,13.819-10.753,1.569-1.635-14.121Zm-10.5-1.871L114.01,89.672l9.055-.845,3.144,18.948Zm-2.264,45.44-.5,17.681c-5.345.483-16.036,1.388-20.375,1.75l.692-17.078ZM86.341,259.422,85.775,273.9c-3.773-.121-12.766-.422-16.539-.6l.692-15.026ZM71.186,252l16.539-25.646-1.069,26.672Zm14.464,25.1-.692,17.2c-5.471-1.026-11.131-2.112-16.539-3.138l.692-14.664Zm-.943,20.457L81.939,319.1l-17.482-4.345,3.522-20.336Zm-.943,33.612,9.747,2.353L92.5,346.258l-10.125-4.647Zm.44-3.2,3.836-29.81,8.175,1.569-2.39,30.595Zm15.218-27.638,10.628,1.991-1.383,51.414-12.891-5.974ZM88.29,294.965l.692-17.681c4.339.241,15.973.905,21.7,1.207l-.566,20.577C105.71,298.223,97.472,296.654,88.29,294.965Zm.818-20.879.566-14.422,21.444,1.448-.377,14.121Zm.88-20.819,1.258-31.44,21-1.448-.943,34.336Zm1.383-34.7.5-12.612,20.752.543-.314,10.621Zm.755-19.069.88-22.328,20.375-1.75-.629,24.621ZM60.181,160.879l30.373-3.56-.692,16.836-31.065-.3Zm29.556,16.414-.88,22.086-32.637-.785,2.264-21.543Zm-1.195,28.543-.566,13.94L77.286,236.31l-22.2-26.974.44-4.405Zm-13.08,33.431L67.413,251.7l-16.6-1.147,3.836-36.629ZM66.6,258.094,65.086,290.56c-7.295-1.388-13.835-2.595-18.111-3.44l3.144-30.172ZM45.151,197.086l-13.457-1.81,6.666-36.75,10.628,1.931ZM46.6,290.379l18.111,3.44-6.414,36.69-15.155-7ZM63.954,317.9,81.562,322.3,79.3,340.163l-17.8-8.207ZM80.87,352.775l36.1,16.715-1.635,5.491L65.212,386.447Zm39.177,18.1,17.734,8.207-7.8,25.586L110.426,403.1Zm23.833,11.043,15.281,7.06-11.194,44.836-19.243-1.931Zm26.537,57.388-1.635,8.207-44.523-1.207,3.459-11.284ZM151.3,434.12l10.942-43.75,16.413,7.6-7.609,38.138Zm28.55-7.905,47.415,9.836-1.7,13.034L175.575,447.7Zm30.436,3.017,7.358-13.155,16.476,7.6-5.848,9.293Zm20.438,6.095,6.477-10.2,21.129,9.776-2.767,14.965-26.663-.724Zm68.8-1.509a12.743,12.743,0,1,1-13.269,12.733A13.012,13.012,0,0,1,299.521,433.818Zm6.666-9.776a24.31,24.31,0,0,0-6.666-.905h-1.006L286.692,378.3l26.663-7.966,5.974,14.181Zm21.7-29.991,37.228,7.241-.566,3.138L319.33,432.913a25.36,25.36,0,0,0-3.27-3.56Zm35.844,14.724-7.483,40.733-32.449-5.31a21.917,21.917,0,0,0-2.7-8.509Zm8.93,49.905-2.515,10.681-29.808-4.1,5.723-10.862ZM365.8,434.361l3.71-19.974,34.775,17.258-1.384,9.474Zm77.286,29.327-35.97-5.914,3.584-24.138,36.788,6.94Zm17.1,53.043-15.344-2.9,5.974-31.259,15.847,1.931Zm21.947,4.164L466.732,518l9.747-48.095,14.4,3.078Zm9.37-51.112-14.338-3.017,10.187-50.146,13.457,2.233Zm41.819,28.483-21.821.6-.566-13.819,17.671-18.707C529.68,473.645,532.258,490.964,533.327,498.266Zm-5.345-36.026-17.23,18.224L508.173,420l12.577,2.052Zm10.5-68.551-4.025,24.138-42.636-7,5.911-25.284C510.374,388.077,524.963,390.973,538.484,393.689ZM518.3,343.421l-39.806-5.31,4.842-25.224,38.549,6.638Zm13.143-33.189-16.979-2.9L517.92,290.5l16.664,3.2Zm16.664,2.9-13.394-2.293,3.207-16.534,12.7,2.474Zm5.282-34.457-2.264,14.905L518.612,287.3l3.27-15.991Zm-33.455-14.422L492.2,257.792l7.169-35.241,27.858,5.009Zm16.979-41.4-36.285-6.517,6.037-29.81,35.844,6.94ZM555.337,19.31,551.5,45.077l-14.967-.241-1.383-24.319ZM536.346,51.293l14.149.241L542.886,102.4l-11.445-.06Zm-5.157,54.25,11.256.06-4.716,31.5-9.433-1.69Zm-6.226,29.267-6.289-1.147-3.521-82.733,17.8.3ZM531.755,20.7l1.384,24.078-18.237-.3-.943-22.69ZM515.342,143.922l35.467,6.4-7.672,39.948-35.844-6.94Zm-3.4-11.465-32.26-5.793c1.258-7,3.4-18.948,4.15-23.112l27.041,2.776Zm-1.258-29.448-42.447-4.345,3.144-17.379,38.3-.362ZM482.013,23.655l25.28-1.509,1.006,23.9L477.925,45.8ZM477.36,49l31.065.241,1.195,28.543-37.605.362ZM438.182,13.517l37.1,9.474L471.26,44.836l-37.165-10.5Zm32.574,34.517-8.8,48.034L433.717,37.534Zm-39.24.241,20.815,43.086-22.89,13.216a24.25,24.25,0,0,0-7.295-7.3Zm-6.54-25.164-13.52,70.483c-.817-.06-1.572-.121-2.39-.181l-8.552-66.379Zm-31.065,5.009,8.552,66.017a1.531,1.531,0,0,1-.5.121L370.078,31.983ZM346.936,11.043l22.45,43.931-22.136,4.043L331.844,15.086Zm-18.362,4.888c3.207,9.052,12.766,36.448,15.344,43.629l-22.01,3.983L316.06,19.25ZM317.38,80.56l-26.16,3.922,7.672-29.931,15.784,5.733Zm-3.144-23.9L282.794,45.2l7.42-15.569,21.444,7.483ZM294.993,15.026l14.338,4.284,1.887,14.181-19.809-6.879ZM270.217,7.664l21.57,6.4-4.025,12.914-8.049,17.017-20.5-7.483ZM242.233,2.172l19.935,7.965-4.276,11.284L237.2,14.543Zm-7.169,18.465,20.5,6.819-11.256,29.69-17.8-7.121Zm-29.87-9.9,26.726,8.871-8.552,29.207-29.43-11.707-2.515-9.293A125.536,125.536,0,0,0,205.194,10.741Zm-37.479,6.517,15.721-8.991,2.7,15.569a83.022,83.022,0,0,1-9.307,8.207Zm8.552,23.052a72.695,72.695,0,0,0,9.684-7.241l5.723,21.241-42.51,8.147-1.635-11.345C158.784,48.517,168.657,45.017,176.266,40.31ZM144.258,51.715l4.15,28.362-44.523,4.1-2.2-27.7A297.849,297.849,0,0,0,144.258,51.715ZM124.009,22.569l1.949,25.526a375.085,375.085,0,0,1-41.693,2.233l-.818-32.465ZM98.289,56.543l2.264,27.879-25.72,2.353,1.321-29.991C83.448,56.845,90.869,56.784,98.289,56.543ZM66.406,15.81,76.72,17.017l.314,13.155-12.2-1.448C65.212,25.828,65.966,19.612,66.406,15.81ZM77.16,33.431l.44,16.836c-5.031-.06-10.062-.121-14.9-.3l1.824-18.1ZM10.313,9.233l52.823,6.155L61.564,28.3l-53.138-6.4ZM7.923,25.1l13.52,1.629-3.773,20.4c-5.345-.483-9.684-.966-12.829-1.328ZM28.613,81.827.189,76.819,3.9,52.2c5.723.664,15.407,1.69,27.481,2.595Zm4.025-6.7L49.679,70.06l2.075,15.81-19.872-3.5Zm-.189,13.94,26.726,4.707L52.383,150.2l-7.043-1.267ZM13.457,118.7l21.066-4.224,7.295,33.733-24.965-4.526ZM10.062,228.4l11.194-72.957,13.835,2.474L21.884,230.517Zm15.155,2.716,5.974-32.707L44.9,200.284l-3.522,33.733ZM41.63,334.611l33.2,15.328-22.45,48.4-20-1.629ZM31.442,403.1l52.509,4.285-.88,14.905-55.087,4.164Zm51.377,22.448-1.195,19.612L67.916,444.8V426.7Zm-55.339,4.164,37.1-2.836V444.62l-39.177-1.026Zm19.809,72.233L17.23,498.085l4.528-30.293,28.424,3.741ZM22.261,464.594l1.572-10.319,27.984.784L50.559,468.4ZM60.81,503.7l-10.187-1.328,2.893-30.353,10.5,1.388Zm3.522-33.491-10.565-1.388,1.321-13.638,10.816.3ZM79.3,506.05l-11.822-1.509,3.207-30.534,10.879.6ZM71,470.809,72.632,455.6l43.642,1.207,1.258,16.534Zm11.634,35.664,2.327-31.681,32.826,1.81,2.641,34.759Zm34.713-60.345-28.99-.784,1.132-19.19,31.568,7.724Zm-12.011-19.491,3.522-17.258,19.243,1.569L122.06,430.74ZM123,456.99l45.654,1.267,1.949,11.285-46.346,3.8Zm1.446,19.491,46.661-3.8,2.83,16.353-48.17,5.009Zm3.584,46.646L126.273,500.5l48.736-5.069,3.4,19.431Zm50.748-45.379-3.333-19.371,58.986,1.629c-1.258,4.888-3.4,12.371-6.351,21.362Zm67.476,40.974-22.073-8.086c1.384-3.2,2.7-6.336,3.9-9.474l23.2,5.25ZM230.41,495.128a343.5,343.5,0,0,0,10.879-34.94l13.835.362,13.583,22.207-14.086,17.8Zm46.849,10.56L258.143,501.4l13.08-16.535,12.074,4.767Zm7.232-19.069-11.131-4.405L286.126,466.1a22.813,22.813,0,0,0,5.219,2.474Zm6.917.6,6.54-17.259a13.154,13.154,0,0,0,1.572.06,25.25,25.25,0,0,0,7.735-1.207l7.923,15.448Zm8.489,26.371,2.83-24.56,13.961-1.75,9.873,19.31Zm27.166-30.353-10.313-20.155a22.959,22.959,0,0,0,6.792-12.431l19.117,3.138Zm19.494,38.077-5.848-11.405,19.494-5.371,3.144,11.707ZM392.968,507.5l-26.412,7.845L363.412,503.7l31.38-8.629Zm2.893-19.371-58.106,15.931-8.8-17.2,9.81-18.586,58.86,8.147Zm1.132,37.595,4.654-31.44L418,496.456l-3.836,24.5Zm36.159-10.138-15.407,4.284,3.647-23.112,15.029,1.991Z" transform="translate(-111.219 -0.075)"/>
      </g>
    </g>
    <g id="Retângulo_1475" data-name="Retângulo 1475" class="cls-18" transform="translate(39 239)">
      <path class="cls-34" d="M6,0H149a0,0,0,0,1,0,0V26a0,0,0,0,1,0,0H6a6,6,0,0,1-6-6V6A6,6,0,0,1,6,0Z"/>
      <path class="cls-1" d="M6,.5H148a.5.5,0,0,1,.5.5V25a.5.5,0,0,1-.5.5H6A5.5,5.5,0,0,1,.5,20V6A5.5,5.5,0,0,1,6,.5Z"/>
    </g>
    <g id="Caminho_247" data-name="Caminho 247" class="cls-19" transform="translate(187 239)">
      <path class="cls-34" d="M 144 25.5 L 0.5 25.5 L 0.5 0.5 L 144 0.5 C 147.03271484375 0.5 149.5 2.96727991104126 149.5 6 L 149.5 20 C 149.5 23.0327205657959 147.03271484375 25.5 144 25.5 Z"/>
      <path class="cls-35" d="M 1 1 L 1 25 L 144 25 C 146.7570037841797 25 149 22.75699996948242 149 20 L 149 6 C 149 3.243000030517578 146.7570037841797 1 144 1 L 1 1 M 0 0 L 144 0 C 147.3137054443359 0 150 2.686300277709961 150 6 L 150 20 C 150 23.31369972229004 147.3137054443359 26 144 26 L 0 26 L 0 0 Z"/>
    </g>
    <g id="Grupo_106" data-name="Grupo 106" transform="translate(212.8 -78)">
      <text id="Novo_endereço" data-name="Novo endereço" class="cls-20" transform="translate(-1.8 321)"><tspan x="3.362" y="14">Novo endereço</tspan></text>
      <text id="Seus_endereços" data-name="Seus endereços" class="cls-21" transform="translate(-150.8 321)"><tspan x="2.968" y="14">Seus endereços</tspan></text>
    </g>
    <g id="Retângulo_1478" data-name="Retângulo 1478" class="cls-22" transform="translate(40 279)">
      <rect class="cls-34" width="297" height="22"/>
      <rect class="cls-1" x="0.5" y="0.5" width="296" height="21"/>
    </g>
    <text id="digite_o_novo_CEP_de_entrega" data-name="digite o novo CEP de entrega" class="cls-23" transform="translate(51 284)"><tspan x="0" y="9">digite o novo CEP de entrega</tspan></text>
    <g id="Grupo_109" data-name="Grupo 109">
      <g id="Elipse_11" data-name="Elipse 11" class="cls-24" transform="translate(319 286)">
        <circle class="cls-34" cx="4.5" cy="4.5" r="4.5"/>
        <circle class="cls-1" cx="4.5" cy="4.5" r="4"/>
      </g>
      <path id="União_5" data-name="União 5" class="cls-25" d="M-975-1054l-2,2,2-2-2-2,2,2,2-2-2,2,2,2Z" transform="translate(1298.5 1344.5)"/>
    </g>
    <text id="Endereço:" class="cls-26" transform="translate(43 319)"><tspan x="0" y="9">Endereço:</tspan></text>
    <text id="Bairro:" class="cls-26" transform="translate(41 373)"><tspan x="0" y="9">Bairro:</tspan></text>
    <text id="Complemento:" class="cls-26" transform="translate(41 427)"><tspan x="0" y="9">Complemento:</tspan></text>
    <g id="Retângulo_1479" data-name="Retângulo 1479" class="cls-22" transform="translate(39 333)">
      <rect class="cls-34" width="231" height="30" rx="15"/>
      <rect class="cls-1" x="0.5" y="0.5" width="230" height="29" rx="14.5"/>
    </g>
    <g id="Retângulo_1480" data-name="Retângulo 1480" class="cls-22" transform="translate(39 387)">
      <rect class="cls-34" width="297" height="30" rx="15"/>
      <rect class="cls-1" x="0.5" y="0.5" width="296" height="29" rx="14.5"/>
    </g>
    <g id="Retângulo_1481" data-name="Retângulo 1481" class="cls-22" transform="translate(39 441)">
      <rect class="cls-34" width="297" height="30" rx="15"/>
      <rect class="cls-1" x="0.5" y="0.5" width="296" height="29" rx="14.5"/>
    </g>
    <text id="N_" data-name="Nº" class="cls-26" transform="translate(280 319)"><tspan x="0" y="9">Nº</tspan></text>
    <g id="Retângulo_1482" data-name="Retângulo 1482" class="cls-22" transform="translate(276 333)">
      <rect class="cls-34" width="60" height="30" rx="15"/>
      <rect class="cls-1" x="0.5" y="0.5" width="59" height="29" rx="14.5"/>
    </g>
    <g id="Grupo_110" data-name="Grupo 110">
      <rect id="botão_enviar" data-name="botão enviar" class="cls-27" width="110" height="40" rx="20" transform="translate(133 496)"/>
      <text id="Enviar" class="cls-20" transform="translate(162 506)"><tspan x="7.549" y="14">Enviar</tspan></text>
    </g>
    <g id="sacola" transform="translate(146 632)">
      <g id="Grupo_8" data-name="Grupo 8" transform="translate(-42 -671)">
        <g id="Caminho_27" data-name="Caminho 27" class="cls-28" transform="translate(42 671)">
          <path class="cls-34" d="M46,0A46,46,0,1,1,0,46,46,46,0,0,1,46,0Z"/>
          <path class="cls-36" d="M 46 1 C 39.92459869384766 1 34.03146362304688 2.189651489257813 28.48427581787109 4.535911560058594 C 23.12582397460938 6.802352905273438 18.31324005126953 10.04714965820313 14.18019866943359 14.18019866943359 C 10.04714965820313 18.31324005126953 6.802352905273438 23.12582397460938 4.535911560058594 28.48427581787109 C 2.189651489257813 34.03146362304688 1 39.92459869384766 1 46 C 1 52.07540130615234 2.189651489257813 57.96853637695313 4.535911560058594 63.51572418212891 C 6.802352905273438 68.87417602539063 10.04714965820313 73.68675994873047 14.18019866943359 77.81980133056641 C 18.31324005126953 81.95285034179688 23.12582397460938 85.19764709472656 28.48427581787109 87.46408843994141 C 34.03146362304688 89.81034851074219 39.92459869384766 91 46 91 C 52.07540130615234 91 57.96853637695313 89.81034851074219 63.51572418212891 87.46408843994141 C 68.87417602539063 85.19764709472656 73.68675994873047 81.95285034179688 77.81980133056641 77.81980133056641 C 81.95285034179688 73.68675994873047 85.19764709472656 68.87417602539063 87.46408843994141 63.51572418212891 C 89.81034851074219 57.96853637695313 91 52.07540130615234 91 46 C 91 39.92459869384766 89.81034851074219 34.03146362304688 87.46408843994141 28.48427581787109 C 85.19764709472656 23.12582397460938 81.95285034179688 18.31324005126953 77.81980133056641 14.18019866943359 C 73.68675994873047 10.04714965820313 68.87417602539063 6.802352905273438 63.51572418212891 4.535911560058594 C 57.96853637695313 2.189651489257813 52.07540130615234 1 46 1 M 46 0 C 71.40509796142578 0 92 20.59490203857422 92 46 C 92 71.40509796142578 71.40509796142578 92 46 92 C 20.59490203857422 92 0 71.40509796142578 0 46 C 0 20.59490203857422 20.59490203857422 0 46 0 Z"/>
        </g>
      </g>
      <text id="Sacola-2" data-name="Sacola" class="cls-29" transform="translate(15 61)"><tspan x="10.884" y="14">Sacola</tspan></text>
      <g id="cesta_de_compras" data-name="cesta de compras" transform="translate(103.205 301.267)">
        <path id="Caminho_2" data-name="Caminho 2" class="cls-27" d="M176.367,156.328H169.34l-9.366-9.366a2.438,2.438,0,0,0,.561-1.547,2.464,2.464,0,0,0-4.927,0,2.438,2.438,0,0,0,.561,1.547l-9.366,9.366h-7.027v3.785h1.543V175.16a3.847,3.847,0,0,0,3.9,3.785h25.708a3.847,3.847,0,0,0,3.9-3.785V160.113h1.544Zm-22.657,5.221V175.16H150.7V161.549Zm2.776,0H159.5V175.16h-3.011Zm5.785,0h3.012V175.16h-3.012Zm-4.2-13.671a2.452,2.452,0,0,0,.868-.165l8.615,8.615H148.588l8.615-8.615A2.454,2.454,0,0,0,158.072,147.878Zm-12.855,25.627V161.549h2.706V175.16h-1.051A1.656,1.656,0,0,1,145.218,173.505Zm23.933,1.655h-1.093V161.549h2.868l0,11.834A1.778,1.778,0,0,1,169.15,175.16Z" transform="translate(-215.777 -424.952)"/>
      </g>
    </g>
    <g id="Componente_13_8" data-name="Componente 13 – 8" transform="translate(252 632)">
      <g id="pagar">
        <g id="Grupo_8-2" data-name="Grupo 8" transform="translate(-42 -671)">
          <rect id="Retângulo_5" data-name="Retângulo 5" class="cls-27" width="92" height="92" rx="46" transform="translate(42 671)"/>
        </g>
        <text id="Pagar-2" data-name="Pagar" class="cls-30" transform="translate(15 61)"><tspan x="13.042" y="14">Pagar</tspan></text>
      </g>
      <path id="Caminho_26" data-name="Caminho 26" class="cls-4" d="M1083.039,669.189h.1a2.611,2.611,0,0,1,1.837.757l7.029,6.982.122.121a3.324,3.324,0,0,1,.063,4.375c-1.11,1.1-20.918,20.78-21.122,20.983a2.638,2.638,0,0,1-3.71,0l-21.124-20.984a3.325,3.325,0,0,1,.062-4.37l.124-.123,7.029-6.982a2.612,2.612,0,0,1,1.837-.757h.093a2.472,2.472,0,0,1,1.741.718l.622.618,6.962,6.916a6.357,6.357,0,0,0,4.508,1.856h0a6.358,6.358,0,0,0,4.509-1.856l6.962-6.916.625-.621a2.46,2.46,0,0,1,1.733-.714h0m.111-1.883H1055.27a4.493,4.493,0,0,0-3.152,1.3l-7.029,6.982v-.008a5.206,5.206,0,0,0-.237,7.121c.009.011,21.175,21.036,21.175,21.036a4.521,4.521,0,0,0,6.364,0s21.166-21.025,21.175-21.036a5.207,5.207,0,0,0-.237-7.121v.008l-7.029-6.982a4.494,4.494,0,0,0-3.152-1.3Zm-13.94,10.108a4.5,4.5,0,0,1-3.182-1.309l-6.962-6.916h20.287l-6.962,6.916a4.5,4.5,0,0,1-3.182,1.309Z" transform="translate(-1022.998 -646.239)"/>
    </g>
    <g id="Componente_20_2" data-name="Componente 20 – 2" transform="translate(40 632)">
      <g id="Grupo_114" data-name="Grupo 114" transform="translate(-470 -1943)">
        <g id="pagar-3" data-name="pagar" transform="translate(470 1943)">
          <g id="Grupo_8-3" data-name="Grupo 8" transform="translate(-42 -671)">
            <g id="Retângulo_5-2" data-name="Retângulo 5" class="cls-31" transform="translate(42 671)">
              <rect class="cls-34" width="92" height="92" rx="46"/>
              <rect class="cls-1" x="0.5" y="0.5" width="91" height="91" rx="45.5"/>
            </g>
          </g>
          <text id="QR_CODE" data-name="QR CODE" class="cls-32" transform="translate(15 61)"><tspan x="2.407" y="14">QR CODE</tspan></text>
        </g>
        <g id="Grupo_113" data-name="Grupo 113" transform="translate(0 -2)">
          <path id="Caminho_250" data-name="Caminho 250" class="cls-33" d="M499,1972.133v-7h7" transform="translate(1031 3963.267) rotate(180)"/>
          <g id="Grupo_112" data-name="Grupo 112">
            <path id="Caminho_248" data-name="Caminho 248" class="cls-33" d="M499,1972.133v-7h7" transform="translate(1 1)"/>
            <path id="Caminho_249" data-name="Caminho 249" class="cls-33" d="M499,1972.133v-7h7" transform="translate(2497.133 1467.133) rotate(90)"/>
            <path id="Caminho_251" data-name="Caminho 251" class="cls-33" d="M499,1972.133v-7h7" transform="translate(-1465.133 2497.133) rotate(-90)"/>
          </g>
        </g>
      </g>
    </g>
  </g>
</svg>
