<svg xmlns="http://www.w3.org/2000/svg" xmlns:xlink="http://www.w3.org/1999/xlink" width="375" height="812" viewBox="0 0 375 812">
  <defs>
    <style>
      .cls-1, .cls-10, .cls-5, .cls-6, .cls-9 {
        fill: none;
      }

      .cls-2 {
        clip-path: url(#clip-geolocalização_1);
      }

      .cls-11, .cls-12, .cls-13, .cls-16, .cls-3, .cls-7 {
        fill: #fff;
      }

      .cls-4 {
        fill: url(#linear-gradient);
      }

      .cls-5, .cls-6 {
        stroke: #fff;
        stroke-width: 3px;
      }

      .cls-10, .cls-6 {
        stroke-linecap: round;
      }

      .cls-7 {
        stroke: rgba(0,0,0,0);
        stroke-miterlimit: 10;
      }

      .cls-8 {
        fill: #dfdcdc;
      }

      .cls-10, .cls-9 {
        stroke: #9e9e9e;
        stroke-width: 2px;
      }

      .cls-11 {
        font-size: 15px;
        font-family: SegoeUI, Segoe UI;
      }

      .cls-12 {
        font-size: 25px;
        font-family: SegoeUI-Semibold, Segoe UI;
      }

      .cls-12, .cls-13 {
        font-weight: 600;
      }

      .cls-13 {
        font-size: 19px;
        font-family: OpenSans-SemiBold, Open Sans;
      }

      .cls-14 {
        fill: #ffeae3;
      }

      .cls-15, .cls-18, .cls-20 {
        fill: #f57c00;
      }

      .cls-16, .cls-18 {
        font-size: 14px;
      }

      .cls-16 {
        font-family: OpenSans-Regular, Open Sans;
      }

      .cls-17 {
        clip-path: url(#clip-path);
      }

      .cls-18 {
        font-family: ArialMT, Arial;
      }

      .cls-19 {
        clip-path: url(#clip-path-2);
      }

      .cls-20 {
        fill-rule: evenodd;
      }

      .cls-21 {
        fill: #424242;
      }

      .cls-22 {
        stroke: none;
      }
    </style>
    <linearGradient id="linear-gradient" x1="0.5" x2="0.5" y2="1" gradientUnits="objectBoundingBox">
      <stop offset="0" stop-color="#f57c00"/>
      <stop offset="1" stop-color="#d84315"/>
    </linearGradient>
    <clipPath id="clip-path">
      <rect class="cls-1" width="327" height="226"/>
    </clipPath>
    <clipPath id="clip-path-2">
      <rect class="cls-1" width="16" height="16"/>
    </clipPath>
    <clipPath id="clip-geolocalização_1">
      <rect width="375" height="812"/>
    </clipPath>
  </defs>
  <g id="geolocalização_1" data-name="geolocalização – 1" class="cls-2">
    <path id="Icon_awesome-arrow-left" data-name="Icon awesome-arrow-left" class="cls-3" d="M6.95,13.648l-.6.6a.645.645,0,0,1-.915,0L.187,9a.645.645,0,0,1,0-.915L5.435,2.838a.645.645,0,0,1,.915,0l.6.6a.649.649,0,0,1-.011.926l-3.253,3.1h7.759a.646.646,0,0,1,.648.648v.864a.646.646,0,0,1-.648.648H3.686l3.253,3.1A.644.644,0,0,1,6.95,13.648Z" transform="translate(36.004 41.353)"/>
    <rect id="topo" class="cls-4" width="375" height="808"/>
    <g id="lupa" transform="translate(470 321)">
      <g id="lupa-2" data-name="lupa">
        <g id="Elipse_2" data-name="Elipse 2" class="cls-5" transform="translate(-137 -277)">
          <circle class="cls-22" cx="9" cy="9" r="9"/>
          <circle class="cls-1" cx="9" cy="9" r="7.5"/>
        </g>
        <line id="Linha_1" data-name="Linha 1" class="cls-6" x2="7" y2="7" transform="translate(-122.5 -262.5)"/>
      </g>
    </g>
    <g id="LOGO" transform="translate(-257.005 -80.124)">
      <g id="Grupo_5" data-name="Grupo 5" transform="translate(451.5 158.035)">
        <g id="Grupo_4" data-name="Grupo 4" transform="translate(0 0)">
          <g id="Grupo_3" data-name="Grupo 3">
            <path id="Exclusão_1" data-name="Exclusão 1" class="cls-7" d="M5.139,12.4h0L1.884,9.144a.915.915,0,0,1-.089-.1A5.138,5.138,0,0,1,4.775.013C4.9,0,5.019,0,5.14,0A5.138,5.138,0,0,1,8.484,9.04a.911.911,0,0,1-.089.1L5.14,12.4Zm0-10.226A2.866,2.866,0,1,0,8.005,5.039,2.869,2.869,0,0,0,5.14,2.174Z"/>
          </g>
        </g>
      </g>
      <path id="Caminho_4" data-name="Caminho 4" class="cls-3" d="M407.67,180.7h3.769l-5.984,17.6h-4.07l-5.973-17.6h3.769l3.311,10.476q.277.927.572,2.161t.368,1.715a30.81,30.81,0,0,1,.9-3.877Z" transform="translate(0 -8.849)"/>
      <path id="Caminho_5" data-name="Caminho 5" class="cls-3" d="M427.217,198.306V180.7h3.733v17.6Z" transform="translate(-12.416 -8.849)"/>
      <path id="Caminho_6" data-name="Caminho 6" class="cls-3" d="M446.3,198.306h-3.733v-14.5h-4.78V180.7h13.293v3.107H446.3Z" transform="translate(-16.541 -8.849)"/>
      <path id="Caminho_7" data-name="Caminho 7" class="cls-3" d="M467.766,191.551v6.755h-3.733V180.7h5.129a8.777,8.777,0,0,1,5.31,1.306,5.207,5.207,0,0,1,.867,6.731,5.66,5.66,0,0,1-2.42,1.9q3.973,5.936,5.178,7.67h-4.142l-4.2-6.755Zm0-3.034h1.2a4.6,4.6,0,0,0,2.612-.59,2.1,2.1,0,0,0,.844-1.854,1.926,1.926,0,0,0-.861-1.782,5.226,5.226,0,0,0-2.667-.53h-1.131Z" transform="translate(-26.788 -8.849)"/>
      <path id="Caminho_8" data-name="Caminho 8" class="cls-3" d="M492.618,198.306V180.7h3.733v17.6Z" transform="translate(-37.946 -8.849)"/>
      <path id="Caminho_9" data-name="Caminho 9" class="cls-3" d="M523.507,198.306h-4.745L511.1,184.988H511q.229,3.529.229,5.033v8.284H507.89V180.7H512.6l7.646,13.185h.085q-.182-3.432-.181-4.853V180.7h3.36Z" transform="translate(-43.908 -8.849)"/>
      <path id="Caminho_10" data-name="Caminho 10" class="cls-3" d="M550.914,198.306H540.775V180.7h10.139v3.058h-6.406v3.865h5.96v3.059h-5.96v4.539h6.406Z" transform="translate(-56.746 -8.849)"/>
    </g>
    <g id="Grupo_15" data-name="Grupo 15">
      <g id="BOTTOM" transform="translate(0 760)">
        <rect id="Retângulo_8" data-name="Retângulo 8" class="cls-8" width="375" height="52"/>
      </g>
      <g id="Grupo_10" data-name="Grupo 10" transform="translate(0.5)">
        <g id="Retângulo_9" data-name="Retângulo 9" class="cls-9" transform="translate(178 774)">
          <rect class="cls-22" width="20" height="20" rx="6"/>
          <rect class="cls-1" x="1" y="1" width="18" height="18" rx="5"/>
        </g>
        <g id="Grupo_9" data-name="Grupo 9" transform="translate(0 -1.5)">
          <line id="Linha_2" data-name="Linha 2" class="cls-10" y2="15" transform="translate(77.5 778.5)"/>
          <line id="Linha_3" data-name="Linha 3" class="cls-10" y2="15" transform="translate(85.5 778.5)"/>
          <line id="Linha_4" data-name="Linha 4" class="cls-10" y2="15" transform="translate(92.5 778.5)"/>
        </g>
        <path id="Caminho_11" data-name="Caminho 11" class="cls-10" d="M872.2,762.8l-7.6,7.6,7.6,7.6" transform="translate(-575 13.7)"/>
        <path id="Caminho_20" data-name="Caminho 20" class="cls-10" d="M872.2,762.8l-7.6,7.6,7.6,7.6" transform="translate(-575 13.7)"/>
      </g>
    </g>
    <g id="TOPO_HORÁRIO" data-name="TOPO HORÁRIO" transform="translate(19 2)">
      <g id="Grupo_14" data-name="Grupo 14" transform="translate(-17 -14)">
        <path id="Icon_awesome-battery-three-quarters" data-name="Icon awesome-battery-three-quarters" class="cls-3" d="M17.341,8.79v2.04h1.02v2.04h-1.02v2.04H2.04V8.79h15.3m.51-2.04H1.53A1.53,1.53,0,0,0,0,8.28v7.14a1.53,1.53,0,0,0,1.53,1.53H17.851a1.53,1.53,0,0,0,1.53-1.53v-.51h.255a.765.765,0,0,0,.765-.765V9.555a.765.765,0,0,0-.765-.765h-.255V8.28A1.53,1.53,0,0,0,17.851,6.75Zm-4.59,3.06H3.06v4.08h10.2Z" transform="translate(333.118 13.05)"/>
        <path id="Icon_awesome-wifi" data-name="Icon awesome-wifi" class="cls-3" d="M15.508,5.251a11.357,11.357,0,0,0-15.383,0,.388.388,0,0,0-.009.561l.836.83a.4.4,0,0,0,.547.009,9.371,9.371,0,0,1,12.634,0,.4.4,0,0,0,.547-.009l.836-.83a.388.388,0,0,0-.009-.561ZM7.816,10.066a1.563,1.563,0,1,0,1.563,1.563A1.563,1.563,0,0,0,7.816,10.066Zm4.95-2.042a7.5,7.5,0,0,0-9.9,0,.386.386,0,0,0-.014.565l.841.83a.4.4,0,0,0,.539.02,5.5,5.5,0,0,1,7.168,0,.4.4,0,0,0,.539-.02l.841-.83A.386.386,0,0,0,12.766,8.024Z" transform="translate(306.487 16.808)"/>
        <text id="_16:00" data-name="16:00" class="cls-11" transform="translate(17 30)"><tspan x="0" y="0">16:00</tspan></text>
        <text id="_16:00-2" data-name="16:00" class="cls-11" transform="translate(17 30)"><tspan x="0" y="0">16:00</tspan></text>
      </g>
    </g>
    <text id="Tatiana" class="cls-12" transform="translate(147 142)"><tspan x="0" y="0">Tatiana</tspan></text>
    <g id="Grupo_26" data-name="Grupo 26">
      <text id="vitrine_americanas" data-name="vitrine americanas" class="cls-11" transform="translate(59 56)"><tspan x="0" y="0">vitrine americanas</tspan></text>
      <path id="Icon_awesome-arrow-left-2" data-name="Icon awesome-arrow-left" class="cls-3" d="M6.95,13.648l-.6.6a.645.645,0,0,1-.915,0L.187,9a.645.645,0,0,1,0-.915L5.435,2.838a.645.645,0,0,1,.915,0l.6.6a.649.649,0,0,1-.011.926l-3.253,3.1h7.759a.646.646,0,0,1,.648.648v.864a.646.646,0,0,1-.648.648H3.686l3.253,3.1A.644.644,0,0,1,6.95,13.648Z" transform="translate(36.004 41.353)"/>
    </g>
    <text id="localizar" class="cls-13" transform="translate(133 443)"><tspan x="16.889" y="20">localizar</tspan></text>
    <g id="Map" transform="translate(-145.61 176)">
      <path id="União_1" data-name="União 1" class="cls-14" d="M-460.9,491A36.048,36.048,0,0,1-497,455V-176h375V455a36.048,36.048,0,0,1-36.1,36Z" transform="translate(642.61 176)"/>
      <path id="Interseção_2" data-name="Interseção 2" class="cls-3" d="M383.372,648.129l44.538,8.721L426.111,667h8.1l19.42-111.041L458.127,667h8.023l-1.5-37.44,20.394-.6,2.1,38.041h3.974l-2.1-38.116,30.517-.827v-7.969l-25.118.677-1.949-13.457,27.068.827v-3.985l-27.668-.827-3.749-26.087,16.346-18.043,15,9.548v-4.812l-12.3-7.819,12.3-13.608v-5.939L487.294,572.2c-1.724-9.849-6-34.959-7.8-45.559l40.039,6.841V525.36L499.591,521.9l4.724-29.847c5.324,1.128,10.422,2.18,15.221,3.158v-8.195l-11.4-2.331,11.4-14.51V457.171l-20.095,25.712-26.018-5.413,11.1-78.037,34.94,6.315V392.216l-3.674-.677,3.674-25.185V311.472l-4.049,27.817-37.19-9.022c1.874-9.849,6.823-35.936,8.7-45.86l32.541,6.165v-8.119l-20.994-3.985,16.571-90.442,4.424.827V175.245l-10.872-2.03,2.924-20.374,7.948-1.654v-4.06l-7.348,1.5,6.448-44.958.9.15V3.383L517.061,20l-24.893,1.5L491.043.075h-3.974l1.2,21.727L467.125,23.08,466.15.075h-8.023l.975,23.531-29.317,1.8L434.208.075h-8.1l-4.274,24.584L377.6,12.855,379.923.075h-13.5l-4.5,24.509-30.442,5.187L327.737.075h-8.023l3.824,30.974-29.767,5.037L281.025,10c7.573-2.18,20.32-5.939,34.116-9.924H286.573L277.5,2.706,276.151.075H261.305l3.074,6.315c-4.649,1.278-10.872,3.007-17.02,4.736-.975-2.706-2.324-6.691-3.9-11.127h-4.2l4.274,12.179c-7.423,2.03-14.021,3.909-16.646,4.661l-19.195-6.014L208.969.075H204.92l-1.05,9.548L179.352,2.029l.675-1.955h-8.473l-3.224,8.8L147.336.075h-7.348L133.464,16.84,103.4,6.39Q105.31,3.232,107,.075H97.7A166.366,166.366,0,0,1,83.078,21.8L79.479.075h-8.1l.975,6.014L52.336,18.043,41.764.075H37.115L61.934,42.251c-.6.376-1.2.827-1.725,1.2-7.948,5.187-18.3,9.022-30.142,11.878L34.041.075H30.067L26.018,56.31c-4.349.977-8.848,1.729-13.5,2.481L8.173.075H.15L1.575,19.922l-47.912-5.864-.3-13.984H-54.66l.3,13.081L-65.382,11.8-77.229.075h-5.7l11.1,10.9-40.339-4.887.75-6.014h-4.049l-.675,5.488-16.046-1.955.525-3.533h-13.5l-.45,3.308V103.824l34.491,6.315,5.923,28.569-40.414,8.42v4.06l12.072-2.556,3.9,29.621-15.971-3.007v13.608l17.545,3.308-13.346,90.893-4.2-.752v8.119l3,.6-3,20.449v54.882l10.872-73.827,37.565,7.067-9.972,99.539-38.465-6.917v13.532l35.315,6.315-35.315,45.108V470.1l35.016-44.807-9.6,66.986-25.418-5.263v8.195c10.272,2.1,18.895,3.909,24.293,5.037l-4.049,28.568-20.245-3.458v8.119l2.4.451-2.4,2.556v5.939l7.048-7.819,12.072,2.105-5.174,36.086-13.946-8.871v4.737l13.346,8.5-3.9,27.215-9.447-.3v3.985l8.848.3-1.65,11.427-7.2.225v7.969l6.073-.15-5.623,39.094h13.421l5.474-38.492,15.221,2.03-4.5,36.463h4.049l3.074-24.96,25.493,24.96h5.7l-30.517-30,.75-5.939,51.661,6.917.675,29.02h8.023l-.675-27.967,45.888,6.165,1.575,21.8H8.173l-.825-11.2,23.844-4.06L30.067,667h3.974l.3-4.586L37.04,667h4.649l-6.823-11.653.3-4.36,32.616-5.563L71.381,667h8.1L68.232,599.337l56.835,4.361C118.843,622.794,109.7,646.25,97.7,667H107a298.705,298.705,0,0,0,13.122-27.065l26.393,10.149L139.913,667h7.348l-2.624-1.128,13.271-34.057,24.293,5.714-10.647,29.4h8.473l20.245-55.784,11.022-1.353L204.92,667h4.049l2.549-22.855,18.07-4.962L239.336,667h4.2c-3.749-10.6-8.4-23.907-10.122-28.869l12.147-3.308L261.305,667h14.846L269.4,653.166,322.339,636.7l-2.924,20.75-32.841,9.473H315.14c1.5-.451,2.924-.827,4.424-1.278l.15,1.278h8.023l-.45-3.534c16.271-4.736,32.316-9.4,41.914-12.254l-2.924,15.788h13.5Zm-7.2-34.583-41.689-5.714,4.2-29.546,42.589,7.293Zm-89.151-52.175,2.849-16.239,44.313,8.345-2.249,15.562Zm43.788,15.562-1.8,12.63-29.317-4.21,2.924-13.156ZM182.876,561.146l-19.645-.526,3-16.991,16.646,8.044a31.7,31.7,0,0,0-.375,4.661A20.524,20.524,0,0,0,182.876,561.146Zm6.073,13.532a26.68,26.68,0,0,0,3.524,3.609l-15,19.772-14.171-24.133Zm-1.05-35.335-37.865-18.269L191.2,505.963l6.223,24.885A29.364,29.364,0,0,0,187.9,539.344ZM-74.754,497.017l4.874-10.976L-9.3,471.531l-8.623,30.3Zm54.885,12.706-4.049,20.825-14.771-3.759,1.05-18.57ZM-104.222,68.564c13.421.977,29.092,1.88,45.438,2.105l-.15,3.985-47.237,14.66Zm-16.346-9.473,4.5-25.336,43.413,5.488C-73.1,43.98-74.3,55.859-74.9,62.1-92.3,61.422-108.2,60.294-120.567,59.091ZM-17.62,112.469l5.174,46.086c-11.847,1.353-47.462,5.488-60.134,6.992l5.549-48.341Zm-41.539-33.53-1.275,29.621-10.047.977-9.3-1.729-2.7-21.652Zm47.087,83.6,1.874,16.615-64.932,7.969,2.024-17.517Zm273.526-3.233-7.348,26.088-30.292,11.728c-4.424-12.4-7.948-24.584-9.9-31.952Zm-41.614-25.185,23.244-2.857,2.549,16.54-23.918,2.932ZM335.385,303.8l-28.117-6.616,14.021-43.981,24.143,4.511C343.708,265.837,339.434,285.459,335.385,303.8Zm14.021-45.409,29.692,5.563-38.84,36.387ZM84.2,267.566l45.963-4.36,5.024,20-55.035,1.654Zm0-34.809,42.064,14.735,1.949,7.819-40.564,3.834Zm209.119,64.354-7.5,23.531-32.766-13.006,8.773-22.028Zm-30.067-15.186,7.573-19.1c11.247,6.465,22.194,12.179,28.492,15.337l-4.8,15.111Zm-21.444,32.4-15.371-13.081,18.52-26.313L254.632,282Zm-1.575,3.909-.75,1.879-38.69,3.308-19.42-25.937,19.27-13.006ZM196.9,325l-32.691,18.87-7.5-29.7,21.369-14.359C181.6,304.555,193,319.742,196.9,325Zm-18-30.674c-1.65-2.105-4.8-6.09-7.048-8.946l16.121-11.653,9.447,8.044Zm-3.3,2.255-19.945,13.457-2.774-10.9L168.63,287.79Zm-21.519,61.5-35.165-10.45,26.393-24.283Zm-39.664-11.8L69.057,332.748l10.2-43.905,56.985-1.654,8.023,31.8ZM65.083,261.327,58.86,208.475l17.77-2.631,7.048,53.679Zm-.375,8.044L80,267.942l-7.348,31.651L57.51,294.707ZM71.756,303.5,65.233,331.62l-16.72-4.962,7.948-28.042Zm-4.349,37.139L45.813,399.583l-16.046-6.691,16.571-58.565Zm3.824,1.128L92,347.934,83.078,374.7c-5.923-1.8-16.945-5.263-21.444-6.691Zm18.145,39.244c4.049,1.428,11.1,3.91,19.42,6.842L95.675,418l-17.845-2.1Zm1.2-3.834,9-26.99,30.817,9.172-7.423,29.17Zm43.638-16.615,22.044,6.616,9.147,36.312-38.69-13.608Zm30.967-12.63,17.02-9.849,8.323,29.771-21.744-5.563ZM185.8,335.981l14.7-8.5,37.415-3.233L217.817,374.7,195.1,368.91Zm49.487,16.465,17.92,6.014-6.448,23.832-21.144-5.413Zm1.425-3.759L251.558,311.4l32.991,13.081L272.927,360.79Zm49.262,15.036,33.441,6.014-28.043,46.913-17.245-15.713Zm4.124-12.781,15.971-49.995,28.492,6.766c-2.849,13.157-5.474,25.035-6.673,30.749l-24.893,14.81Zm47.912-40.3,11.922,14.585-17.32,10.3ZM301.794,270.5c-13.271-6.766-43.413-22.7-57.285-34.658a23.039,23.039,0,0,1-1.949-1.88l32.091-27.591,35.99,36.462Zm-48.362-56.385-10.5-20.148,12.372-4.812,13.571,11.578Zm-3.149,2.706-12.522,10.826c-4.649-7.142-8.923-16.84-12.6-26.689l14.021-5.413Zm-10.947,25.11c6.148,5.338,15.146,11.277,24.518,16.84l-7.648,19.321-36.965-26.839,17.1-12.33A37.761,37.761,0,0,0,239.336,241.93Zm2.4,30.6-18.37,26.088L191.349,271.4l24.443-17.667ZM193,260.349l-7.123-23.757,17.7-8.5,7.423,19.321Zm-8.323-27.666-5.7-18.945L191.5,196.671l10.647,27.591Zm1.5,32.553L150.86,290.722l-12.747-50.747,38.315-7.368Zm-49.112-29.095-15-59.768,36.065-4.436,17.1,56.761Zm-12,6.691L83.6,228.322l-3-23.08,33.741-5.037ZM58.41,204.49l-2.4-20,52.711-6.466,4.649,18.344Zm-4.724-33.155-4.049-17.291,56.31,2.631,2.1,7.969Zm2.849,85.48-37.865-43.6L17.1,189.3l30.967-3.834ZM15.6,176l-2.7-17.141c10.722-1.654,22.794-3.533,28.717-4.436l4.2,17.893Zm-2.474,13.758,1.5,22.479-16.8,1.654.6-22.253ZM15.9,216.068l40.039,46.086L-3.6,267.792-2.324,217.8C3.075,217.346,12.747,216.369,15.9,216.068ZM56.16,270.2,23.319,386.051,7.2,376.954l34.266-105.4ZM27.518,400.636l41.089,17.216L64.033,431.61,23.919,413.191Zm21.894.526,10.722-29.32,21.594,6.691L71.156,410.259ZM76.4,419.656l18.145,2.18-4.124,26.99-19.27-13.232Zm22.344.977,13.8-31.5c10.872,3.834,23.319,8.195,34.041,11.954L134.514,462.81l-15.3,5.864L94.025,451.307Zm60.734,41.124,6.748,24.283-28.417,11.879-12.971-22.855Zm-20.544-.677,11.472-58.716c6.523,2.255,12.222,4.285,16.271,5.714l9.747,38.643Zm32.091-89.991,44.388,11.352-11.472,15.186-24.518,6.992Zm48.662,12.48L261.6,394.321l-46.712,23.832-7.423-18.419Zm30.892-.376,6.373-23.531,14.771,4.962L264.6,386.8Zm22.194,21.953,37.49,34.057-2.774,5.338c-18.97-3.684-35.615-6.841-44.538-8.571Zm21.594,14.209,29.242-48.867,20.245,3.684-31.792,61.347Zm53.686-44.507,6.448,1.2-12.6,75.105c-10.122-1.955-20.469-3.985-30.367-5.864Zm2.249,50.6,32.841,7.894-3.974,25.035c-9.9-1.88-21.369-4.135-33.291-6.39Zm4.949,36.462,22.269,4.285-9.9,41.349-18.37-3.759Zm26.243,5.037,20.844,3.985-7.723,42.026L371.6,508.294Zm1.575-7.819,3.974-25.185,21.744,1.729-5.024,27.441C398.893,462.133,391.695,460.78,383.072,459.126Zm4.574-29.17,2.7-16.84,22.044,3.082L409.54,431.76Zm3.3-20.825,4.049-25.787,22.569,4.06-4.574,24.81Zm-7.2,20.224-32.766-7.819,7.5-44.732,32.691,5.864Zm-68.757-73.977,40.039-23.832,29.617,36.387Zm43.488-25.937,52.036-31.049L422.137,312.6l-52.111,30.9Zm-5.1-6.24-13.721-16.84,43.863-40.973,21.894,26.839ZM385.1,235.916l-31.192-4.135c.975-5.939,1.874-11.427,2.324-14.284l30.817,6.24Zm-.6,3.985-2.624,16.465L350.906,250.5c.6-3.609,1.5-9.172,2.4-14.811Zm-37.565,9.924-23.169-4.36,10.347-32.4,18.22,3.684Zm-33.516-15.562-32.691-33.155,25.568-22.028,21.219,10.9ZM271.952,198.1l-14.021-11.954,7.723-27.366,47.687-5.864a29.26,29.26,0,0,0,2.924,7.067Zm-18.37-51.273-6.3-40.673,27.068-4.21,6.373,41.575Zm-22.044,85.706-17.17,12.4-20.02-52.025,13.721-18.645C212.643,190.356,221.116,216.669,231.538,232.533ZM177.553,209l-11.4-37.966,39.739-4.887c.225.977.525,2.03.825,3.158Zm-6.3-52.1-12.822,1.579-21.819-35.109,34.716-5.413Zm-17.17,2.105-33.291,4.06,13.2-36.387Zm-39.664-1.729L96.574,88.186l38.09,13.457Zm-9.447-4.661-30.967-1.428L65.758,104.5l26.168-2.481Zm-35.091-1.654-21.144-.977-9.972-42.928,22.944-2.18Zm-29.167-.451-28.492,4.36-2.7-17.141,27.368-3.684ZM11.622,176.523l-13.871,1.729-1.874-16.765c3.074-.451,7.8-1.2,13.046-2.03ZM-3.824,275.912,37.115,272,16.271,336.056l-21.444-8.8ZM15.071,339.89,3.449,375.676-6.3,374.1l1.125-42.477Zm-12.9,39.62L-7.2,408.379l.75-30.3C-3.6,378.533-.075,379.134,2.175,379.51Zm3.749,1.353,16.271,9.172-17.245,60.9-13.121-6.315.6-22.178ZM22.869,417.1l39.889,18.344L50.312,472.809,12.3,454.465Zm46.937,22.4,44.913,30.9-38.69,14.81-18.52-8.946Zm5.024,59.919L110.3,516.564l-9.223,17.291-31.492-6.841Zm11.1-9.4,35.166-13.457,13.046,22.93-15.371,6.39Zm81.428-.075,5.174,18.645-27.443,10.074-21.519-10.45Zm-4.124-29.621L178.3,454.54l11.922,47.439L176.2,507.091Zm17.245-51.8,23.544-6.691L226.589,457.7l-31.267,9.774Zm35.915,13.307,44.313-22.629-23.619,73.9Zm44.088,21.8,37.94,7.292-7.273,41.124-43.338-8.8ZM297.6,501.528l42.738,8.646-3.3,23.381-41.314-21.426Zm1.35-7.894,7.273-41.2,41.239,7.969-6,41.875Zm49.262,18.118,44.988,9.1-4.424,24.208-44.088-8.721Zm50.087,54.731,19.27,2.481-6,30.749-18.97-2.406Zm.75-3.909,8.848-48.266,19.72,3.383-9.222,47.364Zm10.272-56.16,6-32.854c6.223,1.278,16.5,3.458,28.642,5.939l-7.123,31.576Zm7.5-40.673,7.423-40.6,47.612,6.691-6.3,44.056Zm5.924-90.968-32.091-5.789L372.5,346.731l52.111-30.9,7.723,9.473Zm17.02-45.71,33.066,8.044c-1.874,9.322-6.6,33.455-8.923,45.108L430.609,376.2Zm-5.4-13.984-39.14-48.04,46.788,8.8ZM389.67,257.868l7.873-49.168,55.86,8.119-9.972,51.2Zm29.992-54.055,4.574-32.854,36.74,6.917-6.073,31.05Zm2.7-46.837-15.071-2.857,4.8-27.215,15.221,1.654Zm-2.025,13.232c-1.275,9.172-3.524,25.486-4.574,33l-16.87-2.481,5.4-33.606Zm-20.919-17.517-28.792-5.413c0-.6.075-1.128.075-1.729a30.25,30.25,0,0,0-2.4-11.653l27.143-16.389,7.423,16.013ZM396.344,165.7l-8.623,54.055-52.336-10.525,11.172-34.959a29.138,29.138,0,0,0,20.17-14.134Zm-54.81-4.36a15.863,15.863,0,1,1,15.821-15.863A15.845,15.845,0,0,1,341.533,161.337Zm-8.7,12.029-4.124,12.781L309.517,176.3l11.622-10A29.681,29.681,0,0,0,332.836,173.366Zm-19.72-33.831-28.342,3.458-6.448-41.65,30.292-4.736,13.346,27.366A29.255,29.255,0,0,0,313.116,139.534ZM240.761,99.087l-2.024-15.938L296.62,72.173l8.248,16.916Zm-1.35,8.345,3.074,19.923-23.094,2.782-2.174-19.246Zm-21.594,43.83L175.3,156.45l.075-39.094,37.94-5.939Zm-41.164-42.176L190.3,60.069l16.8,6.39-9.672,39.395Zm-4.349.677L138.188,115.1l23.919-65.708L186.55,58.64Zm-36.29-11.878-19.57-6.917,6.9-24.734,20.994,8.721ZM112.7,89.615,95.375,83.45l-8.4-32.478,32.691,13.683ZM89.826,94.125,35.241,99.388,32.767,81.721,83.9,71.5Zm-53.91,36.011L8.848,133.745,5.1,110.289l25.643-2.481ZM5.549,138.256l2.774,17.216L-4.5,157.427l-1.949-17.592Zm-12.522-2.331-2.7-24.208,10.8-1.053,3.749,23.607Zm-2.7,56.611-.6,22.028c-6.373.6-19.12,1.729-24.293,2.18l.825-21.276ZM-42.663,323.2l-.675,18.043c-4.5-.15-15.221-.526-19.72-.752l.825-18.72Zm-18.07-9.247L-41.014,282l-1.275,33.23Zm17.245,31.275-.825,21.426c-6.523-1.278-13.271-2.631-19.72-3.909l.825-18.269Zm-1.125,25.486-3.3,26.839-20.844-5.413,4.2-25.336Zm-1.125,41.876,11.622,2.932-1.2,15.863L-47.387,425.6Zm.525-3.985,4.574-37.139,9.747,1.955-2.849,38.117Zm18.145-34.433,12.672,2.481-1.65,64.054-15.371-7.443Zm-13.271-6.691.825-22.028c5.174.3,19.045,1.128,25.868,1.5l-.675,25.636C-19.569,371.541-29.392,369.586-40.339,367.481Zm.975-26.012.675-17.968,25.568,1.8-.45,17.592Zm1.05-25.937,1.5-39.169,25.043-1.8L-12.9,317.336Zm1.65-43.229.6-15.713,24.743.677L-11.7,270.5Zm.9-23.757,1.05-27.817,24.293-2.18-.75,30.674Zm-38.09-48.115,36.215-4.436-.825,20.975-37.04-.376Zm35.24,20.449-1.05,27.516-38.915-.977,2.7-26.839Zm-1.425,35.56-.675,17.367-12.747,20.6L-79.928,260.8l.525-5.488Zm-15.6,41.65-9.6,15.487-19.795-1.428,4.574-45.634Zm-10.572,23.456-1.8,40.447c-8.7-1.729-16.5-3.233-21.594-4.285l3.749-37.59Zm-25.568-76.007-16.046-2.255,7.948-45.785L-87.2,199.9Zm1.725,116.229,21.594,4.285-7.648,45.71-18.07-8.721Zm20.694,34.282,20.994,5.488-2.7,22.253L-72.28,413.567Zm20.17,43.454,43.038,20.825L-8.1,467.17l-59.759,14.284Zm46.712,22.554L18.67,472.283l-9.3,31.876L-13.946,502.2Zm28.417,13.758,18.22,8.8L30.817,540.471,7.873,538.065Zm31.641,71.5-1.949,10.224-53.086-1.5,4.124-14.059Zm-22.794-6.466,13.046-54.506,19.57,9.473-9.073,47.514ZM68.832,531l56.535,12.255-2.024,16.239-59.609-1.729Zm36.29,3.759,8.773-16.389,19.645,9.473-6.973,11.578Zm24.368,7.593,7.723-12.706,25.193,12.179-3.3,18.645-31.791-.9Zm82.028-1.879A15.863,15.863,0,1,1,195.7,556.334,15.845,15.845,0,0,1,211.518,540.471Zm7.948-12.179a27.822,27.822,0,0,0-7.948-1.128h-1.2l-14.1-55.859,31.791-9.924,7.123,17.667Zm25.868-37.365,44.388,9.022-.675,3.91-53.91,35.485a31.128,31.128,0,0,0-3.9-4.436Zm42.739,18.344-8.923,50.747L240.461,553.4a28.18,28.18,0,0,0-3.224-10.6Zm10.647,62.174-3,13.307-35.54-5.112L267,566.108Zm-8.173-30.3,4.424-24.885,41.464,21.5-1.65,11.8Zm92.15,36.538-42.888-7.368,4.274-30.072,43.863,8.646Zm20.395,66.084-18.3-3.609,7.123-38.943,18.895,2.406Zm26.168,5.187-18.37-3.609,11.622-59.919,17.17,3.834Zm11.172-63.678-17.1-3.759,12.147-62.475,16.046,2.782Zm49.862,35.485-26.018.752L463.6,604.3l21.069-23.306C485.944,590.09,489.019,611.667,490.293,620.764Zm-6.373-44.883-20.544,22.7L460.3,523.255l15,2.556Zm12.522-85.4-4.8,30.072-50.836-8.721,7.048-31.5C462.926,483.484,480.321,487.093,496.442,490.476Zm-24.069-62.625-47.462-6.616,5.773-31.425,45.963,8.27ZM488.044,386.5,467.8,382.893l4.124-20.975,19.87,3.985Zm19.87,3.609-15.971-2.857,3.824-20.6,15.146,3.082Zm6.3-42.928-2.7,18.569-38.764-7.819,3.9-19.923Zm-39.889-17.968-33.066-8.044,8.548-43.905,33.216,6.24Zm20.245-51.574L451.3,269.521l7.2-37.139,42.739,8.646ZM516.536,24.057l-4.574,32.1-17.845-.3-1.649-30.3ZM493.892,63.9l16.87.3-9.073,63.377-13.646-.075Zm-6.148,67.587,13.421.075-5.624,39.244L484.3,168.7Zm-7.423,36.462-7.5-1.428-4.2-103.072,21.219.376Zm8.1-142.166,1.65,30-21.744-.376L467.2,27.14ZM468.849,179.3l42.289,7.969-9.148,49.769L459.252,228.4ZM464.8,165.02,426.336,157.8c1.5-8.721,4.049-23.607,4.949-28.794l32.241,3.458Zm-1.5-36.688-50.611-5.413,3.749-21.652,45.663-.451ZM429.11,29.47l30.142-1.88,1.2,29.771-36.215-.3Zm-5.548,31.576,37.04.3,1.425,35.56-44.838.451ZM376.849,16.84l44.238,11.8-4.8,27.215L371.975,42.777Zm38.84,43-10.5,59.844L371.525,46.762Zm-46.787.3,24.818,53.679-27.293,16.465a29.6,29.6,0,0,0-8.7-9.1Zm-7.8-31.35L344.982,116.6c-.975-.075-1.875-.15-2.849-.226l-10.2-82.7Zm-37.04,6.24,10.2,82.247a1.761,1.761,0,0,1-.6.15L295.646,39.845Zm-56.01-21.276,26.768,54.731-26.393,5.037-18.37-54.731Zm-21.894,6.09c3.824,11.277,15.221,45.409,18.3,54.355l-26.243,4.962-6.973-55.182Zm-13.346,80.518-31.192,4.887,9.148-37.289,18.82,7.142Zm-3.749-29.771L191.574,56.31l8.848-19.4,25.568,9.322ZM206.12,18.72l17.1,5.338,2.249,17.667-23.619-8.571ZM176.578,9.548,202.3,17.517l-4.8,16.089-9.6,21.2-24.443-9.322ZM143.212,2.706,166.98,12.63l-5.1,14.059-24.668-8.571Zm-8.548,23.005,24.443,8.5L145.686,71.2l-21.219-8.871ZM99.049,13.382l31.866,11.052-10.2,36.387L85.627,46.236l-3-11.578A155.355,155.355,0,0,0,99.049,13.382ZM54.361,21.5,73.106,10.3,76.33,29.7a100.5,100.5,0,0,1-11.1,10.225Zm10.2,28.719A87.084,87.084,0,0,0,76.1,41.2l6.823,26.463L32.242,77.811,30.292,63.677C43.714,60.445,55.485,56.084,64.558,50.22ZM26.393,64.429l4.949,35.335-53.086,5.112-2.624-34.508C-6.673,69.466,10.8,67.662,26.393,64.429ZM2.25,28.117l2.324,31.8A428.217,428.217,0,0,1-45.137,62.7l-.975-40.447ZM-28.417,70.444l2.7,34.733-30.667,2.932,1.575-37.365C-46.112,70.82-37.265,70.744-28.417,70.444ZM-66.432,19.7l12.3,1.5.375,16.389-14.546-1.8C-67.856,32.177-66.957,24.433-66.432,19.7ZM-53.61,41.65l.525,20.975c-6-.075-12-.15-17.77-.376l2.174-22.554Zm-79.7-30.147,62.983,7.668-1.874,16.089-63.358-7.969Zm-2.849,19.772,16.121,2.03-4.5,25.411c-6.373-.6-11.547-1.2-15.3-1.654Zm24.668,70.67-33.891-6.24,4.424-30.674c6.823.827,18.37,2.105,32.766,3.233Zm4.8-8.345,20.32-6.315,2.474,19.7-23.694-4.36Zm-.225,17.367,31.866,5.864-8.1,70.294-8.4-1.579Zm-22.644,36.914,25.118-5.263,8.7,42.026L-125.516,179Zm-4.049,136.678,13.346-90.893,16.5,3.082-15.746,90.442Zm18.07,3.383,7.123-40.748,16.346,2.331-4.2,42.026Zm19.57,128.934,39.589,19.1-26.768,60.295L-107,494.235ZM-108.12,502.2l62.608,5.338-1.05,18.569-65.682,5.187Zm61.258,27.967L-48.287,554.6l-16.346-.451V531.6Zm-65.982,5.187,44.238-3.534v22.1l-46.712-1.278Zm23.619,89.991-35.84-4.812,5.4-37.741,33.891,4.661Zm-29.842-46.537,1.874-12.856,33.366.977-1.5,16.615ZM-73.1,627.53l-12.147-1.654L-81.8,588.06l12.522,1.729Zm4.2-41.725-12.6-1.729,1.575-16.991,12.9.376Zm17.845,44.657-14.1-1.879,3.824-38.041,12.971.752Zm-9.9-43.905,1.949-18.945,52.036,1.5,1.5,20.6Zm13.871,44.432,2.774-39.47,39.139,2.255,3.149,43.3ZM-5.7,555.808l-34.566-.977,1.35-23.907,37.64,9.623Zm-14.321-24.283,4.2-21.5,22.944,1.955-7.2,24.659ZM1.05,569.34l54.435,1.579,2.324,14.059L2.55,589.714Zm1.725,24.283,55.635-4.736,3.374,20.374L4.349,615.5Zm4.274,58.114-2.1-28.193,58.109-6.315,4.049,24.208ZM67.557,595.2,63.583,571.07l70.331,2.03c-1.5,6.09-4.049,15.412-7.573,26.614Zm80.453,51.047-26.318-10.074c1.65-3.985,3.224-7.894,4.649-11.8l27.668,6.541Zm-18.895-29.4a442.282,442.282,0,0,0,12.972-43.529l16.5.451,16.2,27.666-16.8,22.178Zm55.86,13.157-22.794-5.338,15.6-20.6,14.4,5.939Zm8.623-23.757-13.271-5.488,15.221-20.073a26.7,26.7,0,0,0,6.223,3.082Zm8.248.752,7.8-21.5a15.016,15.016,0,0,0,1.875.075,28.923,28.923,0,0,0,9.222-1.5l9.447,19.246Zm10.122,32.854,3.374-30.6,16.646-2.18,11.772,24.058Zm32.391-37.816-12.3-25.11a28.99,28.99,0,0,0,8.1-15.487l22.794,3.909ZM267.6,649.483l-6.973-14.209,23.244-6.691,3.749,14.585Zm55.335-17.216-31.492,9.773L287.7,627.53l37.415-10.751Zm3.449-24.133-69.281,19.848-10.5-21.426,11.7-23.156,70.181,10.149Zm1.35,46.838,5.549-39.169,19.495,2.707-4.574,30.523Zm43.113-12.63-18.37,5.338,4.349-28.794,17.92,2.481Z" transform="translate(145.61 0)"/>
    </g>
    <g id="Location_Maps" data-name="Location &amp; Maps" transform="translate(0 166)">
      <g id="info" transform="translate(0 -152)">
        <path id="Caminho_233" data-name="Caminho 233" class="cls-15" d="M0,0H327V104H0Z" transform="translate(24 539)"/>
        <text id="Av_Paulista_00_Bela_Vista" data-name="Av Paulista, 00 
Bela Vista" class="cls-16" transform="translate(48 584)"><tspan x="0" y="0">Av Paulista, 00 </tspan><tspan x="0" y="24">Bela Vista</tspan></text>
        <g id="Grupo_60" data-name="Grupo 60">
          <g id="Grupo_77" data-name="Grupo 77">
            <rect id="Retângulo_67" data-name="Retângulo 67" class="cls-3" width="40" height="40" rx="20" transform="translate(279 571)"/>
            <g id="Symbol_24_1" data-name="Symbol 24 – 1" transform="translate(291 583)">
              <path id="Caminho_10-2" data-name="Caminho 10" class="cls-15" d="M8,0,6.545,1.455l5.506,5.506H0V9.039H12.052L6.545,14.545,8,16l8-8Z"/>
            </g>
          </g>
        </g>
        <g id="Symbol_24_1-2" data-name="Symbol 24 – 1" transform="translate(495 913)">
          <path id="Caminho_10-3" data-name="Caminho 10" class="cls-15" d="M8,0,6.545,1.455l5.506,5.506H0V9.039H12.052L6.545,14.545,8,16l8-8Z"/>
        </g>
      </g>
      <g id="info-2" data-name="info" class="cls-17" transform="translate(24 499)">
        <g id="info-3" data-name="info" transform="translate(-24 -539)">
          <rect id="Retângulo_613" data-name="Retângulo 613" class="cls-3" width="327" height="104" transform="translate(24 539)"/>
          <text id="Rua_Pamplona_Augusta" data-name="Rua Pamplona
Augusta" class="cls-18" transform="translate(48 579)"><tspan x="0" y="0">Rua Pamplona</tspan><tspan x="0" y="24">Augusta</tspan></text>
          <g id="Grupo_62" data-name="Grupo 62">
            <rect id="Retângulo_614" data-name="Retângulo 614" class="cls-15" width="40" height="40" rx="20" transform="translate(279 571)"/>
            <path id="Caminho_164" data-name="Caminho 164" class="cls-3" d="M8,0,6.545,1.455l5.506,5.506H0V9.039H12.052L6.545,14.545,8,16l8-8Z" transform="translate(291 583)"/>
            <rect id="Retângulo_848" data-name="Retângulo 848" class="cls-15" width="40" height="40" rx="20" transform="translate(279 571)"/>
            <path id="Caminho_237" data-name="Caminho 237" class="cls-3" d="M8,0,6.545,1.455l5.506,5.506H0V9.039H12.052L6.545,14.545,8,16l8-8Z" transform="translate(291 583)"/>
          </g>
        </g>
        <g id="info-4" data-name="info" transform="translate(-24 -427)">
          <rect id="Retângulo_613-2" data-name="Retângulo 613" class="cls-3" width="327" height="104" transform="translate(24 539)"/>
          <text id="Rua_Pamplona_Augusta_" data-name="Rua Pamplona
Augusta
" class="cls-18" transform="translate(48 579)"><tspan x="0" y="0">Rua Pamplona</tspan><tspan x="0" y="24">Augusta</tspan><tspan x="0" y="48"></tspan></text>
          <g id="Grupo_62-2" data-name="Grupo 62">
            <rect id="Retângulo_614-2" data-name="Retângulo 614" class="cls-15" width="40" height="40" rx="20" transform="translate(279 571)"/>
            <path id="Caminho_164-2" data-name="Caminho 164" class="cls-3" d="M8,0,6.545,1.455l5.506,5.506H0V9.039H12.052L6.545,14.545,8,16l8-8Z" transform="translate(291 583)"/>
            <rect id="Retângulo_848-2" data-name="Retângulo 848" class="cls-15" width="40" height="40" rx="20" transform="translate(279 571)"/>
            <path id="Caminho_237-2" data-name="Caminho 237" class="cls-3" d="M8,0,6.545,1.455l5.506,5.506H0V9.039H12.052L6.545,14.545,8,16l8-8Z" transform="translate(291 583)"/>
          </g>
        </g>
      </g>
      <g id="Symbol_131_1" data-name="Symbol 131 – 1" class="cls-19" transform="translate(147 157)">
        <rect id="Retângulo_305" data-name="Retângulo 305" class="cls-1" width="16" height="16" transform="translate(0 0)"/>
        <path id="Caminho_114" data-name="Caminho 114" class="cls-20" d="M6.58,9.47A2.786,2.786,0,0,0,9.371,6.679,2.872,2.872,0,0,0,6.58,3.788,2.786,2.786,0,0,0,3.788,6.579,2.942,2.942,0,0,0,6.58,9.47ZM1.894,1.894a6.626,6.626,0,0,1,9.371,9.371L6.58,15.95,1.894,11.265A6.807,6.807,0,0,1,1.894,1.894Z" transform="translate(0.975 0.05)"/>
      </g>
      <g id="pin" transform="translate(194 302)">
        <rect id="Retângulo_617" data-name="Retângulo 617" class="cls-1" width="32" height="32" transform="translate(0 0)"/>
        <path id="Caminho_166" data-name="Caminho 166" class="cls-20" d="M13.134,18.99a5.573,5.573,0,0,0,5.583-5.583,5.744,5.744,0,0,0-5.583-5.782,5.573,5.573,0,0,0-5.583,5.583A5.884,5.884,0,0,0,13.134,18.99ZM3.763,3.838A13.252,13.252,0,0,1,22.5,22.579L13.134,31.95,3.763,22.579A13.614,13.614,0,0,1,3.763,3.838Z" transform="translate(1.975 0.05)"/>
      </g>
      <g id="Symbol_131_2" data-name="Symbol 131 – 2" class="cls-19" transform="translate(63 253)">
        <rect id="Retângulo_305-2" data-name="Retângulo 305" class="cls-1" width="16" height="16" transform="translate(0 0)"/>
        <path id="Caminho_114-2" data-name="Caminho 114" class="cls-20" d="M6.58,9.47A2.786,2.786,0,0,0,9.371,6.679,2.872,2.872,0,0,0,6.58,3.788,2.786,2.786,0,0,0,3.788,6.579,2.942,2.942,0,0,0,6.58,9.47ZM1.894,1.894a6.626,6.626,0,0,1,9.371,9.371L6.58,15.95,1.894,11.265A6.807,6.807,0,0,1,1.894,1.894Z" transform="translate(0.975 0.05)"/>
      </g>
      <g id="Symbol_131_3" data-name="Symbol 131 – 3" class="cls-19" transform="translate(258 201)">
        <rect id="Retângulo_305-3" data-name="Retângulo 305" class="cls-1" width="16" height="16" transform="translate(0 0)"/>
        <path id="Caminho_114-3" data-name="Caminho 114" class="cls-20" d="M6.58,9.47A2.786,2.786,0,0,0,9.371,6.679,2.872,2.872,0,0,0,6.58,3.788,2.786,2.786,0,0,0,3.788,6.579,2.942,2.942,0,0,0,6.58,9.47ZM1.894,1.894a6.626,6.626,0,0,1,9.371,9.371L6.58,15.95,1.894,11.265A6.807,6.807,0,0,1,1.894,1.894Z" transform="translate(0.975 0.05)"/>
      </g>
    </g>
    <g id="Navigation_Bar" data-name="Navigation Bar" transform="translate(0 166)">
      <rect id="Retângulo_68" data-name="Retângulo 68" class="cls-1" width="375" height="20"/>
      <rect id="Retângulo_69" data-name="Retângulo 69" class="cls-1" width="375" height="48" transform="translate(0 20)"/>
      <g id="Backward_arrow" data-name="Backward arrow" class="cls-19" transform="translate(16 36)">
        <path id="Caminho_10-4" data-name="Caminho 10" class="cls-21" d="M8,0,6.545,1.455l5.506,5.506H0V9.039H12.052L6.545,14.545,8,16l8-8Z" transform="translate(16 16) rotate(180)"/>
      </g>
    </g>
  </g>
</svg>
