<svg xmlns="http://www.w3.org/2000/svg" xmlns:xlink="http://www.w3.org/1999/xlink" width="375" height="812" viewBox="0 0 375 812">
  <defs>
    <style>
      .cls-1 {
        clip-path: url(#clip-login);
      }

      .cls-2 {
        fill: url(#linear-gradient);
      }

      .cls-11, .cls-3, .cls-4, .cls-5 {
        fill: #fff;
      }

      .cls-10, .cls-11, .cls-4 {
        font-size: 15px;
      }

      .cls-4 {
        font-family: SegoeUI, Segoe UI;
      }

      .cls-5 {
        stroke: rgba(0,0,0,0);
        stroke-miterlimit: 10;
      }

      .cls-6 {
        fill: #dfdcdc;
      }

      .cls-13, .cls-7, .cls-8 {
        fill: none;
      }

      .cls-7, .cls-8 {
        stroke: #9e9e9e;
        stroke-width: 2px;
      }

      .cls-8 {
        stroke-linecap: round;
      }

      .cls-9 {
        fill: #c51618;
      }

      .cls-10 {
        fill: #ef6c00;
      }

      .cls-10, .cls-11 {
        font-family: SegoeUI-Semibold, Segoe UI;
        font-weight: 600;
      }

      .cls-12 {
        stroke: none;
      }
    </style>
    <linearGradient id="linear-gradient" x1="0.5" x2="0.5" y2="1" gradientUnits="objectBoundingBox">
      <stop offset="0" stop-color="#f57c00"/>
      <stop offset="1" stop-color="#d84315"/>
    </linearGradient>
    <clipPath id="clip-login">
      <rect width="375" height="812"/>
    </clipPath>
  </defs>
  <g id="login" class="cls-1">
    <rect class="cls-3" width="375" height="812"/>
    <rect id="bg" class="cls-2" width="375" height="812"/>
    <path id="Icon_awesome-arrow-left" data-name="Icon awesome-arrow-left" class="cls-3" d="M6.95,13.648l-.6.6a.645.645,0,0,1-.915,0L.187,9a.645.645,0,0,1,0-.915L5.435,2.838a.645.645,0,0,1,.915,0l.6.6a.649.649,0,0,1-.011.926l-3.253,3.1h7.759a.646.646,0,0,1,.648.648v.864a.646.646,0,0,1-.648.648H3.686l3.253,3.1A.644.644,0,0,1,6.95,13.648Z" transform="translate(36.004 41.353)"/>
    <text id="vitrine_americanas" data-name="vitrine americanas" class="cls-4" transform="translate(59 56)"><tspan x="0" y="0">vitrine americanas</tspan></text>
    <g id="Grupo_6" data-name="Grupo 6" transform="translate(-297.412 27.02)">
      <path id="path2" class="cls-3" d="M405.962,233.282c1.525-.117,2.816-.588,2.816-1.76,0-1.759-1.642-1.759-2.816-1.877-2.228.117-2.463.938-2.932,2.463h-4.341c.351-5.162,4.106-5.983,7.273-5.983,3.4,0,7.274.938,7.274,4.81v10.323a1.733,1.733,0,0,0,.939,1.76v.7h-4.927a10.056,10.056,0,0,1-.353-1.994,7.419,7.419,0,0,1-5.4,2.581c-3.168,0-5.4-1.76-5.4-5.162,0-5.045,4.223-5.514,7.859-5.865Zm2.933,2.112c-1.877,1.29-6.217.469-6.217,3.519.118,1.524.821,2.112,2.229,2.112C408.191,240.437,409.013,239.5,408.9,235.393Zm32.849-2.464V243.84h-4.576V232.812A2.663,2.663,0,0,0,434.588,230c-2.347.352-2.7,1.525-2.933,3.519V243.84H427.08V233.516c.118-1.994-.47-3.519-2.464-3.519-2.933.117-2.933,1.525-2.933,3.4V243.84h-4.575V226.594h4.341v2.464a5.129,5.129,0,0,1,4.927-2.933,4.548,4.548,0,0,1,4.692,2.933,5.709,5.709,0,0,1,5.28-2.933c4.457.351,5.631,3.4,5.4,6.8Zm7.274,3.4c0,2.7,1.525,4.341,3.871,4.341a3.172,3.172,0,0,0,3.051-1.994h4.576c-.587,3.051-3.521,5.631-7.744,5.631-1.524,0-8.329-.469-8.329-9.033,0-6.688,3.989-9.151,8.1-9.151,4.341,0,8.212,2.112,8.094,10.206Zm.117-2.933h7.039a3.556,3.556,0,0,0-3.519-3.636c-2.464,0-3.286,1.759-3.4,3.636Zm24.519-7.273V230.7c-2.464-.117-5.514-.351-5.514,4.81v8.213h-4.458V226.477h4.223v3.051c1.643-2.933,3.284-3.519,5.631-3.4Zm2.7.351h4.576v17.246h-4.576Zm19.24,6.218c-.351-1.994-1.525-2.816-2.933-2.816-3.167,0-3.52,3.051-3.52,5.515,0,3.284,1.056,5.161,3.4,5.161,2.112-.117,2.582-.821,3.051-3.049h4.576c-.588,4.106-3.286,6.8-7.743,6.8-5.515-.117-7.978-3.4-7.978-8.916,0-6.219,3.167-9.268,8.094-9.386,5.4,0,7.391,2.7,7.743,6.57Zm14.43.588c1.408-.117,2.7-.588,2.7-1.76,0-1.76-1.643-1.76-2.815-1.877-2.229.116-2.464.938-2.816,2.463h-4.458c.352-4.223,2.933-5.983,7.509-5.983,3.4,0,7.155,1.173,7.155,4.927v10.206a1.733,1.733,0,0,0,.939,1.76v.7h-4.927a14.149,14.149,0,0,1-.351-1.994,7.421,7.421,0,0,1-5.4,2.581c-3.284-.117-5.4-1.76-5.4-5.162.117-3.871,2.463-5.4,7.86-5.865Zm2.7,2.112a7.651,7.651,0,0,1-3.05.938c-1.877.118-3.051.7-3.051,2.464.117,1.642.939,2.229,2.229,2.229C512.135,240.437,513.073,239.147,512.722,235.393Zm24.05-3.168V243.84H532.2V233.282c.118-2-.586-3.4-2.815-3.4-2.816,0-3.519,2.347-3.519,4.576v9.386h-4.575V226.594h4.458v2.463a5.477,5.477,0,0,1,5.161-2.932c3.286.116,5.866,1.29,5.866,6.1Zm10.793-2.581c-1.878.116-2.7.7-2.933,2.463h-4.341c.352-4.223,2.933-5.983,7.391-5.983,2.7,0,7.273.469,7.273,5.4v10.09a2.139,2.139,0,0,0,.821,1.525v.7h-4.81a6.809,6.809,0,0,1-.469-2.112,7.094,7.094,0,0,1-5.28,2.7c-3.051,0-5.4-1.878-5.4-5.162.117-4.106,2.463-5.045,6.335-5.749,1.877-.117,4.341-.351,4.341-1.877,0-1.878-1.525-1.878-2.933-1.994Zm-.235,6.686c-1.29.118-3.051.586-3.051,2.464s1.291,2.112,2.229,2.229c3.051-.235,3.99-1.643,3.99-5.631A8.794,8.794,0,0,1,547.33,236.331Zm15.017,1.994c.235,2.464,2.112,2.582,3.637,2.582s2.816-.47,2.816-1.643c.117-1.643-2.7-1.643-5.28-2.463-2.463-.588-5.4-1.525-5.279-4.927.234-4.458,3.871-5.749,7.156-5.749,4.927,0,7.273,1.994,7.508,5.631h-4.458c-.234-1.643-1.29-2.229-3.049-2.229-1.878,0-2.816.586-2.816,1.408,0,1.408,1.408,1.408,5.4,2.463,3.285.821,5.28,2.347,5.4,5.162-.234,4.458-3.4,5.866-7.743,5.866-4.927,0-7.743-2.112-7.86-6.1ZM398.219,217.561v4.223H574.782v-4.223Zm0,30.854v4.223H574.782v-4.223Z" transform="translate(0.292 6.458)"/>
      <g id="Grupo_5" data-name="Grupo 5" transform="translate(497.398 158.034)">
        <g id="Grupo_4" data-name="Grupo 4">
          <g id="Grupo_3" data-name="Grupo 3">
            <path id="Exclusão_1" data-name="Exclusão 1" class="cls-5" d="M-190.542-108.508h0l-5.918-5.919a1.665,1.665,0,0,1-.161-.189,9.278,9.278,0,0,1-3.238-7.807,9.369,9.369,0,0,1,8.656-8.608c.22-.015.443-.023.662-.023a9.356,9.356,0,0,1,9.346,9.345,9.341,9.341,0,0,1-3.265,7.093,1.658,1.658,0,0,1-.162.189l-5.919,5.919Zm0-18.594a5.217,5.217,0,0,0-5.211,5.211,5.216,5.216,0,0,0,5.211,5.21,5.216,5.216,0,0,0,5.21-5.21A5.216,5.216,0,0,0-190.541-127.1Z" transform="translate(199.886 131.054)"/>
          </g>
        </g>
      </g>
      <path id="Caminho_4" data-name="Caminho 4" class="cls-3" d="M417.7,180.7h6.853l-10.881,32.009h-7.4L395.412,180.7h6.853l6.021,19.048q.5,1.686,1.04,3.93t.668,3.119a56.038,56.038,0,0,1,1.642-7.049Z" transform="translate(0 2.459)"/>
      <path id="Caminho_5" data-name="Caminho 5" class="cls-3" d="M427.217,212.711V180.7H434v32.009Z" transform="translate(3.451 2.459)"/>
      <path id="Caminho_6" data-name="Caminho 6" class="cls-3" d="M453.263,212.711h-6.787v-26.36h-8.692V180.7h24.171v5.649h-8.692Z" transform="translate(4.597 2.459)"/>
      <path id="Caminho_7" data-name="Caminho 7" class="cls-3" d="M470.82,200.429v12.282h-6.787V180.7h9.327q6.525,0,9.655,2.375t3.132,7.214a8.491,8.491,0,0,1-1.555,5.025,10.292,10.292,0,0,1-4.4,3.449q7.225,10.793,9.414,13.946h-7.531l-7.642-12.282Zm0-5.517h2.189a8.371,8.371,0,0,0,4.75-1.073,3.827,3.827,0,0,0,1.534-3.372,3.5,3.5,0,0,0-1.566-3.24,9.5,9.5,0,0,0-4.85-.963H470.82Z" transform="translate(7.445 2.459)"/>
      <path id="Caminho_8" data-name="Caminho 8" class="cls-3" d="M492.618,212.711V180.7h6.787v32.009Z" transform="translate(10.547 2.459)"/>
      <path id="Caminho_9" data-name="Caminho 9" class="cls-3" d="M536.287,212.711H527.66L513.735,188.5h-.2q.416,6.417.417,9.152v15.063H507.89V180.7h8.561l13.9,23.975h.154q-.331-6.24-.329-8.824V180.7h6.109Z" transform="translate(12.204 2.459)"/>
      <path id="Caminho_10" data-name="Caminho 10" class="cls-3" d="M559.21,212.711H540.775V180.7H559.21v5.561H547.562v7.028H558.4v5.561H547.562v8.254H559.21Z" transform="translate(15.772 2.459)"/>
    </g>
    <rect id="Retângulo_8" data-name="Retângulo 8" class="cls-6" width="375" height="52" transform="translate(0 760)"/>
    <g id="Grupo_10" data-name="Grupo 10" transform="translate(0.5)">
      <g id="Retângulo_9" data-name="Retângulo 9" class="cls-7" transform="translate(178 774)">
        <rect class="cls-12" width="20" height="20" rx="6"/>
        <rect class="cls-13" x="1" y="1" width="18" height="18" rx="5"/>
      </g>
      <g id="Grupo_9" data-name="Grupo 9" transform="translate(0 -1.5)">
        <line id="Linha_2" data-name="Linha 2" class="cls-8" y2="15" transform="translate(77.5 778.5)"/>
        <line id="Linha_3" data-name="Linha 3" class="cls-8" y2="15" transform="translate(85.5 778.5)"/>
        <line id="Linha_4" data-name="Linha 4" class="cls-8" y2="15" transform="translate(92.5 778.5)"/>
      </g>
      <path id="Caminho_11" data-name="Caminho 11" class="cls-8" d="M872.2,762.8l-7.6,7.6,7.6,7.6" transform="translate(-575 13.7)"/>
    </g>
    <g id="TOPO_HORÁRIO" data-name="TOPO HORÁRIO" transform="translate(19 2)">
      <g id="Grupo_14" data-name="Grupo 14" transform="translate(-17 -14)">
        <path id="Icon_awesome-battery-three-quarters" data-name="Icon awesome-battery-three-quarters" class="cls-3" d="M17.341,8.79v2.04h1.02v2.04h-1.02v2.04H2.04V8.79h15.3m.51-2.04H1.53A1.53,1.53,0,0,0,0,8.28v7.14a1.53,1.53,0,0,0,1.53,1.53H17.851a1.53,1.53,0,0,0,1.53-1.53v-.51h.255a.765.765,0,0,0,.765-.765V9.555a.765.765,0,0,0-.765-.765h-.255V8.28A1.53,1.53,0,0,0,17.851,6.75Zm-4.59,3.06H3.06v4.08h10.2Z" transform="translate(333.118 13.05)"/>
        <path id="Icon_awesome-wifi" data-name="Icon awesome-wifi" class="cls-3" d="M15.508,5.251a11.357,11.357,0,0,0-15.383,0,.388.388,0,0,0-.009.561l.836.83a.4.4,0,0,0,.547.009,9.371,9.371,0,0,1,12.634,0,.4.4,0,0,0,.547-.009l.836-.83a.388.388,0,0,0-.009-.561ZM7.816,10.066a1.563,1.563,0,1,0,1.563,1.563A1.563,1.563,0,0,0,7.816,10.066Zm4.95-2.042a7.5,7.5,0,0,0-9.9,0,.386.386,0,0,0-.014.565l.841.83a.4.4,0,0,0,.539.02,5.5,5.5,0,0,1,7.168,0,.4.4,0,0,0,.539-.02l.841-.83A.386.386,0,0,0,12.766,8.024Z" transform="translate(306.487 16.808)"/>
        <text id="_16:00" data-name="16:00" class="cls-4" transform="translate(17 30)"><tspan x="0" y="0">16:00</tspan></text>
        <text id="_16:00-2" data-name="16:00" class="cls-4" transform="translate(17 30)"><tspan x="0" y="0">16:00</tspan></text>
      </g>
    </g>
    <g id="botão_facebook" data-name="botão facebook" transform="translate(65 475)">
      <path id="Caminho_13" data-name="Caminho 13" class="cls-9" d="M20,0H225a20,20,0,0,1,0,40H20A20,20,0,0,1,20,0Z"/>
    </g>
    <g id="botão_branco" data-name="botão branco" transform="translate(65 423)">
      <path id="Caminho_14" data-name="Caminho 14" class="cls-3" d="M20,0H225a20,20,0,0,1,0,40H20A20,20,0,0,1,20,0Z"/>
    </g>
    <text id="LOGIN-2" data-name="LOGIN" class="cls-10" transform="translate(165 449)"><tspan x="0" y="0">LOGIN</tspan></text>
    <text id="ENTRAR_COM_FACEBOOK" data-name="ENTRAR COM FACEBOOK" class="cls-11" transform="translate(101 501)"><tspan x="0" y="0">ENTRAR COM FACEBOOK</tspan></text>
    <text id="Não_sou_cadastrado" data-name="Não sou cadastrado" class="cls-11" transform="translate(120 543)"><tspan x="0" y="0">Não sou cadastrado</tspan></text>
    <g id="Grupo_75" data-name="Grupo 75" transform="translate(-297.412 27.02)">
      <path id="path2-2" data-name="path2" class="cls-3" d="M405.962,233.282c1.525-.117,2.816-.588,2.816-1.76,0-1.759-1.642-1.759-2.816-1.877-2.228.117-2.463.938-2.932,2.463h-4.341c.351-5.162,4.106-5.983,7.273-5.983,3.4,0,7.274.938,7.274,4.81v10.323a1.733,1.733,0,0,0,.939,1.76v.7h-4.927a10.056,10.056,0,0,1-.353-1.994,7.419,7.419,0,0,1-5.4,2.581c-3.168,0-5.4-1.76-5.4-5.162,0-5.045,4.223-5.514,7.859-5.865Zm2.933,2.112c-1.877,1.29-6.217.469-6.217,3.519.118,1.524.821,2.112,2.229,2.112C408.191,240.437,409.013,239.5,408.9,235.393Zm32.849-2.464V243.84h-4.576V232.812A2.663,2.663,0,0,0,434.588,230c-2.347.352-2.7,1.525-2.933,3.519V243.84H427.08V233.516c.118-1.994-.47-3.519-2.464-3.519-2.933.117-2.933,1.525-2.933,3.4V243.84h-4.575V226.594h4.341v2.464a5.129,5.129,0,0,1,4.927-2.933,4.548,4.548,0,0,1,4.692,2.933,5.709,5.709,0,0,1,5.28-2.933c4.457.351,5.631,3.4,5.4,6.8Zm7.274,3.4c0,2.7,1.525,4.341,3.871,4.341a3.172,3.172,0,0,0,3.051-1.994h4.576c-.587,3.051-3.521,5.631-7.744,5.631-1.524,0-8.329-.469-8.329-9.033,0-6.688,3.989-9.151,8.1-9.151,4.341,0,8.212,2.112,8.094,10.206Zm.117-2.933h7.039a3.556,3.556,0,0,0-3.519-3.636c-2.464,0-3.286,1.759-3.4,3.636Zm24.519-7.273V230.7c-2.464-.117-5.514-.351-5.514,4.81v8.213h-4.458V226.477h4.223v3.051c1.643-2.933,3.284-3.519,5.631-3.4Zm2.7.351h4.576v17.246h-4.576Zm19.24,6.218c-.351-1.994-1.525-2.816-2.933-2.816-3.167,0-3.52,3.051-3.52,5.515,0,3.284,1.056,5.161,3.4,5.161,2.112-.117,2.582-.821,3.051-3.049h4.576c-.588,4.106-3.286,6.8-7.743,6.8-5.515-.117-7.978-3.4-7.978-8.916,0-6.219,3.167-9.268,8.094-9.386,5.4,0,7.391,2.7,7.743,6.57Zm14.43.588c1.408-.117,2.7-.588,2.7-1.76,0-1.76-1.643-1.76-2.815-1.877-2.229.116-2.464.938-2.816,2.463h-4.458c.352-4.223,2.933-5.983,7.509-5.983,3.4,0,7.155,1.173,7.155,4.927v10.206a1.733,1.733,0,0,0,.939,1.76v.7h-4.927a14.149,14.149,0,0,1-.351-1.994,7.421,7.421,0,0,1-5.4,2.581c-3.284-.117-5.4-1.76-5.4-5.162.117-3.871,2.463-5.4,7.86-5.865Zm2.7,2.112a7.651,7.651,0,0,1-3.05.938c-1.877.118-3.051.7-3.051,2.464.117,1.642.939,2.229,2.229,2.229C512.135,240.437,513.073,239.147,512.722,235.393Zm24.05-3.168V243.84H532.2V233.282c.118-2-.586-3.4-2.815-3.4-2.816,0-3.519,2.347-3.519,4.576v9.386h-4.575V226.594h4.458v2.463a5.477,5.477,0,0,1,5.161-2.932c3.286.116,5.866,1.29,5.866,6.1Zm10.793-2.581c-1.878.116-2.7.7-2.933,2.463h-4.341c.352-4.223,2.933-5.983,7.391-5.983,2.7,0,7.273.469,7.273,5.4v10.09a2.139,2.139,0,0,0,.821,1.525v.7h-4.81a6.809,6.809,0,0,1-.469-2.112,7.094,7.094,0,0,1-5.28,2.7c-3.051,0-5.4-1.878-5.4-5.162.117-4.106,2.463-5.045,6.335-5.749,1.877-.117,4.341-.351,4.341-1.877,0-1.878-1.525-1.878-2.933-1.994Zm-.235,6.686c-1.29.118-3.051.586-3.051,2.464s1.291,2.112,2.229,2.229c3.051-.235,3.99-1.643,3.99-5.631A8.794,8.794,0,0,1,547.33,236.331Zm15.017,1.994c.235,2.464,2.112,2.582,3.637,2.582s2.816-.47,2.816-1.643c.117-1.643-2.7-1.643-5.28-2.463-2.463-.588-5.4-1.525-5.279-4.927.234-4.458,3.871-5.749,7.156-5.749,4.927,0,7.273,1.994,7.508,5.631h-4.458c-.234-1.643-1.29-2.229-3.049-2.229-1.878,0-2.816.586-2.816,1.408,0,1.408,1.408,1.408,5.4,2.463,3.285.821,5.28,2.347,5.4,5.162-.234,4.458-3.4,5.866-7.743,5.866-4.927,0-7.743-2.112-7.86-6.1ZM398.219,217.561v4.223H574.782v-4.223Zm0,30.854v4.223H574.782v-4.223Z" transform="translate(0.292 6.458)"/>
      <g id="Grupo_5-2" data-name="Grupo 5" transform="translate(497.398 158.034)">
        <g id="Grupo_4-2" data-name="Grupo 4">
          <g id="Grupo_3-2" data-name="Grupo 3">
            <path id="Exclusão_1-2" data-name="Exclusão 1" class="cls-5" d="M-190.542-108.508h0l-5.918-5.919a1.665,1.665,0,0,1-.161-.189,9.278,9.278,0,0,1-3.238-7.807,9.369,9.369,0,0,1,8.656-8.608c.22-.015.443-.023.662-.023a9.356,9.356,0,0,1,9.346,9.345,9.341,9.341,0,0,1-3.265,7.093,1.658,1.658,0,0,1-.162.189l-5.919,5.919Zm0-18.594a5.217,5.217,0,0,0-5.211,5.211,5.216,5.216,0,0,0,5.211,5.21,5.216,5.216,0,0,0,5.21-5.21A5.216,5.216,0,0,0-190.541-127.1Z" transform="translate(199.886 131.054)"/>
          </g>
        </g>
      </g>
      <path id="Caminho_4-2" data-name="Caminho 4" class="cls-3" d="M417.7,180.7h6.853l-10.881,32.009h-7.4L395.412,180.7h6.853l6.021,19.048q.5,1.686,1.04,3.93t.668,3.119a56.038,56.038,0,0,1,1.642-7.049Z" transform="translate(0 2.459)"/>
      <path id="Caminho_5-2" data-name="Caminho 5" class="cls-3" d="M427.217,212.711V180.7H434v32.009Z" transform="translate(3.451 2.459)"/>
      <path id="Caminho_6-2" data-name="Caminho 6" class="cls-3" d="M453.263,212.711h-6.787v-26.36h-8.692V180.7h24.171v5.649h-8.692Z" transform="translate(4.597 2.459)"/>
      <path id="Caminho_7-2" data-name="Caminho 7" class="cls-3" d="M470.82,200.429v12.282h-6.787V180.7h9.327q6.525,0,9.655,2.375t3.132,7.214a8.491,8.491,0,0,1-1.555,5.025,10.292,10.292,0,0,1-4.4,3.449q7.225,10.793,9.414,13.946h-7.531l-7.642-12.282Zm0-5.517h2.189a8.371,8.371,0,0,0,4.75-1.073,3.827,3.827,0,0,0,1.534-3.372,3.5,3.5,0,0,0-1.566-3.24,9.5,9.5,0,0,0-4.85-.963H470.82Z" transform="translate(7.445 2.459)"/>
      <path id="Caminho_8-2" data-name="Caminho 8" class="cls-3" d="M492.618,212.711V180.7h6.787v32.009Z" transform="translate(10.547 2.459)"/>
      <path id="Caminho_9-2" data-name="Caminho 9" class="cls-3" d="M536.287,212.711H527.66L513.735,188.5h-.2q.416,6.417.417,9.152v15.063H507.89V180.7h8.561l13.9,23.975h.154q-.331-6.24-.329-8.824V180.7h6.109Z" transform="translate(12.204 2.459)"/>
      <path id="Caminho_10-2" data-name="Caminho 10" class="cls-3" d="M559.21,212.711H540.775V180.7H559.21v5.561H547.562v7.028H558.4v5.561H547.562v8.254H559.21Z" transform="translate(15.772 2.459)"/>
    </g>
    <g id="Grupo_82" data-name="Grupo 82" transform="translate(-297.412 27.02)">
      <path id="path2-3" data-name="path2" class="cls-3" d="M405.962,233.282c1.525-.117,2.816-.588,2.816-1.76,0-1.759-1.642-1.759-2.816-1.877-2.228.117-2.463.938-2.932,2.463h-4.341c.351-5.162,4.106-5.983,7.273-5.983,3.4,0,7.274.938,7.274,4.81v10.323a1.733,1.733,0,0,0,.939,1.76v.7h-4.927a10.056,10.056,0,0,1-.353-1.994,7.419,7.419,0,0,1-5.4,2.581c-3.168,0-5.4-1.76-5.4-5.162,0-5.045,4.223-5.514,7.859-5.865Zm2.933,2.112c-1.877,1.29-6.217.469-6.217,3.519.118,1.524.821,2.112,2.229,2.112C408.191,240.437,409.013,239.5,408.9,235.393Zm32.849-2.464V243.84h-4.576V232.812A2.663,2.663,0,0,0,434.588,230c-2.347.352-2.7,1.525-2.933,3.519V243.84H427.08V233.516c.118-1.994-.47-3.519-2.464-3.519-2.933.117-2.933,1.525-2.933,3.4V243.84h-4.575V226.594h4.341v2.464a5.129,5.129,0,0,1,4.927-2.933,4.548,4.548,0,0,1,4.692,2.933,5.709,5.709,0,0,1,5.28-2.933c4.457.351,5.631,3.4,5.4,6.8Zm7.274,3.4c0,2.7,1.525,4.341,3.871,4.341a3.172,3.172,0,0,0,3.051-1.994h4.576c-.587,3.051-3.521,5.631-7.744,5.631-1.524,0-8.329-.469-8.329-9.033,0-6.688,3.989-9.151,8.1-9.151,4.341,0,8.212,2.112,8.094,10.206Zm.117-2.933h7.039a3.556,3.556,0,0,0-3.519-3.636c-2.464,0-3.286,1.759-3.4,3.636Zm24.519-7.273V230.7c-2.464-.117-5.514-.351-5.514,4.81v8.213h-4.458V226.477h4.223v3.051c1.643-2.933,3.284-3.519,5.631-3.4Zm2.7.351h4.576v17.246h-4.576Zm19.24,6.218c-.351-1.994-1.525-2.816-2.933-2.816-3.167,0-3.52,3.051-3.52,5.515,0,3.284,1.056,5.161,3.4,5.161,2.112-.117,2.582-.821,3.051-3.049h4.576c-.588,4.106-3.286,6.8-7.743,6.8-5.515-.117-7.978-3.4-7.978-8.916,0-6.219,3.167-9.268,8.094-9.386,5.4,0,7.391,2.7,7.743,6.57Zm14.43.588c1.408-.117,2.7-.588,2.7-1.76,0-1.76-1.643-1.76-2.815-1.877-2.229.116-2.464.938-2.816,2.463h-4.458c.352-4.223,2.933-5.983,7.509-5.983,3.4,0,7.155,1.173,7.155,4.927v10.206a1.733,1.733,0,0,0,.939,1.76v.7h-4.927a14.149,14.149,0,0,1-.351-1.994,7.421,7.421,0,0,1-5.4,2.581c-3.284-.117-5.4-1.76-5.4-5.162.117-3.871,2.463-5.4,7.86-5.865Zm2.7,2.112a7.651,7.651,0,0,1-3.05.938c-1.877.118-3.051.7-3.051,2.464.117,1.642.939,2.229,2.229,2.229C512.135,240.437,513.073,239.147,512.722,235.393Zm24.05-3.168V243.84H532.2V233.282c.118-2-.586-3.4-2.815-3.4-2.816,0-3.519,2.347-3.519,4.576v9.386h-4.575V226.594h4.458v2.463a5.477,5.477,0,0,1,5.161-2.932c3.286.116,5.866,1.29,5.866,6.1Zm10.793-2.581c-1.878.116-2.7.7-2.933,2.463h-4.341c.352-4.223,2.933-5.983,7.391-5.983,2.7,0,7.273.469,7.273,5.4v10.09a2.139,2.139,0,0,0,.821,1.525v.7h-4.81a6.809,6.809,0,0,1-.469-2.112,7.094,7.094,0,0,1-5.28,2.7c-3.051,0-5.4-1.878-5.4-5.162.117-4.106,2.463-5.045,6.335-5.749,1.877-.117,4.341-.351,4.341-1.877,0-1.878-1.525-1.878-2.933-1.994Zm-.235,6.686c-1.29.118-3.051.586-3.051,2.464s1.291,2.112,2.229,2.229c3.051-.235,3.99-1.643,3.99-5.631A8.794,8.794,0,0,1,547.33,236.331Zm15.017,1.994c.235,2.464,2.112,2.582,3.637,2.582s2.816-.47,2.816-1.643c.117-1.643-2.7-1.643-5.28-2.463-2.463-.588-5.4-1.525-5.279-4.927.234-4.458,3.871-5.749,7.156-5.749,4.927,0,7.273,1.994,7.508,5.631h-4.458c-.234-1.643-1.29-2.229-3.049-2.229-1.878,0-2.816.586-2.816,1.408,0,1.408,1.408,1.408,5.4,2.463,3.285.821,5.28,2.347,5.4,5.162-.234,4.458-3.4,5.866-7.743,5.866-4.927,0-7.743-2.112-7.86-6.1ZM398.219,217.561v4.223H574.782v-4.223Zm0,30.854v4.223H574.782v-4.223Z" transform="translate(0.292 6.458)"/>
      <g id="Grupo_5-3" data-name="Grupo 5" transform="translate(497.398 158.034)">
        <g id="Grupo_4-3" data-name="Grupo 4">
          <g id="Grupo_3-3" data-name="Grupo 3">
            <path id="Exclusão_1-3" data-name="Exclusão 1" class="cls-5" d="M-190.542-108.508h0l-5.918-5.919a1.665,1.665,0,0,1-.161-.189,9.278,9.278,0,0,1-3.238-7.807,9.369,9.369,0,0,1,8.656-8.608c.22-.015.443-.023.662-.023a9.356,9.356,0,0,1,9.346,9.345,9.341,9.341,0,0,1-3.265,7.093,1.658,1.658,0,0,1-.162.189l-5.919,5.919Zm0-18.594a5.217,5.217,0,0,0-5.211,5.211,5.216,5.216,0,0,0,5.211,5.21,5.216,5.216,0,0,0,5.21-5.21A5.216,5.216,0,0,0-190.541-127.1Z" transform="translate(199.886 131.054)"/>
          </g>
        </g>
      </g>
      <path id="Caminho_4-3" data-name="Caminho 4" class="cls-3" d="M417.7,180.7h6.853l-10.881,32.009h-7.4L395.412,180.7h6.853l6.021,19.048q.5,1.686,1.04,3.93t.668,3.119a56.038,56.038,0,0,1,1.642-7.049Z" transform="translate(0 2.459)"/>
      <path id="Caminho_5-3" data-name="Caminho 5" class="cls-3" d="M427.217,212.711V180.7H434v32.009Z" transform="translate(3.451 2.459)"/>
      <path id="Caminho_6-3" data-name="Caminho 6" class="cls-3" d="M453.263,212.711h-6.787v-26.36h-8.692V180.7h24.171v5.649h-8.692Z" transform="translate(4.597 2.459)"/>
      <path id="Caminho_7-3" data-name="Caminho 7" class="cls-3" d="M470.82,200.429v12.282h-6.787V180.7h9.327q6.525,0,9.655,2.375t3.132,7.214a8.491,8.491,0,0,1-1.555,5.025,10.292,10.292,0,0,1-4.4,3.449q7.225,10.793,9.414,13.946h-7.531l-7.642-12.282Zm0-5.517h2.189a8.371,8.371,0,0,0,4.75-1.073,3.827,3.827,0,0,0,1.534-3.372,3.5,3.5,0,0,0-1.566-3.24,9.5,9.5,0,0,0-4.85-.963H470.82Z" transform="translate(7.445 2.459)"/>
      <path id="Caminho_8-3" data-name="Caminho 8" class="cls-3" d="M492.618,212.711V180.7h6.787v32.009Z" transform="translate(10.547 2.459)"/>
      <path id="Caminho_9-3" data-name="Caminho 9" class="cls-3" d="M536.287,212.711H527.66L513.735,188.5h-.2q.416,6.417.417,9.152v15.063H507.89V180.7h8.561l13.9,23.975h.154q-.331-6.24-.329-8.824V180.7h6.109Z" transform="translate(12.204 2.459)"/>
      <path id="Caminho_10-3" data-name="Caminho 10" class="cls-3" d="M559.21,212.711H540.775V180.7H559.21v5.561H547.562v7.028H558.4v5.561H547.562v8.254H559.21Z" transform="translate(15.772 2.459)"/>
    </g>
    <g id="Grupo_83" data-name="Grupo 83" transform="translate(-297.412 27.02)">
      <path id="path2-4" data-name="path2" class="cls-3" d="M405.962,233.282c1.525-.117,2.816-.588,2.816-1.76,0-1.759-1.642-1.759-2.816-1.877-2.228.117-2.463.938-2.932,2.463h-4.341c.351-5.162,4.106-5.983,7.273-5.983,3.4,0,7.274.938,7.274,4.81v10.323a1.733,1.733,0,0,0,.939,1.76v.7h-4.927a10.056,10.056,0,0,1-.353-1.994,7.419,7.419,0,0,1-5.4,2.581c-3.168,0-5.4-1.76-5.4-5.162,0-5.045,4.223-5.514,7.859-5.865Zm2.933,2.112c-1.877,1.29-6.217.469-6.217,3.519.118,1.524.821,2.112,2.229,2.112C408.191,240.437,409.013,239.5,408.9,235.393Zm32.849-2.464V243.84h-4.576V232.812A2.663,2.663,0,0,0,434.588,230c-2.347.352-2.7,1.525-2.933,3.519V243.84H427.08V233.516c.118-1.994-.47-3.519-2.464-3.519-2.933.117-2.933,1.525-2.933,3.4V243.84h-4.575V226.594h4.341v2.464a5.129,5.129,0,0,1,4.927-2.933,4.548,4.548,0,0,1,4.692,2.933,5.709,5.709,0,0,1,5.28-2.933c4.457.351,5.631,3.4,5.4,6.8Zm7.274,3.4c0,2.7,1.525,4.341,3.871,4.341a3.172,3.172,0,0,0,3.051-1.994h4.576c-.587,3.051-3.521,5.631-7.744,5.631-1.524,0-8.329-.469-8.329-9.033,0-6.688,3.989-9.151,8.1-9.151,4.341,0,8.212,2.112,8.094,10.206Zm.117-2.933h7.039a3.556,3.556,0,0,0-3.519-3.636c-2.464,0-3.286,1.759-3.4,3.636Zm24.519-7.273V230.7c-2.464-.117-5.514-.351-5.514,4.81v8.213h-4.458V226.477h4.223v3.051c1.643-2.933,3.284-3.519,5.631-3.4Zm2.7.351h4.576v17.246h-4.576Zm19.24,6.218c-.351-1.994-1.525-2.816-2.933-2.816-3.167,0-3.52,3.051-3.52,5.515,0,3.284,1.056,5.161,3.4,5.161,2.112-.117,2.582-.821,3.051-3.049h4.576c-.588,4.106-3.286,6.8-7.743,6.8-5.515-.117-7.978-3.4-7.978-8.916,0-6.219,3.167-9.268,8.094-9.386,5.4,0,7.391,2.7,7.743,6.57Zm14.43.588c1.408-.117,2.7-.588,2.7-1.76,0-1.76-1.643-1.76-2.815-1.877-2.229.116-2.464.938-2.816,2.463h-4.458c.352-4.223,2.933-5.983,7.509-5.983,3.4,0,7.155,1.173,7.155,4.927v10.206a1.733,1.733,0,0,0,.939,1.76v.7h-4.927a14.149,14.149,0,0,1-.351-1.994,7.421,7.421,0,0,1-5.4,2.581c-3.284-.117-5.4-1.76-5.4-5.162.117-3.871,2.463-5.4,7.86-5.865Zm2.7,2.112a7.651,7.651,0,0,1-3.05.938c-1.877.118-3.051.7-3.051,2.464.117,1.642.939,2.229,2.229,2.229C512.135,240.437,513.073,239.147,512.722,235.393Zm24.05-3.168V243.84H532.2V233.282c.118-2-.586-3.4-2.815-3.4-2.816,0-3.519,2.347-3.519,4.576v9.386h-4.575V226.594h4.458v2.463a5.477,5.477,0,0,1,5.161-2.932c3.286.116,5.866,1.29,5.866,6.1Zm10.793-2.581c-1.878.116-2.7.7-2.933,2.463h-4.341c.352-4.223,2.933-5.983,7.391-5.983,2.7,0,7.273.469,7.273,5.4v10.09a2.139,2.139,0,0,0,.821,1.525v.7h-4.81a6.809,6.809,0,0,1-.469-2.112,7.094,7.094,0,0,1-5.28,2.7c-3.051,0-5.4-1.878-5.4-5.162.117-4.106,2.463-5.045,6.335-5.749,1.877-.117,4.341-.351,4.341-1.877,0-1.878-1.525-1.878-2.933-1.994Zm-.235,6.686c-1.29.118-3.051.586-3.051,2.464s1.291,2.112,2.229,2.229c3.051-.235,3.99-1.643,3.99-5.631A8.794,8.794,0,0,1,547.33,236.331Zm15.017,1.994c.235,2.464,2.112,2.582,3.637,2.582s2.816-.47,2.816-1.643c.117-1.643-2.7-1.643-5.28-2.463-2.463-.588-5.4-1.525-5.279-4.927.234-4.458,3.871-5.749,7.156-5.749,4.927,0,7.273,1.994,7.508,5.631h-4.458c-.234-1.643-1.29-2.229-3.049-2.229-1.878,0-2.816.586-2.816,1.408,0,1.408,1.408,1.408,5.4,2.463,3.285.821,5.28,2.347,5.4,5.162-.234,4.458-3.4,5.866-7.743,5.866-4.927,0-7.743-2.112-7.86-6.1ZM398.219,217.561v4.223H574.782v-4.223Zm0,30.854v4.223H574.782v-4.223Z" transform="translate(0.292 6.458)"/>
      <g id="Grupo_5-4" data-name="Grupo 5" transform="translate(497.398 158.034)">
        <g id="Grupo_4-4" data-name="Grupo 4">
          <g id="Grupo_3-4" data-name="Grupo 3">
            <path id="Exclusão_1-4" data-name="Exclusão 1" class="cls-5" d="M-190.542-108.508h0l-5.918-5.919a1.665,1.665,0,0,1-.161-.189,9.278,9.278,0,0,1-3.238-7.807,9.369,9.369,0,0,1,8.656-8.608c.22-.015.443-.023.662-.023a9.356,9.356,0,0,1,9.346,9.345,9.341,9.341,0,0,1-3.265,7.093,1.658,1.658,0,0,1-.162.189l-5.919,5.919Zm0-18.594a5.217,5.217,0,0,0-5.211,5.211,5.216,5.216,0,0,0,5.211,5.21,5.216,5.216,0,0,0,5.21-5.21A5.216,5.216,0,0,0-190.541-127.1Z" transform="translate(199.886 131.054)"/>
          </g>
        </g>
      </g>
      <path id="Caminho_4-4" data-name="Caminho 4" class="cls-3" d="M417.7,180.7h6.853l-10.881,32.009h-7.4L395.412,180.7h6.853l6.021,19.048q.5,1.686,1.04,3.93t.668,3.119a56.038,56.038,0,0,1,1.642-7.049Z" transform="translate(0 2.459)"/>
      <path id="Caminho_5-4" data-name="Caminho 5" class="cls-3" d="M427.217,212.711V180.7H434v32.009Z" transform="translate(3.451 2.459)"/>
      <path id="Caminho_6-4" data-name="Caminho 6" class="cls-3" d="M453.263,212.711h-6.787v-26.36h-8.692V180.7h24.171v5.649h-8.692Z" transform="translate(4.597 2.459)"/>
      <path id="Caminho_7-4" data-name="Caminho 7" class="cls-3" d="M470.82,200.429v12.282h-6.787V180.7h9.327q6.525,0,9.655,2.375t3.132,7.214a8.491,8.491,0,0,1-1.555,5.025,10.292,10.292,0,0,1-4.4,3.449q7.225,10.793,9.414,13.946h-7.531l-7.642-12.282Zm0-5.517h2.189a8.371,8.371,0,0,0,4.75-1.073,3.827,3.827,0,0,0,1.534-3.372,3.5,3.5,0,0,0-1.566-3.24,9.5,9.5,0,0,0-4.85-.963H470.82Z" transform="translate(7.445 2.459)"/>
      <path id="Caminho_8-4" data-name="Caminho 8" class="cls-3" d="M492.618,212.711V180.7h6.787v32.009Z" transform="translate(10.547 2.459)"/>
      <path id="Caminho_9-4" data-name="Caminho 9" class="cls-3" d="M536.287,212.711H527.66L513.735,188.5h-.2q.416,6.417.417,9.152v15.063H507.89V180.7h8.561l13.9,23.975h.154q-.331-6.24-.329-8.824V180.7h6.109Z" transform="translate(12.204 2.459)"/>
      <path id="Caminho_10-4" data-name="Caminho 10" class="cls-3" d="M559.21,212.711H540.775V180.7H559.21v5.561H547.562v7.028H558.4v5.561H547.562v8.254H559.21Z" transform="translate(15.772 2.459)"/>
    </g>
  </g>
</svg>
