<svg id="Camada_1" data-name="Camada 1" xmlns="http://www.w3.org/2000/svg" viewBox="0 0 250 145"><defs><style>.cls-1{fill:#f57c00;}</style></defs><path class="cls-1" d="M123.08,104.47a.81.81,0,0,0,.43.73,2.32,2.32,0,0,0,1.19.25,3.59,3.59,0,0,0,1.78-.34,1,1,0,0,0,.58-.91.67.67,0,0,0-.32-.63,2.51,2.51,0,0,0-1.19-.19h-1.1a1.61,1.61,0,0,0-1,.29A1,1,0,0,0,123.08,104.47Z"/><path class="cls-1" d="M125,97.35a1.24,1.24,0,0,0-1,.36,1.55,1.55,0,0,0-.32,1.05,1.38,1.38,0,0,0,.33,1,1.26,1.26,0,0,0,.95.35c.85,0,1.27-.45,1.27-1.36a1.53,1.53,0,0,0-.31-1A1.21,1.21,0,0,0,125,97.35Z"/><path class="cls-1" d="M116.8,100.5a1.06,1.06,0,0,0-.47.94.94.94,0,0,0,.27.72,1.24,1.24,0,0,0,.82.25,1.8,1.8,0,0,0,1.28-.45,1.6,1.6,0,0,0,.48-1.24v-.6l-.88,0A3,3,0,0,0,116.8,100.5Z"/><path class="cls-1" d="M131.25,100.5a1.06,1.06,0,0,0-.47.94.94.94,0,0,0,.27.72,1.24,1.24,0,0,0,.82.25,1.8,1.8,0,0,0,1.28-.45,1.6,1.6,0,0,0,.48-1.24v-.6l-.88,0A3,3,0,0,0,131.25,100.5Z"/><path class="cls-1" d="M110.15,95.56h-1v3.2h.79a2.86,2.86,0,0,0,1.68-.4,1.44,1.44,0,0,0,.53-1.24,1.41,1.41,0,0,0-.47-1.17A2.35,2.35,0,0,0,110.15,95.56Z"/><path class="cls-1" d="M124,30a45,45,0,1,0,45,45A45,45,0,0,0,124,30ZM112.71,99.25a4.12,4.12,0,0,1-2.65.75h-1v3.4h-1.48V94.32h2.62a4,4,0,0,1,2.54.7,2.47,2.47,0,0,1,.85,2A2.65,2.65,0,0,1,112.71,99.25Zm7.93,4.15h-1l-.29-1h0a3,3,0,0,1-1,.85,3.22,3.22,0,0,1-1.3.23,2.22,2.22,0,0,1-1.58-.55,2,2,0,0,1-.56-1.55,1.82,1.82,0,0,1,.78-1.6,4.55,4.55,0,0,1,2.41-.59l1.18,0v-.36a1.43,1.43,0,0,0-.3-1,1.31,1.31,0,0,0-1-.32,3.38,3.38,0,0,0-1,.15,9.47,9.47,0,0,0-.93.37l-.47-1a4.8,4.8,0,0,1,1.22-.45,5.67,5.67,0,0,1,1.25-.15,3,3,0,0,1,2,.57,2.23,2.23,0,0,1,.67,1.8Zm7.84-6.06-1.18.21a1.82,1.82,0,0,1,.27.54,2.21,2.21,0,0,1-.63,2.34,3.1,3.1,0,0,1-2,.61,3.61,3.61,0,0,1-.59-.05.8.8,0,0,0-.47.68.37.37,0,0,0,.22.35,1.83,1.83,0,0,0,.81.12h1.2a2.61,2.61,0,0,1,1.72.49,1.66,1.66,0,0,1,.59,1.39,2,2,0,0,1-1,1.8,5,5,0,0,1-2.78.64,3.82,3.82,0,0,1-2.14-.5,1.59,1.59,0,0,1-.74-1.42,1.49,1.49,0,0,1,.4-1.06,2.09,2.09,0,0,1,1.12-.6,1,1,0,0,1-.48-.4,1,1,0,0,1-.19-.58,1,1,0,0,1,.21-.65,2.61,2.61,0,0,1,.65-.53,1.9,1.9,0,0,1-.87-.75,2.45,2.45,0,0,1,.38-3,3,3,0,0,1,2-.61,4.45,4.45,0,0,1,.61,0,4.69,4.69,0,0,1,.48.08h2.38Zm6.61,6.06h-1l-.3-1h0a2.93,2.93,0,0,1-1,.85,3.14,3.14,0,0,1-1.29.23,2.22,2.22,0,0,1-1.58-.55,2,2,0,0,1-.56-1.55,1.82,1.82,0,0,1,.78-1.6,4.55,4.55,0,0,1,2.41-.59l1.18,0v-.36a1.43,1.43,0,0,0-.3-1,1.31,1.31,0,0,0-1-.32,3.38,3.38,0,0,0-1,.15,9.47,9.47,0,0,0-.93.37L130,97a4.8,4.8,0,0,1,1.22-.45,5.69,5.69,0,0,1,1.26-.15,3,3,0,0,1,2,.57,2.23,2.23,0,0,1,.67,1.8Zm6.1-5.57a2.67,2.67,0,0,0-.64-.07,1.86,1.86,0,0,0-1.42.57,2.06,2.06,0,0,0-.54,1.48v3.59h-1.46V96.53h1.14l.19,1.21h.08a2.68,2.68,0,0,1,.89-1,2.1,2.1,0,0,1,1.18-.36,3.69,3.69,0,0,1,.73.06ZM148,63.75,127.32,84.33a4.44,4.44,0,0,1-6.23,0L100.38,63.75a5.1,5.1,0,0,1,.23-7h0L107.49,50a4.39,4.39,0,0,1,3.08-1.27h27.27A4.42,4.42,0,0,1,140.93,50l6.87,6.83h0A5.09,5.09,0,0,1,148,63.75Z"/><path class="cls-1" d="M146.51,58.1l-6.88-6.83a2.53,2.53,0,0,0-1.8-.74h-.09a2.4,2.4,0,0,0-1.7.7l-.61.61-6.81,6.76a6.25,6.25,0,0,1-8.82,0L113,51.84l-.61-.61a2.4,2.4,0,0,0-1.7-.7h-.09a2.57,2.57,0,0,0-1.8.74l-6.88,6.83-.12.12a3.25,3.25,0,0,0-.06,4.27L122.4,83A2.57,2.57,0,0,0,126,83c.19-.2,19.57-19.45,20.66-20.52a3.25,3.25,0,0,0-.06-4.28Z"/><path class="cls-1" d="M124.21,58.58a4.41,4.41,0,0,0,3.11-1.28l6.81-6.77H114.29l6.81,6.77A4.4,4.4,0,0,0,124.21,58.58Z"/></svg>