<svg id="Camada_1" data-name="Camada 1" xmlns="http://www.w3.org/2000/svg" viewBox="0 0 250 145"><defs><style>.cls-1{fill:#f57c00;}</style></defs><path class="cls-1" d="M128.38,116.28a1.17,1.17,0,0,0,.62,1,3.41,3.41,0,0,0,1.72.36,5.22,5.22,0,0,0,2.57-.49,1.47,1.47,0,0,0,.84-1.31,1,1,0,0,0-.46-.92,3.76,3.76,0,0,0-1.72-.27h-1.59a2.24,2.24,0,0,0-1.44.42A1.41,1.41,0,0,0,128.38,116.28Z"/><path class="cls-1" d="M131.15,106a1.77,1.77,0,0,0-1.39.52,2.15,2.15,0,0,0-.47,1.51,2,2,0,0,0,.48,1.44,1.84,1.84,0,0,0,1.38.5c1.21,0,1.82-.65,1.82-1.95a2.24,2.24,0,0,0-.45-1.5A1.71,1.71,0,0,0,131.15,106Z"/><path class="cls-1" d="M119.31,110.55a1.51,1.51,0,0,0-.68,1.36,1.33,1.33,0,0,0,.4,1,1.68,1.68,0,0,0,1.18.36,2.64,2.64,0,0,0,1.84-.64,2.31,2.31,0,0,0,.7-1.8V110l-1.28,0A4.33,4.33,0,0,0,119.31,110.55Z"/><path class="cls-1" d="M140.18,110.55a1.51,1.51,0,0,0-.68,1.36,1.36,1.36,0,0,0,.4,1,1.7,1.7,0,0,0,1.18.36,2.67,2.67,0,0,0,1.85-.64,2.34,2.34,0,0,0,.69-1.8V110l-1.27,0A4.35,4.35,0,0,0,140.18,110.55Z"/><path class="cls-1" d="M109.7,103.41h-1.49V108h1.14a4.09,4.09,0,0,0,2.42-.57,2.09,2.09,0,0,0,.77-1.79,2,2,0,0,0-.69-1.69A3.41,3.41,0,0,0,109.7,103.41Z"/><path class="cls-1" d="M129.71,8.76a65,65,0,1,0,65,65A65,65,0,0,0,129.71,8.76Zm-16.31,100a5.92,5.92,0,0,1-3.83,1.1h-1.36v4.9h-2.14V101.62h3.77a5.75,5.75,0,0,1,3.68,1,3.6,3.6,0,0,1,1.23,3A3.82,3.82,0,0,1,113.4,108.73Zm11.46,6h-1.51l-.42-1.38h-.07a4,4,0,0,1-1.45,1.24,4.67,4.67,0,0,1-1.86.32,3.16,3.16,0,0,1-2.29-.79,3,3,0,0,1-.82-2.23,2.62,2.62,0,0,1,1.14-2.31,6.59,6.59,0,0,1,3.47-.86l1.72,0v-.53a2,2,0,0,0-.45-1.42,1.8,1.8,0,0,0-1.37-.47,4.8,4.8,0,0,0-1.47.22,12,12,0,0,0-1.34.53l-.68-1.51a7.34,7.34,0,0,1,1.76-.64,8.59,8.59,0,0,1,1.82-.22,4.27,4.27,0,0,1,2.85.83,3.2,3.2,0,0,1,1,2.59ZM136.18,106l-1.7.31a2.59,2.59,0,0,1,.39.78,3,3,0,0,1,.15,1,3,3,0,0,1-1.06,2.42,4.47,4.47,0,0,1-2.91.88,5.68,5.68,0,0,1-.87-.07,1.19,1.19,0,0,0-.68,1,.55.55,0,0,0,.32.51,2.64,2.64,0,0,0,1.17.17h1.73a3.9,3.9,0,0,1,2.5.7,2.49,2.49,0,0,1,.85,2,2.94,2.94,0,0,1-1.39,2.6,7.33,7.33,0,0,1-4,.92,5.51,5.51,0,0,1-3.09-.72,2.31,2.31,0,0,1-1.07-2.05,2.13,2.13,0,0,1,.58-1.53,3,3,0,0,1,1.62-.87,1.57,1.57,0,0,1-.7-.58,1.51,1.51,0,0,1,0-1.78,3.58,3.58,0,0,1,.93-.76,2.77,2.77,0,0,1-1.25-1.08,3.2,3.2,0,0,1-.48-1.76,3.14,3.14,0,0,1,1-2.5,4.3,4.3,0,0,1,2.9-.89,7,7,0,0,1,.89.06,6.21,6.21,0,0,1,.69.12h3.44Zm9.55,8.76h-1.51l-.42-1.38h-.07a4,4,0,0,1-1.45,1.24,4.67,4.67,0,0,1-1.86.32,3.11,3.11,0,0,1-2.28-.79,2.93,2.93,0,0,1-.82-2.23,2.61,2.61,0,0,1,1.13-2.31,6.59,6.59,0,0,1,3.47-.86l1.72,0v-.53a2,2,0,0,0-.45-1.42,1.8,1.8,0,0,0-1.37-.47,4.69,4.69,0,0,0-1.46.22A11.47,11.47,0,0,0,139,107l-.68-1.51a7.58,7.58,0,0,1,1.77-.64,8.5,8.5,0,0,1,1.81-.22,4.27,4.27,0,0,1,2.85.83,3.2,3.2,0,0,1,1,2.59Zm8.82-8a4.1,4.1,0,0,0-.94-.11,2.72,2.72,0,0,0-2.05.83,3,3,0,0,0-.78,2.14v5.18h-2.11v-9.92h1.65l.28,1.75h.11a4.06,4.06,0,0,1,1.28-1.41,3.12,3.12,0,0,1,1.71-.52,5,5,0,0,1,1.05.09Zm9.88-49.23L134.5,87.18a6.38,6.38,0,0,1-9,0L95.59,57.46a7.37,7.37,0,0,1,.34-10.07h0l9.93-9.86a6.37,6.37,0,0,1,4.45-1.84H149.7a6.42,6.42,0,0,1,4.46,1.84l9.93,9.86h0A7.37,7.37,0,0,1,164.43,57.46Z"/><path class="cls-1" d="M162.22,49.29l-9.93-9.86a3.68,3.68,0,0,0-2.6-1.07h-.14a3.54,3.54,0,0,0-2.45,1l-.88.88L136.38,50a9.05,9.05,0,0,1-12.74,0l-9.84-9.77-.87-.87a3.51,3.51,0,0,0-2.46-1h-.14a3.7,3.7,0,0,0-2.59,1.07L97.81,49.3l-.18.17a4.71,4.71,0,0,0-.09,6.18L127.39,85.3a3.74,3.74,0,0,0,5.24,0l29.85-29.65a4.69,4.69,0,0,0-.09-6.18Z"/><path class="cls-1" d="M130,50a6.36,6.36,0,0,0,4.5-1.84l9.84-9.78H115.68l9.84,9.78A6.34,6.34,0,0,0,130,50Z"/></svg>