<svg id="Camada_1" data-name="Camada 1" xmlns="http://www.w3.org/2000/svg" viewBox="0 0 128.17 97"><defs><style>.cls-1{fill:#ee7c0e;}</style></defs><path class="cls-1" d="M10.38,67.44C8,67.68,5.13,68,5.13,71.36c0,2.27,1.49,3.45,3.61,3.45a5,5,0,0,0,3.6-1.73,6.18,6.18,0,0,0,.24,1.34h3.29V74a1.16,1.16,0,0,1-.63-1.18V65.93c0-2.59-2.59-3.22-4.86-3.22-2.11,0-4.62.55-4.86,4h2.9c.32-1,.47-1.57,2-1.65.79.08,1.88.08,1.88,1.26C12.26,67.05,11.4,67.36,10.38,67.44Zm2,1.41c.08,2.75-.47,3.37-2.66,3.76-.94,0-1.41-.39-1.49-1.41,0-2,2.86-1.48,4.11-2.35Z"/><path class="cls-1" d="M41.49,62.66c-2.74,0-5.41,1.65-5.41,6.12,0,5.72,4.55,6,5.57,6A5,5,0,0,0,46.82,71H43.76a2.13,2.13,0,0,1-2,1.33c-1.57,0-2.59-1.1-2.59-2.9h7.76C47,64.07,44.39,62.66,41.49,62.66ZM39.3,67.52c.07-1.25.62-2.43,2.27-2.43a2.39,2.39,0,0,1,2.35,2.41v0Z"/><path class="cls-1" d="M17.83,63V74.5h3v-7c0-1.25,0-2.19,2-2.27,1.33,0,1.72,1,1.65,2.35v6.9h3v-6.9c.16-1.33.39-2.12,2-2.35a1.78,1.78,0,0,1,1.73,1.83v7.42h3V67.19c.16-2.27-.63-4.31-3.6-4.55a3.82,3.82,0,0,0-3.53,2,3,3,0,0,0-3.13-2,3.42,3.42,0,0,0-3.29,2V63Z"/><rect class="cls-1" x="5.21" y="77.55" width="117.93" height="2.82"/><path class="cls-1" d="M104,67.6c-2.59.47-4.15,1.1-4.23,3.84A3.34,3.34,0,0,0,103,74.9h.38a4.76,4.76,0,0,0,3.53-1.81,4.57,4.57,0,0,0,.31,1.42h3.22V74a1.46,1.46,0,0,1-.55-1V66.26c0-3.29-3.06-3.61-4.86-3.61-3,0-4.7,1.18-4.94,4H103c.16-1.18.71-1.57,2-1.65h0c.94.08,2,.08,2,1.34C106.92,67.36,105.27,67.52,104,67.6Zm.24,5c-.63-.07-1.49-.23-1.49-1.48s1.17-1.57,2-1.65a5.84,5.84,0,0,0,2.12-.63c0,2.68-.6,3.62-2.63,3.77Z"/><path class="cls-1" d="M117.26,72.54c-1,0-2.27-.08-2.43-1.73h-3c.08,2.67,2,4.08,5.25,4.08,2.9,0,5-.94,5.17-3.92-.08-1.88-1.41-2.9-3.6-3.45-2.67-.7-3.61-.7-3.61-1.64,0-.55.63-.94,1.88-.94s1.88.39,2,1.48h3c-.16-2.42-1.73-3.76-5-3.76-2.19,0-4.62.87-4.78,3.84-.08,2.28,1.88,2.9,3.53,3.29,1.72.55,3.6.55,3.52,1.65C119.14,72.22,118.28,72.54,117.26,72.54Z"/><rect class="cls-1" x="5.21" y="56.94" width="117.93" height="2.82"/><path class="cls-1" d="M87.41,63V74.5h3V68.23c0-1.49.47-3.06,2.36-3.06,1.48,0,2,.94,1.88,2.27V74.5h3V66.74h0c0-3.21-1.72-4-3.92-4.08a3.65,3.65,0,0,0-3.44,2V63Z"/><rect class="cls-1" x="57.4" y="62.9" width="3.06" height="11.52"/><path class="cls-1" d="M48.93,62.9V74.42h3V68.93c0-3.45,2-3.29,3.68-3.21V62.66h-.07c-1.57-.08-2.67.32-3.76,2.28v-2Z"/><path class="cls-1" d="M68.29,65.17c.94,0,1.72.55,2,1.88L73.42,67c-.23-2.58-1.56-4.39-5.17-4.39-3.29.08-5.41,2.12-5.41,6.27,0,3.69,1.65,5.88,5.33,6a4.89,4.89,0,0,0,5.17-4.55h-3c-.32,1.49-.63,2-2,2-1.57,0-2.27-1.25-2.27-3.45C65.94,67.21,66.17,65.17,68.29,65.17Z"/><path class="cls-1" d="M79.89,67.44h0c-3.61.32-5.18,1.34-5.25,3.92,0,2.27,1.41,3.37,3.6,3.45a4.91,4.91,0,0,0,3.6-1.73,10.17,10.17,0,0,0,.24,1.34h3.29V74a1.16,1.16,0,0,1-.63-1.18V66c0-2.5-2.5-3.29-4.78-3.29-3,0-4.78,1.18-5,4h3c.23-1,.39-1.57,1.88-1.65.78.08,1.88.08,1.88,1.26C81.69,67.05,80.83,67.36,79.89,67.44Zm-.79,5.17c-.86,0-1.41-.39-1.49-1.48s.79-1.57,2-1.65a5.09,5.09,0,0,0,2-.63c.31,2.51-.31,3.37-2.51,3.76Z"/><path class="cls-1" d="M73.44,23.85l.11.13,4,3.95,4-3.95.11-.13a6.24,6.24,0,1,0-8.12,0Zm4.06-8.34A3.48,3.48,0,1,1,74,19h0A3.48,3.48,0,0,1,77.5,15.51Z"/><path class="cls-1" d="M15.34,51l7.3-21.35H18.07l-4,12.73a36,36,0,0,0-1.1,4.7c-.06-.39-.21-1.08-.45-2.08s-.47-1.87-.69-2.62l-4-12.73H3.14L10.39,51Z"/><rect class="cls-1" x="26.69" y="29.65" width="4.53" height="21.38"/><polygon class="cls-1" points="40.32 51.03 44.85 51.03 44.85 33.43 50.66 33.43 50.66 29.65 34.51 29.65 34.51 33.43 40.32 33.43 40.32 51.03"/><path class="cls-1" d="M58.48,42.83h2.41L66,51h5q-1.47-2.1-6.29-9.31a6.86,6.86,0,0,0,2.94-2.31,6.31,6.31,0,0,0-1.06-8.17c-1.4-1.06-3.54-1.59-6.44-1.59H53.92V51h4.53Zm0-9.46h1.37a6.27,6.27,0,0,1,3.24.64,2.35,2.35,0,0,1,1,2.17,2.56,2.56,0,0,1-1,2.25,5.57,5.57,0,0,1-3.17.71H58.46Z"/><rect class="cls-1" x="75.11" y="29.65" width="4.53" height="21.38"/><path class="cls-1" d="M90.47,41c0-1.22-.09-3.25-.28-6.11h.13L99.64,51h5.76V29.65h-4.08V39.77c0,1.15.08,3.12.22,5.9h-.1l-9.29-16H86.44V51h4Z"/><polygon class="cls-1" points="123.08 47.29 115.3 47.29 115.3 41.78 122.54 41.78 122.54 38.06 115.3 38.06 115.3 33.37 123.08 33.37 123.08 29.65 110.77 29.65 110.77 51.03 123.08 51.03 123.08 47.29"/></svg>