<svg id="Camada_1" data-name="Camada 1" xmlns="http://www.w3.org/2000/svg" viewBox="0 0 1366 768"><defs><style>.cls-1{fill:#ee7c0e;}</style></defs><path class="cls-1" d="M630.74,405.44c-2.43.24-5.25.55-5.25,3.92,0,2.27,1.49,3.45,3.61,3.45a5,5,0,0,0,3.6-1.73,6.66,6.66,0,0,0,.24,1.34h3.29V412a1.17,1.17,0,0,1-.63-1.18v-6.89c0-2.59-2.59-3.22-4.86-3.22-2.11,0-4.62.55-4.86,4h2.9c.32-1,.47-1.57,2-1.65.79.08,1.88.08,1.88,1.26C632.62,405.05,631.76,405.36,630.74,405.44Zm2,1.41c.08,2.75-.47,3.37-2.66,3.76-.94,0-1.41-.39-1.49-1.41C628.55,407.17,631.45,407.72,632.7,406.85Z"/><path class="cls-1" d="M661.85,400.66c-2.74,0-5.41,1.65-5.41,6.12,0,5.72,4.55,6,5.57,6a5,5,0,0,0,5.17-3.76h-3.06a2.12,2.12,0,0,1-2,1.33c-1.57,0-2.59-1.1-2.59-2.9h7.76C667.34,402.07,664.75,400.66,661.85,400.66Zm-2.19,4.86c.07-1.25.62-2.43,2.27-2.43a2.38,2.38,0,0,1,2.35,2.43Z"/><path class="cls-1" d="M638.19,401V412.5h3v-7c0-1.25,0-2.19,2-2.27,1.33,0,1.72,1,1.65,2.35v6.9h3v-6.9c.16-1.33.39-2.12,2-2.35a1.78,1.78,0,0,1,1.73,1.88v7.37h3v-7.29c.16-2.27-.63-4.31-3.6-4.55a3.82,3.82,0,0,0-3.53,2,3,3,0,0,0-3.13-2,3.42,3.42,0,0,0-3.29,2V401Z"/><rect class="cls-1" x="625.57" y="415.55" width="117.93" height="2.82"/><path class="cls-1" d="M724.38,405.6c-2.59.47-4.15,1.1-4.23,3.84a3.34,3.34,0,0,0,3.6,3.45,4.74,4.74,0,0,0,3.53-1.81,4.83,4.83,0,0,0,.31,1.42h3.22V412a1.46,1.46,0,0,1-.55-1v-6.74c0-3.29-3.06-3.61-4.86-3.61-3,0-4.7,1.18-4.94,4h2.9c.16-1.18.71-1.57,2-1.65h0c.94.08,2,.08,2,1.34C727.28,405.36,725.63,405.52,724.38,405.6Zm.24,5c-.63-.07-1.49-.23-1.49-1.48s1.17-1.57,2-1.65a5.78,5.78,0,0,0,2.12-.63C727.28,409.52,726.65,410.46,724.62,410.61Z"/><path class="cls-1" d="M737.62,410.54c-1,0-2.27-.08-2.43-1.73h-3.05c.08,2.67,2,4.08,5.25,4.08,2.9,0,5-.94,5.17-3.92-.08-1.88-1.41-2.9-3.6-3.45-2.67-.7-3.61-.7-3.61-1.64,0-.55.63-.94,1.88-.94s1.88.39,2,1.48h3c-.16-2.42-1.73-3.76-5-3.76-2.19,0-4.62.87-4.78,3.84-.08,2.28,1.88,2.9,3.53,3.29,1.72.55,3.6.55,3.52,1.65C739.5,410.22,738.64,410.54,737.62,410.54Z"/><rect class="cls-1" x="625.57" y="394.94" width="117.93" height="2.82"/><path class="cls-1" d="M707.77,401V412.5h3.05v-6.27c0-1.49.47-3.06,2.36-3.06,1.48,0,2,.94,1.88,2.27v7.06h3.05v-7.76h0c0-3.21-1.72-4-3.92-4.08a3.65,3.65,0,0,0-3.44,2V401Z"/><rect class="cls-1" x="677.76" y="400.9" width="3.06" height="11.52"/><path class="cls-1" d="M669.29,400.9v11.52h3v-5.49c0-3.45,2-3.29,3.68-3.21v-3.06h-.07c-1.57-.08-2.67.32-3.76,2.28v-2Z"/><path class="cls-1" d="M688.65,403.17c.94,0,1.72.55,2,1.88l3.13-.08c-.23-2.58-1.56-4.39-5.17-4.39-3.29.08-5.41,2.12-5.41,6.27,0,3.69,1.65,5.88,5.33,6a4.89,4.89,0,0,0,5.17-4.55h-3c-.32,1.49-.63,2-2,2-1.57,0-2.27-1.25-2.27-3.45C686.3,405.21,686.53,403.17,688.65,403.17Z"/><path class="cls-1" d="M700.25,405.44h0c-3.61.32-5.18,1.34-5.25,3.92,0,2.27,1.41,3.37,3.6,3.45a4.93,4.93,0,0,0,3.6-1.73,9.3,9.3,0,0,0,.24,1.34h3.29V412a1.17,1.17,0,0,1-.63-1.18V404c0-2.5-2.5-3.29-4.78-3.29-3.05,0-4.78,1.18-5,4h3c.23-1,.39-1.57,1.88-1.65.78.08,1.88.08,1.88,1.26C702.05,405.05,701.19,405.36,700.25,405.44Zm-.79,5.17c-.86,0-1.41-.39-1.49-1.48s.79-1.57,2-1.65a5,5,0,0,0,2-.63C702.28,409.36,701.66,410.22,699.46,410.61Z"/><path class="cls-1" d="M693.8,361.85l.11.13,4,3.95,3.95-3.95.11-.13a6.24,6.24,0,1,0-8.12,0Zm4.06-8.34a3.48,3.48,0,1,1-3.48,3.48A3.48,3.48,0,0,1,697.86,353.51Z"/><path class="cls-1" d="M635.7,389,643,367.65h-4.57l-4,12.73a37.2,37.2,0,0,0-1.1,4.7c-.06-.39-.21-1.08-.45-2.08s-.47-1.87-.69-2.62l-4-12.73H623.5L630.75,389Z"/><rect class="cls-1" x="647.05" y="367.65" width="4.53" height="21.38"/><polygon class="cls-1" points="660.68 389.03 665.21 389.03 665.21 371.43 671.02 371.43 671.02 367.65 654.87 367.65 654.87 371.43 660.68 371.43 660.68 389.03"/><path class="cls-1" d="M678.84,380.83h2.41l5.11,8.2h5q-1.47-2.1-6.29-9.31a6.89,6.89,0,0,0,2.94-2.31,6.31,6.31,0,0,0-1.06-8.17q-2.09-1.59-6.44-1.59h-6.23V389h4.53Zm0-9.46h1.37a6.31,6.31,0,0,1,3.24.64,2.34,2.34,0,0,1,1,2.17,2.55,2.55,0,0,1-1,2.25,5.57,5.57,0,0,1-3.17.71h-1.46Z"/><rect class="cls-1" x="695.47" y="367.65" width="4.53" height="21.38"/><path class="cls-1" d="M710.83,379c0-1.22-.09-3.25-.28-6.11h.13L720,389h5.76V367.65h-4.08v10.12c0,1.15.08,3.12.22,5.9h-.1l-9.29-16h-5.71V389h4.05Z"/><polygon class="cls-1" points="743.44 385.29 735.66 385.29 735.66 379.78 742.9 379.78 742.9 376.06 735.66 376.06 735.66 371.37 743.44 371.37 743.44 367.65 731.13 367.65 731.13 389.03 743.44 389.03 743.44 385.29"/></svg>