<svg id="Camada_1" data-name="Camada 1" xmlns="http://www.w3.org/2000/svg" viewBox="0 0 250 145"><defs><style>.cls-1{fill:none;}.cls-2{fill:#ef6c00;}.cls-3{fill:#f57c00;}</style></defs><g id="Grupo_8" data-name="Grupo 8"><g id="Caminho_27" data-name="Caminho 27"><path class="cls-1" d="M109.14,8a65,65,0,1,1-65,65A65,65,0,0,1,109.14,8Z"/><path class="cls-2" d="M109.14,9.44a63.39,63.39,0,1,0,24.75,5,63.32,63.32,0,0,0-24.75-5m0-1.41a65,65,0,1,1-65,65A65,65,0,0,1,109.14,8Z"/></g></g><path class="cls-3" d="M89,106a9.58,9.58,0,0,0-2.11-1.12,12,12,0,0,1-1.78-.86,2.12,2.12,0,0,1-.71-.68,1.76,1.76,0,0,1-.21-.88,1.5,1.5,0,0,1,.53-1.2,2.42,2.42,0,0,1,1.58-.45,8.16,8.16,0,0,1,3.12.74l.69-1.75A9.25,9.25,0,0,0,86.33,99a4.87,4.87,0,0,0-3.13.94A3.14,3.14,0,0,0,82,102.51a3.46,3.46,0,0,0,.74,2.24,6,6,0,0,0,2.53,1.66,8.59,8.59,0,0,1,2.29,1.21,1.64,1.64,0,0,1,.56,1.25,1.61,1.61,0,0,1-.61,1.3,3,3,0,0,1-1.88.48,8.21,8.21,0,0,1-1.88-.24,9.92,9.92,0,0,1-1.9-.66v2a8.32,8.32,0,0,0,3.64.69,5.53,5.53,0,0,0,3.49-1,3.31,3.31,0,0,0,1.26-2.75,3.53,3.53,0,0,0-.31-1.54A3.2,3.2,0,0,0,89,106Z"/><path class="cls-3" d="M96.48,102.18a8.5,8.5,0,0,0-1.81.22,7.17,7.17,0,0,0-1.77.65l.68,1.5a11.47,11.47,0,0,1,1.35-.53,4.69,4.69,0,0,1,1.46-.22,1.84,1.84,0,0,1,1.38.47,2,2,0,0,1,.44,1.42v.53l-1.71,0a6.57,6.57,0,0,0-3.47.86,2.62,2.62,0,0,0-1.14,2.31,2.93,2.93,0,0,0,.82,2.23,3.13,3.13,0,0,0,2.28.79,4.76,4.76,0,0,0,1.87-.32,4.09,4.09,0,0,0,1.44-1.24h.07l.42,1.38h1.51V105.6a3.23,3.23,0,0,0-1-2.59A4.32,4.32,0,0,0,96.48,102.18Zm1.71,6.23a2.34,2.34,0,0,1-.69,1.8,2.62,2.62,0,0,1-1.85.64,1.7,1.7,0,0,1-1.18-.36,1.36,1.36,0,0,1-.39-1,1.52,1.52,0,0,1,.67-1.36,4.38,4.38,0,0,1,2.17-.5l1.27,0Z"/><path class="cls-3" d="M107.4,103.94a6.51,6.51,0,0,1,2.2.52l.64-1.69a6.63,6.63,0,0,0-2.83-.59,4.55,4.55,0,0,0-3.54,1.35,5.56,5.56,0,0,0-1.22,3.85,5.49,5.49,0,0,0,1.17,3.77,4.32,4.32,0,0,0,3.42,1.31,7,7,0,0,0,1.56-.14,4.06,4.06,0,0,0,1.21-.47V110a5.49,5.49,0,0,1-2.67.7,2.23,2.23,0,0,1-1.88-.84,4.09,4.09,0,0,1-.64-2.51Q104.82,103.94,107.4,103.94Z"/><path class="cls-3" d="M116.47,102.18a4.51,4.51,0,0,0-3.49,1.36,5.4,5.4,0,0,0-1.23,3.77,6.15,6.15,0,0,0,.57,2.72,4.13,4.13,0,0,0,1.64,1.81,4.83,4.83,0,0,0,2.46.62,4.46,4.46,0,0,0,3.47-1.36,5.41,5.41,0,0,0,1.25-3.79,5.34,5.34,0,0,0-1.26-3.74A4.39,4.39,0,0,0,116.47,102.18Zm0,8.56c-1.7,0-2.54-1.14-2.54-3.43a4.43,4.43,0,0,1,.59-2.52,2.16,2.16,0,0,1,1.93-.88c1.68,0,2.53,1.13,2.53,3.4S118.13,110.74,116.46,110.74Z"/><rect class="cls-3" x="123.56" y="98.33" width="2.11" height="13.96"/><path class="cls-3" d="M135.43,103a4.28,4.28,0,0,0-2.86-.83,8.58,8.58,0,0,0-1.81.22,7.17,7.17,0,0,0-1.77.65l.69,1.5A12,12,0,0,1,131,104a4.78,4.78,0,0,1,1.46-.22,1.83,1.83,0,0,1,1.38.47,2,2,0,0,1,.44,1.42v.53l-1.71,0a6.59,6.59,0,0,0-3.47.86,2.62,2.62,0,0,0-1.14,2.31,2.93,2.93,0,0,0,.82,2.23,3.15,3.15,0,0,0,2.28.79,4.73,4.73,0,0,0,1.87-.32,4,4,0,0,0,1.44-1.24h.08l.42,1.38h1.5V105.6A3.23,3.23,0,0,0,135.43,103Zm-1.14,5.4a2.35,2.35,0,0,1-.7,1.8,2.59,2.59,0,0,1-1.84.64,1.73,1.73,0,0,1-1.19-.36,1.36,1.36,0,0,1-.39-1,1.52,1.52,0,0,1,.68-1.36,4.33,4.33,0,0,1,2.16-.5l1.28,0Z"/><polygon class="cls-3" points="108.7 40.49 108.7 40.49 108.7 40.49 108.7 40.49"/><path class="cls-3" d="M132.37,79V57.78h2.19V52.43h-9.93L111.39,39.2a3.44,3.44,0,0,0,.79-2.19,3.48,3.48,0,0,0-7,0A3.44,3.44,0,0,0,106,39.2L92.78,52.43H82.85v5.35H85V79a5.43,5.43,0,0,0,5.51,5.35h36.32A5.43,5.43,0,0,0,132.37,79Zm-38,0H92.87a2.33,2.33,0,0,1-2.33-2.34h0V59.81h3.83Zm8.17,0H98.28V59.81h4.25Zm8.19,0h-4.26V59.81h4.26Zm8.17,0h-4.26V59.81h4.26ZM95.3,52.43l12.17-12.17a3.44,3.44,0,0,0,1.23.23,3.39,3.39,0,0,0,1.22-.23L122.1,52.43Zm31.56,24.1A2.51,2.51,0,0,1,124.35,79h-1.54V59.81h4Z"/></svg>