<svg id="Camada_1" data-name="Camada 1" xmlns="http://www.w3.org/2000/svg" viewBox="0 0 250 145"><defs><style>.cls-1{fill:none;}.cls-2{fill:#ef6c00;}.cls-3{fill:#f57c00;}</style></defs><g id="Grupo_8" data-name="Grupo 8"><g id="Caminho_27" data-name="Caminho 27"><path class="cls-1" d="M126,29A45,45,0,1,1,81,74,45,45,0,0,1,126,29Z"/><path class="cls-2" d="M126,30a44,44,0,0,0-17.13,84.58,44,44,0,0,0,34.26-81.12A43.63,43.63,0,0,0,126,30m0-1A45,45,0,1,1,81,74,45,45,0,0,1,126,29Z"/></g></g><path class="cls-3" d="M112,96.86a6.92,6.92,0,0,0-1.46-.78,7.14,7.14,0,0,1-1.23-.59,1.39,1.39,0,0,1-.49-.47,1.17,1.17,0,0,1-.15-.61,1,1,0,0,1,.37-.83,1.65,1.65,0,0,1,1.09-.31,5.64,5.64,0,0,1,2.16.51l.47-1.21a6.35,6.35,0,0,0-2.59-.57,3.38,3.38,0,0,0-2.17.65,2.16,2.16,0,0,0-.81,1.79,2.43,2.43,0,0,0,.51,1.55,4.29,4.29,0,0,0,1.76,1.15,5.46,5.46,0,0,1,1.58.84,1.11,1.11,0,0,1,.39.86,1.08,1.08,0,0,1-.42.9,2.08,2.08,0,0,1-1.3.34,5.67,5.67,0,0,1-1.3-.17,6.85,6.85,0,0,1-1.32-.46v1.4a5.72,5.72,0,0,0,2.52.48,3.83,3.83,0,0,0,2.42-.69,2.29,2.29,0,0,0,.87-1.9,2.41,2.41,0,0,0-.22-1.07A2.24,2.24,0,0,0,112,96.86Z"/><path class="cls-3" d="M117.24,94.21a5.87,5.87,0,0,0-1.26.16,5.19,5.19,0,0,0-1.22.44l.47,1a7.45,7.45,0,0,1,.93-.36,3.16,3.16,0,0,1,1-.16,1.25,1.25,0,0,1,.95.33,1.4,1.4,0,0,1,.31,1V97l-1.19,0a4.48,4.48,0,0,0-2.4.59,1.8,1.8,0,0,0-.79,1.6,2,2,0,0,0,.57,1.54,2.16,2.16,0,0,0,1.58.55,3,3,0,0,0,1.29-.23,2.8,2.8,0,0,0,1-.85h0l.29,1h1V96.58a2.25,2.25,0,0,0-.66-1.79A2.94,2.94,0,0,0,117.24,94.21Zm1.18,4.31a1.62,1.62,0,0,1-.48,1.25,1.77,1.77,0,0,1-1.27.44,1.15,1.15,0,0,1-.82-.25.93.93,0,0,1-.28-.71,1,1,0,0,1,.47-.94,3,3,0,0,1,1.5-.34l.88,0Z"/><path class="cls-3" d="M124.8,95.43a4.36,4.36,0,0,1,1.52.36l.44-1.17a4.57,4.57,0,0,0-2-.41,3.14,3.14,0,0,0-2.45.94,4.6,4.6,0,0,0,0,5.27,3,3,0,0,0,2.37.91,4.84,4.84,0,0,0,1.08-.1,2.58,2.58,0,0,0,.83-.33V99.63a3.74,3.74,0,0,1-1.84.48,1.52,1.52,0,0,1-1.3-.58A2.77,2.77,0,0,1,123,97.8C123,96.22,123.61,95.43,124.8,95.43Z"/><path class="cls-3" d="M131.08,94.21a3.15,3.15,0,0,0-2.42.94,3.75,3.75,0,0,0-.85,2.61,4.31,4.31,0,0,0,.39,1.89,2.94,2.94,0,0,0,1.14,1.25,3.28,3.28,0,0,0,1.7.43,3.1,3.1,0,0,0,2.41-.94,3.79,3.79,0,0,0,.86-2.63,3.72,3.72,0,0,0-.87-2.59A3,3,0,0,0,131.08,94.21Zm0,5.93c-1.17,0-1.76-.79-1.76-2.38a3.11,3.11,0,0,1,.41-1.74,1.5,1.5,0,0,1,1.34-.61c1.16,0,1.75.78,1.75,2.35S132.23,100.14,131.07,100.14Z"/><rect class="cls-3" x="135.99" y="91.54" width="1.46" height="9.66"/><path class="cls-3" d="M144.2,94.79a2.9,2.9,0,0,0-2-.58,5.72,5.72,0,0,0-1.26.16,5.19,5.19,0,0,0-1.22.44l.47,1a7.45,7.45,0,0,1,.93-.36,3.1,3.1,0,0,1,1-.16,1.27,1.27,0,0,1,1,.33,1.4,1.4,0,0,1,.3,1V97l-1.18,0a4.48,4.48,0,0,0-2.4.59,1.8,1.8,0,0,0-.79,1.6,2.06,2.06,0,0,0,.56,1.54,2.18,2.18,0,0,0,1.59.55,3,3,0,0,0,1.29-.23,2.8,2.8,0,0,0,1-.85h0l.29,1h1V96.58A2.22,2.22,0,0,0,144.2,94.79Zm-.79,3.73a1.62,1.62,0,0,1-.48,1.25,1.8,1.8,0,0,1-1.28.44,1.18,1.18,0,0,1-.82-.25.92.92,0,0,1-.27-.71,1,1,0,0,1,.47-.94,2.91,2.91,0,0,1,1.5-.34l.88,0Z"/><polygon class="cls-3" points="125.7 51.5 125.7 51.5 125.7 51.5 125.7 51.5"/><path class="cls-3" d="M142.09,78.19V63.47h1.51v-3.7h-6.87l-9.16-9.16a2.39,2.39,0,1,0-4.27-1.52,2.35,2.35,0,0,0,.55,1.52l-9.17,9.16H107.8v3.7h1.51V78.19a3.77,3.77,0,0,0,3.81,3.71h25.15A3.77,3.77,0,0,0,142.09,78.19Zm-26.32,0h-1a1.62,1.62,0,0,1-1.62-1.62h0V64.88h2.65Zm5.66,0h-2.94V64.88h2.94Zm5.66,0h-2.94V64.88h2.94Zm5.66,0h-2.94V64.88h2.94ZM116.42,59.77l8.43-8.43a2.34,2.34,0,0,0,1.7,0L135,59.77Zm21.85,16.68a1.74,1.74,0,0,1-1.74,1.74h-1.07V64.88h2.81Z"/></svg>