<svg id="Camada_1" data-name="Camada 1" xmlns="http://www.w3.org/2000/svg" viewBox="0 0 343 293"><defs><style>.cls-1{fill:#f57c00;}</style></defs><path class="cls-1" d="M169.61,185.12a.93.93,0,0,0-.33.82.9.9,0,0,0,.31.71,1.19,1.19,0,0,0,.82.27,1.53,1.53,0,0,0,1.17-.49,1.79,1.79,0,0,0,.46-1.24v-.59l-1.43.19A2.3,2.3,0,0,0,169.61,185.12Z"/><path class="cls-1" d="M190.09,185.12a1.09,1.09,0,0,0,0,1.53,1.24,1.24,0,0,0,.83.27,1.5,1.5,0,0,0,1.16-.49,1.75,1.75,0,0,0,.46-1.24v-.59l-1.42.19A2.25,2.25,0,0,0,190.09,185.12Z"/><path class="cls-1" d="M171.5,86.5a60,60,0,1,0,60,60A60,60,0,0,0,171.5,86.5ZM152.63,187.93h-5.26v-9.5h1.57v8.17h3.69Zm6.78-.82a3.45,3.45,0,0,1-2.57,1,3.37,3.37,0,0,1-2.51-1,3.43,3.43,0,0,1-.94-2.52A3.37,3.37,0,0,1,157,181a3.23,3.23,0,0,1,2.48.94,3.6,3.6,0,0,1,.89,2.59A3.55,3.55,0,0,1,159.41,187.11Zm7.39-4.37a2.53,2.53,0,0,0-1.52-.53,2.07,2.07,0,0,0-1.59.66,2.39,2.39,0,0,0-.63,1.73,2.31,2.31,0,0,0,.59,1.66,2.07,2.07,0,0,0,1.57.61,2.48,2.48,0,0,0,1.57-.59v1.34a3.83,3.83,0,0,1-1.93.47,3.27,3.27,0,0,1-2.44-1,3.33,3.33,0,0,1-.93-2.45,3.71,3.71,0,0,1,1-2.69,3.56,3.56,0,0,1,2.67-1,3.87,3.87,0,0,1,1.64.33Zm6.72,5.19H172v-1.06h0a2.24,2.24,0,0,1-2.06,1.22,2.12,2.12,0,0,1-1.56-.55,1.88,1.88,0,0,1-.57-1.43c0-1.28.74-2,2.21-2.24l2-.29c0-1-.46-1.45-1.38-1.45a3.31,3.31,0,0,0-2.19.83v-1.34A4.82,4.82,0,0,1,171,181a2.26,2.26,0,0,1,2.57,2.54Zm3.42,0H175.4V177.88h1.54Zm3.54,0h-1.54v-6.79h1.54Zm-.1-8.47a.93.93,0,0,1-.66.26.91.91,0,0,1-.65-.25.8.8,0,0,1-.27-.62.83.83,0,0,1,.27-.63,1,1,0,0,1,1.31,0,.83.83,0,0,1,.27.63A.8.8,0,0,1,180.38,179.46Zm7.12,2.33-3.67,4.94h3.65v1.2h-5.8v-.58l3.74-5H182v-1.2h5.46Zm.2-30.2-16.25,16.25-16.26-16.25a5.49,5.49,0,0,1-.44-.52A25.66,25.66,0,0,1,169.63,106h0a25.66,25.66,0,0,1,18.51,45.08A4.32,4.32,0,0,1,187.7,151.59Zm6.3,36.34h-1.49v-1.06h0a2.26,2.26,0,0,1-2.06,1.22,2.15,2.15,0,0,1-1.57-.55,1.88,1.88,0,0,1-.56-1.43c0-1.28.73-2,2.21-2.24l2-.29c0-1-.46-1.45-1.38-1.45A3.3,3.3,0,0,0,189,183v-1.34a4.79,4.79,0,0,1,2.48-.64,2.26,2.26,0,0,1,2.57,2.54Zm5.81-5.32a1.25,1.25,0,0,0-.8-.22,1.34,1.34,0,0,0-1.14.62,2.69,2.69,0,0,0-.46,1.67v3.25h-1.54v-6.79h1.54v1.4h0a2.38,2.38,0,0,1,.69-1.12,1.6,1.6,0,0,1,1-.4,1.36,1.36,0,0,1,.64.13Z"/><path class="cls-1" d="M171.45,116.78a14.31,14.31,0,0,0,0,28.62h0a14.31,14.31,0,0,0,0-28.62Z"/><path class="cls-1" d="M156.91,182.21a1.77,1.77,0,0,0-1.43.63,2.64,2.64,0,0,0-.52,1.74,2.51,2.51,0,0,0,.53,1.68,1.81,1.81,0,0,0,1.42.61,1.68,1.68,0,0,0,1.39-.6,3.28,3.28,0,0,0,0-3.45A1.66,1.66,0,0,0,156.91,182.21Z"/></svg>