<svg id="Camada_1" data-name="Camada 1" xmlns="http://www.w3.org/2000/svg" viewBox="0 0 343 293"><defs><style>.cls-1{fill:#f57c00;}</style></defs><path class="cls-1" d="M169,198a1.24,1.24,0,0,0-.45,1.1,1.23,1.23,0,0,0,.41.94,1.62,1.62,0,0,0,1.1.37,2,2,0,0,0,1.55-.66,2.34,2.34,0,0,0,.62-1.66v-.79l-1.9.27A3,3,0,0,0,169,198Z"/><path class="cls-1" d="M196.29,198a1.24,1.24,0,0,0-.45,1.1,1.23,1.23,0,0,0,.41.94,1.62,1.62,0,0,0,1.1.37,2,2,0,0,0,1.55-.66,2.34,2.34,0,0,0,.62-1.66v-.79l-1.9.27A3.05,3.05,0,0,0,196.29,198Z"/><path class="cls-1" d="M171.5,66.5a80,80,0,1,0,80,80A80,80,0,0,0,171.5,66.5ZM146.34,201.74h-7V189.07h2.1V200h4.92Zm9-1.09A4.58,4.58,0,0,1,152,202a4.48,4.48,0,0,1-3.35-1.27,4.57,4.57,0,0,1-1.25-3.36,4.47,4.47,0,0,1,4.82-4.84,4.34,4.34,0,0,1,3.3,1.24,4.83,4.83,0,0,1,1.19,3.46A4.76,4.76,0,0,1,155.38,200.65Zm9.85-5.83a3.34,3.34,0,0,0-2-.71,2.84,2.84,0,0,0-2.13.88,3.25,3.25,0,0,0-.83,2.3,3.07,3.07,0,0,0,.78,2.22,2.79,2.79,0,0,0,2.1.81,3.31,3.31,0,0,0,2.09-.78v1.78a5,5,0,0,1-2.57.63,4.33,4.33,0,0,1-3.25-1.26,4.44,4.44,0,0,1-1.24-3.26,4.92,4.92,0,0,1,1.33-3.6,4.75,4.75,0,0,1,3.55-1.35,5.19,5.19,0,0,1,2.19.43Zm9,6.92h-2v-1.42h0a3,3,0,0,1-2.75,1.63,2.92,2.92,0,0,1-2.09-.72,2.57,2.57,0,0,1-.75-1.92c0-1.71,1-2.71,2.95-3l2.69-.38c0-1.29-.62-1.93-1.84-1.93a4.39,4.39,0,0,0-2.92,1.11v-1.79a6.35,6.35,0,0,1,3.31-.85q3.42,0,3.42,3.37Zm4.56,0H176.7v-13.4h2.05Zm4.72,0h-2.05v-9.05h2.05Zm-.13-11.29a1.31,1.31,0,0,1-1.75,0,1.08,1.08,0,0,1-.35-.83,1.15,1.15,0,0,1,.35-.84,1.24,1.24,0,0,1,.87-.33,1.27,1.27,0,0,1,.88.33,1.12,1.12,0,0,1,.36.84A1.09,1.09,0,0,1,183.34,190.45Zm9.49,3.1-4.89,6.59h4.87v1.6h-7.74V201l5-6.68h-4.51v-1.6h7.28Zm.27-40.26L171.43,175l-21.67-21.67a5.61,5.61,0,0,1-.59-.7A34.21,34.21,0,0,1,169,92.49h0a34.21,34.21,0,0,1,24.68,60.1A6.62,6.62,0,0,1,193.1,153.29Zm8.4,48.45h-2v-1.42h0a3,3,0,0,1-2.74,1.63,2.9,2.9,0,0,1-2.09-.72,2.54,2.54,0,0,1-.76-1.92c0-1.71,1-2.71,3-3l2.69-.38c0-1.29-.62-1.93-1.84-1.93a4.39,4.39,0,0,0-2.92,1.11v-1.79a6.35,6.35,0,0,1,3.31-.85c2.28,0,3.43,1.12,3.43,3.37Zm7.75-7.1a1.75,1.75,0,0,0-1.07-.29,1.84,1.84,0,0,0-1.52.82,3.67,3.67,0,0,0-.61,2.24v4.33H204v-9.05h2.05v1.86h0a3.09,3.09,0,0,1,.93-1.48,2,2,0,0,1,1.39-.54,1.77,1.77,0,0,1,.85.17Z"/><path class="cls-1" d="M171.43,106.88a19.08,19.08,0,1,0,0,38.15h0a19.08,19.08,0,1,0,0-38.15Z"/><path class="cls-1" d="M152,194.11a2.35,2.35,0,0,0-1.9.84,3.55,3.55,0,0,0-.69,2.32,3.32,3.32,0,0,0,.7,2.24,2.38,2.38,0,0,0,1.89.81,2.23,2.23,0,0,0,1.86-.8,4.38,4.38,0,0,0,0-4.59A2.22,2.22,0,0,0,152,194.11Z"/></svg>