<svg id="Camada_1" data-name="Camada 1" xmlns="http://www.w3.org/2000/svg" viewBox="0 0 343 293"><defs><style>.cls-1{fill:#f57c00;}</style></defs><path class="cls-1" d="M170.09,175.46a.71.71,0,0,0-.25.62.66.66,0,0,0,.23.53.87.87,0,0,0,.61.21,1.17,1.17,0,0,0,.88-.37,1.33,1.33,0,0,0,.34-.94v-.44l-1.07.15A1.57,1.57,0,0,0,170.09,175.46Z"/><path class="cls-1" d="M185.44,175.46a.73.73,0,0,0-.25.62.69.69,0,0,0,.23.53.9.9,0,0,0,.62.21,1.16,1.16,0,0,0,.87-.37,1.33,1.33,0,0,0,.35-.94v-.44l-1.07.15A1.65,1.65,0,0,0,185.44,175.46Z"/><path class="cls-1" d="M171.5,101.5a45,45,0,1,0,45,45A45,45,0,0,0,171.5,101.5Zm-14.15,76.07H153.4v-7.13h1.18v6.13h2.77Zm5.08-.61a2.6,2.6,0,0,1-4.51-1.87,2.51,2.51,0,0,1,2.71-2.73,2.45,2.45,0,0,1,1.85.7,2.7,2.7,0,0,1,.67,1.95A2.67,2.67,0,0,1,162.43,177Zm5.54-3.28a1.82,1.82,0,0,0-1.13-.4,1.58,1.58,0,0,0-1.2.5,1.81,1.81,0,0,0-.47,1.29,1.75,1.75,0,0,0,.44,1.25,1.6,1.6,0,0,0,1.18.46,1.84,1.84,0,0,0,1.18-.45v1a2.91,2.91,0,0,1-1.45.35,2.45,2.45,0,0,1-1.83-.71,2.51,2.51,0,0,1-.69-1.83,2.73,2.73,0,0,1,.74-2,2.68,2.68,0,0,1,2-.77,2.79,2.79,0,0,1,1.23.25Zm5.05,3.89H171.9v-.79h0a1.68,1.68,0,0,1-1.55.91,1.62,1.62,0,0,1-1.17-.41,1.4,1.4,0,0,1-.43-1.08c0-1,.55-1.52,1.66-1.68l1.51-.21c0-.72-.34-1.09-1-1.09a2.45,2.45,0,0,0-1.64.63v-1a3.55,3.55,0,0,1,1.86-.48,1.7,1.7,0,0,1,1.93,1.9Zm2.56,0h-1.16V170h1.16Zm2.65,0h-1.15v-5.09h1.15Zm-.07-6.35a.69.69,0,0,1-.5.19.68.68,0,0,1-.48-.18.59.59,0,0,1-.2-.47.6.6,0,0,1,.2-.47.65.65,0,0,1,.48-.19.69.69,0,0,1,.5.19.6.6,0,0,1,.2.47A.59.59,0,0,1,178.16,171.22ZM183.5,173l-2.75,3.71h2.74v.9h-4.36v-.43l2.81-3.76H179.4v-.9h4.1Zm.15-22.64-12.19,12.19-12.19-12.19a4,4,0,0,1-.33-.39,19.24,19.24,0,0,1,11.16-33.81h0A19.24,19.24,0,0,1,184,149.93,3.09,3.09,0,0,1,183.65,150.32Zm4.72,27.25h-1.12v-.79h0a1.69,1.69,0,0,1-1.55.91,1.66,1.66,0,0,1-1.18-.41,1.43,1.43,0,0,1-.42-1.08c0-1,.55-1.52,1.66-1.68l1.51-.21c0-.72-.34-1.09-1-1.09a2.43,2.43,0,0,0-1.64.63v-1a3.52,3.52,0,0,1,1.85-.48,1.69,1.69,0,0,1,1.93,1.9Zm4.36-4a1,1,0,0,0-.6-.16,1,1,0,0,0-.85.46,2.07,2.07,0,0,0-.35,1.26v2.43h-1.15v-5.09h1.15v1.05h0a1.86,1.86,0,0,1,.52-.84,1.19,1.19,0,0,1,.78-.3.9.9,0,0,1,.48.1Z"/><path class="cls-1" d="M171.46,124.21a10.73,10.73,0,0,0,0,21.46h0a10.73,10.73,0,0,0,0-21.46Z"/><path class="cls-1" d="M160.56,173.28a1.33,1.33,0,0,0-1.07.47,2,2,0,0,0-.4,1.31,1.9,1.9,0,0,0,.4,1.26,1.37,1.37,0,0,0,1.07.46,1.24,1.24,0,0,0,1-.46A2,2,0,0,0,162,175a2,2,0,0,0-.37-1.3A1.24,1.24,0,0,0,160.56,173.28Z"/></svg>