<svg xmlns="http://www.w3.org/2000/svg" width="579.914" height="326.709" viewBox="0 0 579.914 326.709"><defs><style>.a,.b{fill:#fff;}.b{stroke:rgba(0,0,0,0);stroke-miterlimit:10;}</style></defs><g transform="translate(-395.412 -157.535)"><path class="a" d="M423.471,268.3c4.923-.379,9.088-1.9,9.088-5.682,0-5.678-5.3-5.678-9.088-6.058-7.192.379-7.95,3.027-9.464,7.95H400c1.134-16.663,13.253-19.311,23.475-19.311,10.984,0,23.479,3.027,23.479,15.525v33.322c0,3.031.758,4.165,3.031,5.682v2.272h-15.9c-.759-1.893-.759-4.165-1.138-6.437-4.544,4.92-10.6,8.329-17.418,8.329-10.226,0-17.418-5.682-17.418-16.663,0-16.284,13.632-17.8,25.368-18.932Zm9.467,6.816c-6.058,4.165-20.069,1.514-20.069,11.36.379,4.92,2.651,6.816,7.2,6.816C430.667,291.4,433.318,288.373,432.938,275.12Zm106.031-7.954v35.218H524.2v-35.6c0-5.3-3.786-9.088-8.33-9.088-7.575,1.138-8.709,4.923-9.467,11.36v33.326H491.636V269.059c.379-6.437-1.517-11.36-7.954-11.36-9.467.379-9.467,4.923-9.467,10.981v33.7H459.448V246.718H473.46v7.954c3.406-6.061,7.95-9.467,15.9-9.467s12.115,3.027,15.146,9.467c3.785-6.82,10.226-9.467,17.042-9.467,14.387,1.134,18.176,10.981,17.418,21.962Zm23.479,10.981c0,8.709,4.923,14.012,12.495,14.012,5.3-.379,8.333-2.651,9.847-6.437h14.77c-1.9,9.847-11.364,18.176-25,18.176-4.92,0-26.885-1.513-26.885-29.157,0-21.586,12.877-29.536,26.13-29.536,14.011,0,26.506,6.816,26.126,32.943Zm.379-9.467h22.721a11.477,11.477,0,0,0-11.36-11.736c-7.954,0-10.605,5.678-10.985,11.736ZM641.97,245.2v14.766c-7.954-.379-17.8-1.134-17.8,15.525v26.509H609.782V246.339h13.632v9.847c5.3-9.467,10.6-11.36,18.177-10.981Zm8.709,1.134h14.77v55.667h-14.77Zm62.1,20.069c-1.134-6.437-4.923-9.088-9.467-9.088-10.223,0-11.36,9.847-11.36,17.8,0,10.6,3.41,16.659,10.981,16.659,6.816-.379,8.333-2.651,9.847-9.843h14.77c-1.9,13.253-10.605,21.962-24.992,21.962-17.8-.379-25.751-10.981-25.751-28.778,0-20.073,10.222-29.916,26.127-30.295,17.421,0,23.858,8.709,24.992,21.207Zm46.579,1.9c4.544-.379,8.709-1.9,8.709-5.682,0-5.682-5.3-5.682-9.088-6.058-7.2.376-7.954,3.027-9.088,7.95H735.5c1.137-13.632,9.467-19.311,24.237-19.311,10.981,0,23.1,3.786,23.1,15.9v32.943c0,3.031.758,4.165,3.031,5.682v2.272h-15.9c-.759-2.272-.759-4.544-1.134-6.437-4.923,4.92-10.226,8.329-17.421,8.329-10.6-.379-17.418-5.682-17.418-16.663.379-12.495,7.951-17.418,25.372-18.932Zm8.709,6.816a24.7,24.7,0,0,1-9.846,3.027c-6.058.379-9.847,2.272-9.847,7.954.379,5.3,3.031,7.2,7.2,7.2C766.177,291.4,769.2,287.236,768.069,275.12ZM845.7,264.895v37.49h-14.77V268.3c.38-6.44-1.892-10.984-9.088-10.984-9.088,0-11.36,7.575-11.36,14.77v30.3H795.713V246.718H810.1v7.95c3.406-6.058,8.709-9.464,16.659-9.464,10.605.376,18.935,4.165,18.935,19.69Zm34.839-8.33c-6.061.376-8.709,2.272-9.467,7.95H857.058c1.138-13.632,9.468-19.311,23.858-19.311,8.709,0,23.476,1.513,23.476,17.418v32.567c.379.755,0,3.027,2.651,4.923v2.272H891.518c-1.138-2.272-1.138-4.544-1.513-6.816-4.544,5.3-9.847,8.329-17.042,8.709-9.846,0-17.418-6.061-17.418-16.663.379-13.253,7.95-16.284,20.448-18.556C882.051,268.68,890,267.925,890,263c0-6.061-4.923-6.061-9.468-6.437Zm-.759,21.583c-4.165.379-9.847,1.893-9.847,7.954s4.169,6.816,7.2,7.2c9.847-.759,12.877-5.3,12.877-18.176A28.384,28.384,0,0,1,879.778,278.147Zm48.471,6.437c.759,7.954,6.816,8.333,11.74,8.333s9.088-1.517,9.088-5.3c.379-5.3-8.709-5.3-17.042-7.95-7.95-1.9-17.418-4.923-17.039-15.9.755-14.391,12.495-18.556,23.1-18.556,15.9,0,23.475,6.437,24.234,18.176H947.94c-.755-5.3-4.165-7.2-9.843-7.2-6.061,0-9.088,1.893-9.088,4.544,0,4.544,4.544,4.544,17.418,7.95,10.6,2.651,17.042,7.575,17.418,16.663-.755,14.391-10.981,18.935-24.992,18.935-15.9,0-24.992-6.816-25.372-19.693ZM398.479,217.561v13.632H968.388V217.561Zm0,99.59v13.632H968.388V317.151Z" transform="translate(6.938 153.46)"/><g transform="translate(724.602 158.035)"><g transform="translate(0 0)"><path class="b" d="M30.163,72.775l0,0-19.1-19.1a5.376,5.376,0,0,1-.52-.61A30.156,30.156,0,0,1,28.028.074C28.738.025,29.457,0,30.165,0A30.155,30.155,0,0,1,49.792,53.059a5.344,5.344,0,0,1-.523.61l-19.1,19.1Zm0-60.018a16.819,16.819,0,1,0,16.817,16.82A16.839,16.839,0,0,0,30.166,12.757Z" transform="translate(0 0)"/></g></g><path class="a" d="M467.355,180.7h22.119L454.353,284.021H430.466L395.412,180.7h22.119l19.436,61.485q1.626,5.442,3.356,12.684t2.158,10.068q.779-6.5,5.3-22.753Z" transform="translate(0 58.437)"/><path class="a" d="M427.217,284.021V180.7h21.908V284.021Z" transform="translate(81.994 58.437)"/><path class="a" d="M487.747,284.021H465.839V198.936H437.784V180.7H515.8v18.234H487.747Z" transform="translate(109.236 58.437)"/><path class="a" d="M485.941,244.376v39.644H464.033V180.7h30.105q21.06,0,31.164,7.668t10.108,23.286a27.407,27.407,0,0,1-5.02,16.219,33.22,33.22,0,0,1-14.2,11.131q23.319,34.837,30.388,45.015H522.265L497.6,244.376Zm0-17.808h7.067q10.391,0,15.332-3.464t4.952-10.884q0-7.348-5.056-10.459t-15.654-3.109h-6.641Z" transform="translate(176.906 58.437)"/><path class="a" d="M492.618,284.021V180.7h21.908V284.021Z" transform="translate(250.598 58.437)"/><path class="a" d="M599.551,284.021H571.7l-44.946-78.162h-.634q1.341,20.711,1.346,29.54v48.622H507.89V180.7h27.633L580.4,258.087h.5q-1.069-20.142-1.063-28.481V180.7h19.718Z" transform="translate(289.97 58.437)"/><path class="a" d="M600.281,284.021H540.775V180.7h59.506v17.951h-37.6v22.685h34.982v17.951H562.683V265.93h37.6Z" transform="translate(374.748 58.437)"/></g></svg>