<svg xmlns="http://www.w3.org/2000/svg" width="179.662" height="101.562" viewBox="0 0 179.662 101.562"><defs><style>.a,.b{fill:#fff;}.b{stroke:rgba(0,0,0,0);stroke-miterlimit:10;}</style></defs><g transform="translate(-395.412 -157.535)"><path class="a" d="M405.962,233.282c1.525-.117,2.816-.588,2.816-1.76,0-1.759-1.642-1.759-2.816-1.877-2.228.117-2.463.938-2.932,2.463h-4.341c.351-5.162,4.106-5.983,7.273-5.983,3.4,0,7.274.938,7.274,4.81v10.323a1.733,1.733,0,0,0,.939,1.76v.7h-4.927a10.056,10.056,0,0,1-.353-1.994,7.419,7.419,0,0,1-5.4,2.581c-3.168,0-5.4-1.76-5.4-5.162,0-5.045,4.223-5.514,7.859-5.865Zm2.933,2.112c-1.877,1.29-6.217.469-6.217,3.519.118,1.524.821,2.112,2.229,2.112C408.191,240.437,409.013,239.5,408.9,235.393Zm32.849-2.464V243.84h-4.576V232.812A2.663,2.663,0,0,0,434.588,230c-2.347.352-2.7,1.525-2.933,3.519V243.84H427.08V233.516c.118-1.994-.47-3.519-2.464-3.519-2.933.117-2.933,1.525-2.933,3.4V243.84h-4.575V226.594h4.341v2.464a5.129,5.129,0,0,1,4.927-2.933,4.548,4.548,0,0,1,4.692,2.933,5.709,5.709,0,0,1,5.28-2.933c4.457.351,5.631,3.4,5.4,6.8Zm7.274,3.4c0,2.7,1.525,4.341,3.871,4.341a3.172,3.172,0,0,0,3.051-1.994h4.576c-.587,3.051-3.521,5.631-7.744,5.631-1.524,0-8.329-.469-8.329-9.033,0-6.688,3.989-9.151,8.1-9.151,4.341,0,8.212,2.112,8.094,10.206Zm.117-2.933h7.039a3.556,3.556,0,0,0-3.519-3.636c-2.464,0-3.286,1.759-3.4,3.636Zm24.519-7.273V230.7c-2.464-.117-5.514-.351-5.514,4.81v8.213h-4.458V226.477h4.223v3.051c1.643-2.933,3.284-3.519,5.631-3.4Zm2.7.351h4.576v17.246h-4.576Zm19.24,6.218c-.351-1.994-1.525-2.816-2.933-2.816-3.167,0-3.52,3.051-3.52,5.515,0,3.284,1.056,5.161,3.4,5.161,2.112-.117,2.582-.821,3.051-3.049h4.576c-.588,4.106-3.286,6.8-7.743,6.8-5.515-.117-7.978-3.4-7.978-8.916,0-6.219,3.167-9.268,8.094-9.386,5.4,0,7.391,2.7,7.743,6.57Zm14.43.588c1.408-.117,2.7-.588,2.7-1.76,0-1.76-1.643-1.76-2.815-1.877-2.229.116-2.464.938-2.816,2.463h-4.458c.352-4.223,2.933-5.983,7.509-5.983,3.4,0,7.155,1.173,7.155,4.927v10.206a1.733,1.733,0,0,0,.939,1.76v.7h-4.927a14.149,14.149,0,0,1-.351-1.994,7.421,7.421,0,0,1-5.4,2.581c-3.284-.117-5.4-1.76-5.4-5.162.117-3.871,2.463-5.4,7.86-5.865Zm2.7,2.112a7.651,7.651,0,0,1-3.05.938c-1.877.118-3.051.7-3.051,2.464.117,1.642.939,2.229,2.229,2.229C512.135,240.437,513.073,239.147,512.722,235.393Zm24.05-3.168V243.84H532.2V233.282c.118-2-.586-3.4-2.815-3.4-2.816,0-3.519,2.347-3.519,4.576v9.386h-4.575V226.594h4.458v2.463a5.477,5.477,0,0,1,5.161-2.932c3.286.116,5.866,1.29,5.866,6.1Zm10.793-2.581c-1.878.116-2.7.7-2.933,2.463h-4.341c.352-4.223,2.933-5.983,7.391-5.983,2.7,0,7.273.469,7.273,5.4v10.09a2.139,2.139,0,0,0,.821,1.525v.7h-4.81a6.809,6.809,0,0,1-.469-2.112,7.094,7.094,0,0,1-5.28,2.7c-3.051,0-5.4-1.878-5.4-5.162.117-4.106,2.463-5.045,6.335-5.749,1.877-.117,4.341-.351,4.341-1.877,0-1.878-1.525-1.878-2.933-1.994Zm-.235,6.686c-1.29.118-3.051.586-3.051,2.464s1.291,2.112,2.229,2.229c3.051-.235,3.99-1.643,3.99-5.631A8.794,8.794,0,0,1,547.33,236.331Zm15.017,1.994c.235,2.464,2.112,2.582,3.637,2.582s2.816-.47,2.816-1.643c.117-1.643-2.7-1.643-5.28-2.463-2.463-.588-5.4-1.525-5.279-4.927.234-4.458,3.871-5.749,7.156-5.749,4.927,0,7.273,1.994,7.508,5.631h-4.458c-.234-1.643-1.29-2.229-3.049-2.229-1.878,0-2.816.586-2.816,1.408,0,1.408,1.408,1.408,5.4,2.463,3.285.821,5.28,2.347,5.4,5.162-.234,4.458-3.4,5.866-7.743,5.866-4.927,0-7.743-2.112-7.86-6.1ZM398.219,217.561v4.223H574.782v-4.223Zm0,30.854v4.223H574.782v-4.223Z" transform="translate(0.292 6.458)"/><g transform="translate(497.398 158.034)"><path class="b" d="M-190.542-108.508h0l-5.918-5.919a1.665,1.665,0,0,1-.161-.189,9.278,9.278,0,0,1-3.238-7.807,9.369,9.369,0,0,1,8.656-8.608c.22-.015.443-.023.662-.023a9.356,9.356,0,0,1,9.346,9.345,9.341,9.341,0,0,1-3.265,7.093,1.658,1.658,0,0,1-.162.189l-5.919,5.919Zm0-18.594a5.217,5.217,0,0,0-5.211,5.211,5.216,5.216,0,0,0,5.211,5.21,5.216,5.216,0,0,0,5.21-5.21A5.216,5.216,0,0,0-190.541-127.1Z" transform="translate(199.886 131.054)"/></g><path class="a" d="M417.7,180.7h6.853l-10.881,32.009h-7.4L395.412,180.7h6.853l6.021,19.048q.5,1.686,1.04,3.93t.668,3.119a56.038,56.038,0,0,1,1.642-7.049Z" transform="translate(0 2.459)"/><path class="a" d="M427.217,212.711V180.7H434v32.009Z" transform="translate(3.451 2.459)"/><path class="a" d="M453.263,212.711h-6.787v-26.36h-8.692V180.7h24.171v5.649h-8.692Z" transform="translate(4.597 2.459)"/><path class="a" d="M470.82,200.429v12.282h-6.787V180.7h9.327q6.525,0,9.655,2.375t3.132,7.214a8.491,8.491,0,0,1-1.555,5.025,10.292,10.292,0,0,1-4.4,3.449q7.225,10.793,9.414,13.946h-7.531l-7.642-12.282Zm0-5.517h2.189a8.371,8.371,0,0,0,4.75-1.073,3.827,3.827,0,0,0,1.534-3.372,3.5,3.5,0,0,0-1.566-3.24,9.5,9.5,0,0,0-4.85-.963H470.82Z" transform="translate(7.445 2.459)"/><path class="a" d="M492.618,212.711V180.7h6.787v32.009Z" transform="translate(10.547 2.459)"/><path class="a" d="M536.287,212.711H527.66L513.735,188.5h-.2q.416,6.417.417,9.152v15.063H507.89V180.7h8.561l13.9,23.975h.154q-.331-6.24-.329-8.824V180.7h6.109Z" transform="translate(12.204 2.459)"/><path class="a" d="M559.21,212.711H540.775V180.7H559.21v5.561H547.562v7.028H558.4v5.561H547.562v8.254H559.21Z" transform="translate(15.772 2.459)"/></g></svg>