<svg id="Camada_1" data-name="Camada 1" xmlns="http://www.w3.org/2000/svg" viewBox="0 0 343 293"><defs><style>.cls-1{fill:#ef6c00;}</style></defs><polygon class="cls-1" points="111.5 86.5 111.5 86.5 111.5 97.07 111.5 97.07 111.5 97.07 112.74 97.07 112.74 97.07 112.74 97.07 112.74 87.74 122.07 87.74 122.07 86.5 122.07 86.5 111.5 86.5"/><polygon class="cls-1" points="220.93 86.5 220.93 86.5 220.93 87.74 220.93 87.74 220.93 87.74 220.93 87.74 230.26 87.74 230.26 97.07 231.5 97.07 231.5 97.07 231.5 86.5 231.5 86.5 220.93 86.5"/><polygon class="cls-1" points="231.5 195.93 230.26 195.93 230.26 195.93 230.26 195.93 230.26 205.26 220.93 205.26 220.93 206.5 220.93 206.5 231.5 206.5 231.5 206.5 231.5 195.93 231.5 195.93 231.5 195.93"/><polygon class="cls-1" points="112.74 205.26 112.74 195.93 111.5 195.93 111.5 195.93 111.5 206.5 111.5 206.5 122.07 206.5 122.07 206.5 122.07 205.26 122.07 205.26 122.07 205.26 122.07 205.26 112.74 205.26"/></svg>