<svg xmlns="http://www.w3.org/2000/svg" width="34.939" height="32.869" viewBox="0 0 34.939 32.869"><defs><style>.a{fill:#9e9e9e;stroke:rgba(0,0,0,0);stroke-miterlimit:10;}</style></defs><path class="a" d="M9.016,31.039c-.2-.99,1.845-.682,2.569-1.408a2.929,2.929,0,0,0-.036-4.45,2.816,2.816,0,0,0-4.344.069c-.725.725-.524,2.7-1.513,2.464-1.84-.429-.7-3.989.609-5.3,1.507-1.5,4.035-1.509,6.117-.167l4.457-4.457L9.893,10.515l-5.387,6.2L0,12.213,12.2,1.62,13.355.462a1.575,1.575,0,0,1,2.228,0l.673.673a1.575,1.575,0,0,1,0,2.228L15.1,4.522,11.819,8.3l7.422,7.126,4.694-4.694c-1.342-2.082-1.337-4.61.168-6.116,1.314-1.314,4.99-2.147,5.3-.609.2.989-1.845.682-2.57,1.408a2.929,2.929,0,0,0,.036,4.449,2.816,2.816,0,0,0,4.344-.068c.725-.725.524-2.7,1.513-2.464,1.84.429.706,3.989-.609,5.3-1.469,1.47-3.913,1.509-5.966.262L21.477,17.57l9.8,9.411a1.457,1.457,0,0,1,.029,2.087l-.787.785a1.454,1.454,0,0,1-2.086-.028l-9.412-9.8-4.441,4.441c1.247,2.053,1.207,4.5-.263,5.966a6.116,6.116,0,0,1-3.787,1.439C9.748,31.869,9.136,31.628,9.016,31.039Z" transform="translate(0.733 0.5)"/></svg>