<svg xmlns="http://www.w3.org/2000/svg" width="92" height="92" viewBox="0 0 92 92">
  <defs>
    <style>
      .cls-1 {
        fill: none;
      }

      .cls-2 {
        fill: #f57c00;
        font-size: 13px;
        font-family: SegoeUI-Semibold, Segoe UI;
        font-weight: 600;
      }

      .cls-3, .cls-5 {
        fill: #ef6c00;
      }

      .cls-4, .cls-5 {
        stroke: none;
      }
    </style>
  </defs>
  <g id="Grupo_71" data-name="Grupo 71" transform="translate(-245 -1004)">
    <g id="sacola" transform="translate(245 1004)">
      <g id="Grupo_8" data-name="Grupo 8" transform="translate(-42 -671)">
        <g id="Caminho_27" data-name="Caminho 27" class="cls-1" transform="translate(42 671)">
          <path class="cls-4" d="M46,0A46,46,0,1,1,0,46,46,46,0,0,1,46,0Z"/>
          <path class="cls-5" d="M 46 1 C 39.92459869384766 1 34.03146362304688 2.189651489257813 28.48427581787109 4.535911560058594 C 23.12582397460938 6.802352905273438 18.31324005126953 10.04714965820313 14.18019866943359 14.18019866943359 C 10.04714965820313 18.31324005126953 6.802352905273438 23.12582397460938 4.535911560058594 28.48427581787109 C 2.189651489257813 34.03146362304688 1 39.92459869384766 1 46 C 1 52.07540130615234 2.189651489257813 57.96853637695313 4.535911560058594 63.51572418212891 C 6.802352905273438 68.87417602539063 10.04714965820313 73.68675994873047 14.18019866943359 77.81980133056641 C 18.31324005126953 81.95285034179688 23.12582397460938 85.19764709472656 28.48427581787109 87.46408843994141 C 34.03146362304688 89.81034851074219 39.92459869384766 91 46 91 C 52.07540130615234 91 57.96853637695313 89.81034851074219 63.51572418212891 87.46408843994141 C 68.87417602539063 85.19764709472656 73.68675994873047 81.95285034179688 77.81980133056641 77.81980133056641 C 81.95285034179688 73.68675994873047 85.19764709472656 68.87417602539063 87.46408843994141 63.51572418212891 C 89.81034851074219 57.96853637695313 91 52.07540130615234 91 46 C 91 39.92459869384766 89.81034851074219 34.03146362304688 87.46408843994141 28.48427581787109 C 85.19764709472656 23.12582397460938 81.95285034179688 18.31324005126953 77.81980133056641 14.18019866943359 C 73.68675994873047 10.04714965820313 68.87417602539063 6.802352905273438 63.51572418212891 4.535911560058594 C 57.96853637695313 2.189651489257813 52.07540130615234 1 46 1 M 46 0 C 71.40509796142578 0 92 20.59490203857422 92 46 C 92 71.40509796142578 71.40509796142578 92 46 92 C 20.59490203857422 92 0 71.40509796142578 0 46 C 0 20.59490203857422 20.59490203857422 0 46 0 Z"/>
        </g>
      </g>
      <text id="Sacola-2" data-name="Sacola" class="cls-2" transform="translate(15 61)"><tspan x="12.04" y="14">Sacola</tspan></text>
      <g id="cesta_de_compras" data-name="cesta de compras" transform="translate(103.205 301.267)">
        <path id="Caminho_2" data-name="Caminho 2" class="cls-3" d="M176.367,156.328H169.34l-9.366-9.366a2.438,2.438,0,0,0,.561-1.547,2.464,2.464,0,0,0-4.927,0,2.438,2.438,0,0,0,.561,1.547l-9.366,9.366h-7.027v3.785h1.543V175.16a3.847,3.847,0,0,0,3.9,3.785h25.708a3.847,3.847,0,0,0,3.9-3.785V160.113h1.544Zm-22.657,5.221V175.16H150.7V161.549Zm2.776,0H159.5V175.16h-3.011Zm5.785,0h3.012V175.16h-3.012Zm-4.2-13.671a2.452,2.452,0,0,0,.868-.165l8.615,8.615H148.588l8.615-8.615A2.454,2.454,0,0,0,158.072,147.878Zm-12.855,25.627V161.549h2.706V175.16h-1.051A1.656,1.656,0,0,1,145.218,173.505Zm23.933,1.655h-1.093V161.549h2.868l0,11.834A1.778,1.778,0,0,1,169.15,175.16Z" transform="translate(-215.777 -424.952)"/>
      </g>
    </g>
  </g>
</svg>
