<svg xmlns="http://www.w3.org/2000/svg" width="55.294" height="52.3" viewBox="0 0 55.294 52.3"><defs><style>.a{fill:#9e9e9e;stroke:rgba(0,0,0,0);stroke-miterlimit:10;}</style></defs><path class="a" d="M16.893,51.116c-1.256,0-2.239-.387-2.431-1.33-.323-1.588,2.959-1.1,4.122-2.258a4.7,4.7,0,0,0-.059-7.136c-2.265-2.266-4.856-2-6.968.11-1.164,1.162-.84,4.324-2.426,3.953-2.952-.688-1.13-6.4.977-8.507,2.416-2.415,6.471-2.422,9.812-.268l7.149-7.149-11.2-11.666L7.226,26.816,0,19.589,19.563,2.6,21.421.741A2.528,2.528,0,0,1,25,.741L26.075,1.82a2.527,2.527,0,0,1,0,3.575L24.217,7.252l-5.26,6.056,11.9,11.429,7.527-7.528c-2.153-3.34-2.146-7.4.27-9.811,2.109-2.109,8.006-3.443,8.507-.978.323,1.588-2.958,1.1-4.122,2.258a4.7,4.7,0,0,0,.059,7.136c2.266,2.266,4.855,2,6.968-.11,1.164-1.162.84-4.324,2.426-3.953,2.952.689,1.131,6.4-.977,8.507-2.357,2.357-6.278,2.421-9.571.42l-7.5,7.5,15.723,15.1a2.337,2.337,0,0,1,.046,3.348l-1.261,1.26a2.335,2.335,0,0,1-3.347-.045l-15.1-15.723-7.123,7.122c2,3.292,1.938,7.213-.42,9.57A9.809,9.809,0,0,1,16.9,51.116Z" transform="translate(0.733 0.683)"/></svg>