<svg id="Camada_1" data-name="Camada 1" xmlns="http://www.w3.org/2000/svg" viewBox="0 0 250 145"><defs><style>.cls-1{fill:none;}.cls-2{fill:#ef6c00;}</style></defs><g id="pagar-3"><g id="Grupo_8-3" data-name="Grupo 8-3"><g id="Retângulo_5-2" data-name="Retângulo 5-2"><path class="cls-1" d="M111.5,29.5h0a45,45,0,0,1,45,45h0a45,45,0,0,1-45,45h0a45,45,0,0,1-45-45h0A45,45,0,0,1,111.5,29.5Z"/><path class="cls-2" d="M111.5,119.5a45,45,0,1,1,45-45A45.05,45.05,0,0,1,111.5,119.5Zm0-89a44,44,0,1,0,44,44A44.07,44.07,0,0,0,111.5,30.48Z"/></g></g></g><path class="cls-2" d="M92.16,100.69a5.66,5.66,0,0,0,.63-2.78,5,5,0,0,0-1.1-3.45,4,4,0,0,0-3.13-1.22,4.07,4.07,0,0,0-3.16,1.2,4.92,4.92,0,0,0-1.11,3.45,5,5,0,0,0,1.1,3.47,4,4,0,0,0,3.16,1.22h.24l1.71,2h2l-2.17-2.34A3.48,3.48,0,0,0,92.16,100.69Zm-1.62-.23a2.74,2.74,0,0,1-4,0,5.08,5.08,0,0,1,0-5.08,2.44,2.44,0,0,1,2-.86,2.38,2.38,0,0,1,2,.86,4.14,4.14,0,0,1,.67,2.54A4.06,4.06,0,0,1,90.54,100.46Z"/><path class="cls-2" d="M100.75,96a2.36,2.36,0,0,0-.84-2,4.2,4.2,0,0,0-2.6-.66H94.74v9.08h1.49V98.83h1.46l2.18,3.63h1.69l-2.57-4A2.48,2.48,0,0,0,100.75,96ZM97.26,97.6h-1v-3h1a2.76,2.76,0,0,1,1.51.34,1.21,1.21,0,0,1,.51,1.1,1.41,1.41,0,0,1-.47,1.15A2.39,2.39,0,0,1,97.26,97.6Z"/><path class="cls-2" d="M110,94.52a3.47,3.47,0,0,1,1.07.17,7.12,7.12,0,0,1,1,.38l.53-1.24a5.7,5.7,0,0,0-2.57-.58,4.58,4.58,0,0,0-2.3.56,3.65,3.65,0,0,0-1.5,1.63,5.52,5.52,0,0,0-.52,2.48,5,5,0,0,0,1.07,3.45,3.85,3.85,0,0,0,3.06,1.21,6.79,6.79,0,0,0,2.42-.4v-1.27c-.39.12-.76.21-1.12.29a5.19,5.19,0,0,1-1.12.12,2.5,2.5,0,0,1-2-.86,3.91,3.91,0,0,1-.71-2.53,3.86,3.86,0,0,1,.74-2.5A2.41,2.41,0,0,1,110,94.52Z"/><path class="cls-2" d="M118.06,93.24a4.09,4.09,0,0,0-3.16,1.2,4.92,4.92,0,0,0-1.11,3.45,5,5,0,0,0,1.1,3.47,4.66,4.66,0,0,0,6.3,0,5.9,5.9,0,0,0,0-6.89A4,4,0,0,0,118.06,93.24Zm2,7.22a2.74,2.74,0,0,1-4,0,5.15,5.15,0,0,1,0-5.08,2.44,2.44,0,0,1,2-.86,2.37,2.37,0,0,1,2,.86,5.14,5.14,0,0,1,0,5.09Z"/><path class="cls-2" d="M127.05,93.38h-2.8v9.08h2.53a5,5,0,0,0,3.6-1.19,4.53,4.53,0,0,0,1.25-3.44,4.33,4.33,0,0,0-1.21-3.28A4.62,4.62,0,0,0,127.05,93.38Zm-.27,7.83h-1V94.62H127q3,0,3,3.26T126.78,101.21Z"/><polygon class="cls-2" points="138.71 94.63 138.71 93.38 133.58 93.38 133.58 102.46 138.71 102.46 138.71 101.2 135.06 101.2 135.06 98.35 138.48 98.35 138.48 97.11 135.06 97.11 135.06 94.63 138.71 94.63"/><polygon class="cls-2" points="128.63 74.22 125.69 74.22 125.69 79.6 120.31 79.6 120.31 82.53 128.63 82.53 128.63 74.22"/><polygon class="cls-2" points="94.39 56.61 97.32 56.61 97.32 51.23 102.7 51.23 102.7 48.29 94.39 48.29 94.39 56.61"/><polygon class="cls-2" points="125.69 56.61 128.63 56.61 128.63 48.29 120.31 48.29 120.31 51.23 125.69 51.23 125.69 56.61"/><polygon class="cls-2" points="97.32 74.22 94.39 74.22 94.39 82.53 102.7 82.53 102.7 79.6 97.32 79.6 97.32 74.22"/></svg>