<svg id="Camada_1" data-name="Camada 1" xmlns="http://www.w3.org/2000/svg" viewBox="0 0 250 145"><defs><style>.cls-1{fill:none;}.cls-2{fill:#ef6c00;}</style></defs><g id="pagar-3"><g id="Grupo_8-3" data-name="Grupo 8-3"><g id="Retângulo_5-2" data-name="Retângulo 5-2"><path class="cls-1" d="M121.14,8h0a65,65,0,0,1,65,65h0a65,65,0,0,1-65,65h0a65,65,0,0,1-65-65h0A65,65,0,0,1,121.14,8Z"/><path class="cls-2" d="M121.14,138a65,65,0,1,1,65-65A65.07,65.07,0,0,1,121.14,138Zm0-128.59A63.59,63.59,0,1,0,184.72,73,63.66,63.66,0,0,0,121.14,9.44Z"/></g></g></g><path class="cls-2" d="M93.21,110.86a8.24,8.24,0,0,0,.9-4,7.19,7.19,0,0,0-1.59-5A5.77,5.77,0,0,0,88,100.1a5.89,5.89,0,0,0-4.57,1.74,7.08,7.08,0,0,0-1.6,5,7.21,7.21,0,0,0,1.59,5A5.81,5.81,0,0,0,88,113.59h.35l2.48,3h2.88l-3.14-3.38A5,5,0,0,0,93.21,110.86Zm-2.35-.33a4,4,0,0,1-5.78,0,5.86,5.86,0,0,1-1-3.67,5.79,5.79,0,0,1,1-3.66A3.47,3.47,0,0,1,88,101.93a3.41,3.41,0,0,1,2.87,1.25,7.41,7.41,0,0,1,0,7.35Z"/><path class="cls-2" d="M105.61,104.12a3.4,3.4,0,0,0-1.22-2.87,6.08,6.08,0,0,0-3.75-1H96.93v13.12h2.15v-5.24h2.11l3.14,5.24h2.44l-3.7-5.81A3.58,3.58,0,0,0,105.61,104.12Zm-5,2.28H99.08v-4.29h1.41a4,4,0,0,1,2.19.49,1.75,1.75,0,0,1,.73,1.59,2,2,0,0,1-.68,1.66A3.39,3.39,0,0,1,100.56,106.4Z"/><path class="cls-2" d="M119,102a5,5,0,0,1,1.56.24,11.64,11.64,0,0,1,1.4.55l.77-1.78a8.13,8.13,0,0,0-3.71-.85,6.63,6.63,0,0,0-3.33.82,5.36,5.36,0,0,0-2.16,2.35,8,8,0,0,0-.75,3.58,7.29,7.29,0,0,0,1.54,5,5.6,5.6,0,0,0,4.42,1.74,9.81,9.81,0,0,0,3.5-.58v-1.84a16.32,16.32,0,0,1-1.62.43,7.81,7.81,0,0,1-1.62.17,3.6,3.6,0,0,1-2.94-1.24,6.87,6.87,0,0,1,0-7.27A3.53,3.53,0,0,1,119,102Z"/><path class="cls-2" d="M130.61,100.1a5.9,5.9,0,0,0-4.57,1.74,7.08,7.08,0,0,0-1.6,5,7.21,7.21,0,0,0,1.59,5,6.75,6.75,0,0,0,9.1,0,8.55,8.55,0,0,0,0-10A5.76,5.76,0,0,0,130.61,100.1Zm2.87,10.43a3.47,3.47,0,0,1-2.89,1.24,3.42,3.42,0,0,1-2.89-1.26,7.34,7.34,0,0,1,0-7.33,3.5,3.5,0,0,1,2.91-1.25,3.43,3.43,0,0,1,2.88,1.25,7.48,7.48,0,0,1,0,7.35Z"/><path class="cls-2" d="M143.6,100.3h-4v13.12h3.66a7.28,7.28,0,0,0,5.2-1.72,6.55,6.55,0,0,0,1.8-5,6.28,6.28,0,0,0-1.74-4.74A6.68,6.68,0,0,0,143.6,100.3Zm-.39,11.31h-1.52V102.1h1.86c2.93,0,4.4,1.56,4.4,4.71S146.37,111.61,143.21,111.61Z"/><polygon class="cls-2" points="160.44 102.11 160.44 100.3 153.03 100.3 153.03 113.42 160.44 113.42 160.44 111.59 155.17 111.59 155.17 107.48 160.11 107.48 160.11 105.68 155.17 105.68 155.17 102.11 160.44 102.11"/><polygon class="cls-2" points="145.87 72.63 141.63 72.63 141.63 80.4 133.86 80.4 133.86 84.64 145.87 84.64 145.87 72.63"/><polygon class="cls-2" points="96.42 47.19 100.66 47.19 100.66 39.42 108.43 39.42 108.43 35.18 96.42 35.18 96.42 47.19"/><polygon class="cls-2" points="141.63 47.19 145.87 47.19 145.87 35.18 133.86 35.18 133.86 39.42 141.63 39.42 141.63 47.19"/><polygon class="cls-2" points="100.66 72.63 96.42 72.63 96.42 84.64 108.43 84.64 108.43 80.4 100.66 80.4 100.66 72.63"/></svg>